<?xml version="1.0" encoding="UTF-8" standalone="no"?><!DOCTYPE svg PUBLIC "-//W3C//DTD SVG 1.1//EN" "http://www.w3.org/Graphics/SVG/1.1/DTD/svg11.dtd"><svg width="100%" height="100%" viewBox="0 0 135 48" version="1.1" xmlns="http://www.w3.org/2000/svg" xmlns:xlink="http://www.w3.org/1999/xlink" xml:space="preserve" xmlns:serif="http://www.serif.com/" style="fill-rule:evenodd;clip-rule:evenodd;stroke-linejoin:round;stroke-miterlimit:1.41421;"><g id="kaizen"><path d="M131.655,13.966l3.336,0l0,20.068l-3.071,0l-5.448,-12.745l0.428,3.915l0,8.83l-3.337,0l0,-20.068l3.303,0l5.218,12.741l-0.429,-3.913l0,-8.828Zm-13.576,11.538l-5.085,0l0,5.15l5.746,0l0,3.38l-9.545,0l0,-20.068l9.545,0l0,3.378l-5.746,0l0,4.85l5.085,0l0,3.31Zm-13.277,8.53l-10.966,0l0,-2.712l6.541,-13.978l-6.045,0l0,-3.378l10.47,0l0,2.742l-6.54,13.946l6.54,0l0,3.38Zm-36.994,0l-4.26,0l-3.37,-10.136l3.468,-9.932l3.931,0l-3.765,9.932l3.996,10.136Zm22.132,0l-3.8,0l0,-20.068l3.8,0l0,20.068Zm-29.959,0l-3.8,0l0,-20.068l3.8,0l0,20.068Zm18.761,-20.068l4.095,20.068l-3.798,0l-0.595,-3.013l-4.361,0l-0.592,3.013l-3.799,0l4.095,-20.068l4.955,0Zm-0.794,13.745l-0.991,-5.451l-0.659,-4.38l-0.067,0l-0.66,4.38l-0.992,5.451l3.369,0Z" style="fill:#1a171b;fill-rule:nonzero;"/><g><path d="M23.705,4.88c3.469,0 6.291,2.857 6.291,6.369c0,2.809 -1.818,5.173 -4.317,6.017c-0.392,1.931 -1.284,3.711 -2.601,5.202c0.21,0.01 0.415,0.031 0.627,0.031c6.125,0 11.111,-5.047 11.111,-11.25c0,-6.204 -4.986,-11.249 -11.111,-11.249c-3.287,0 -6.237,1.462 -8.272,3.765c1.97,0.111 3.845,0.731 5.466,1.815c0.849,-0.432 1.792,-0.7 2.806,-0.7" style="fill:#52d4b3;fill-rule:nonzero;"/><path d="M23.705,43.119c-3.469,0 -6.29,-2.856 -6.29,-6.367c0,-2.809 1.817,-5.173 4.315,-6.015c0.39,-1.93 1.284,-3.711 2.6,-5.202c-0.208,-0.013 -0.414,-0.031 -0.625,-0.031c-6.126,0 -11.111,5.046 -11.111,11.248c0,6.201 4.985,11.248 11.111,11.248c3.287,0 6.237,-1.463 8.273,-3.768c-1.968,-0.111 -3.842,-0.731 -5.464,-1.813c-0.85,0.432 -1.796,0.7 -2.809,0.7" style="fill:#52d4b3;fill-rule:nonzero;"/><path d="M10.35,10.483c2.454,-2.486 6.445,-2.486 8.897,-0.003c1.962,1.987 2.328,4.96 1.149,7.347c1.071,1.642 1.686,3.542 1.796,5.538c0.154,-0.14 0.313,-0.273 0.465,-0.426c4.33,-4.384 4.331,-11.523 0,-15.91c-4.331,-4.385 -11.383,-4.385 -15.715,0.001c-2.322,2.353 -3.39,5.499 -3.22,8.584c1.472,-1.331 3.231,-2.235 5.134,-2.63c0.299,-0.912 0.779,-1.776 1.494,-2.501" style="fill:#7ad98c;fill-rule:nonzero;"/><path d="M37.056,37.522c-2.452,2.482 -6.441,2.482 -8.894,0c-1.962,-1.986 -2.327,-4.959 -1.149,-7.344c-1.075,-1.643 -1.686,-3.543 -1.793,-5.541c-0.158,0.142 -0.316,0.275 -0.468,0.428c-4.33,4.385 -4.33,11.521 0,15.908c4.335,4.384 11.382,4.384 15.714,0c2.325,-2.354 3.391,-5.499 3.218,-8.586c-1.469,1.328 -3.226,2.233 -5.129,2.627c-0.297,0.916 -0.78,1.781 -1.499,2.508" style="fill:#29ccd9;fill-rule:nonzero;"/><path d="M4.82,24.004c0,-3.514 2.823,-6.372 6.29,-6.372c2.776,0 5.109,1.84 5.943,4.372c1.905,0.396 3.667,1.297 5.139,2.631c0.008,-0.209 0.029,-0.418 0.032,-0.634c-0.003,-6.201 -4.987,-11.25 -11.114,-11.25c-6.126,-0.001 -11.11,5.049 -11.11,11.251c0,3.325 1.443,6.316 3.718,8.375c0.111,-1.994 0.723,-3.892 1.792,-5.536c-0.427,-0.858 -0.69,-1.814 -0.69,-2.837" style="fill:#a3de66;fill-rule:nonzero;"/><path d="M42.589,24.002c0,3.512 -2.822,6.367 -6.29,6.369c-2.774,0 -5.108,-1.841 -5.941,-4.37c-1.908,-0.392 -3.666,-1.298 -5.138,-2.633c-0.013,0.21 -0.032,0.42 -0.032,0.636c0,6.202 4.984,11.245 11.111,11.248c6.127,-0.003 11.111,-5.046 11.111,-11.251c0.001,-3.328 -1.444,-6.315 -3.723,-8.374c-0.108,1.991 -0.72,3.888 -1.79,5.531c0.429,0.859 0.692,1.818 0.692,2.844" style="fill:#00c7ff;fill-rule:nonzero;"/><path d="M10.353,37.523c-2.454,-2.484 -2.454,-6.525 -0.003,-9.008c1.965,-1.989 4.899,-2.357 7.256,-1.164c1.625,-1.085 3.501,-1.707 5.471,-1.819c-0.139,-0.154 -0.269,-0.316 -0.42,-0.47c-4.331,-4.384 -11.384,-4.385 -15.714,0.001c-4.332,4.383 -4.332,11.524 0,15.911c2.324,2.351 5.431,3.43 8.48,3.257c-1.316,-1.488 -2.209,-3.268 -2.6,-5.194c-0.901,-0.302 -1.754,-0.789 -2.47,-1.514" style="fill:#7ad98c;fill-rule:nonzero;"/><path d="M37.059,10.483c2.451,2.482 2.451,6.521 0,9.005c-1.962,1.986 -4.896,2.355 -7.253,1.164c-1.622,1.09 -3.5,1.705 -5.47,1.817c0.138,0.158 0.268,0.319 0.419,0.472c4.332,4.385 11.381,4.383 15.712,-0.002c4.331,-4.387 4.334,-11.522 0,-15.909c-2.323,-2.352 -5.429,-3.433 -8.48,-3.255c1.314,1.485 2.207,3.263 2.595,5.193c0.905,0.3 1.76,0.788 2.477,1.515" style="fill:#29ccd9;fill-rule:nonzero;"/></g></g></svg>