<?xml version="1.0" encoding="UTF-8" standalone="no"?><!DOCTYPE svg PUBLIC "-//W3C//DTD SVG 1.1//EN" "http://www.w3.org/Graphics/SVG/1.1/DTD/svg11.dtd"><svg width="100%" height="100%" viewBox="0 0 102 48" version="1.1" xmlns="http://www.w3.org/2000/svg" xmlns:xlink="http://www.w3.org/1999/xlink" xml:space="preserve" xmlns:serif="http://www.serif.com/" style="fill-rule:evenodd;clip-rule:evenodd;stroke-linejoin:round;stroke-miterlimit:1.41421;"><g><path d="M66.501,14.423l-0.059,0c-0.488,-0.039 -0.85,-0.059 -1.085,-0.059c-1.778,0 -3.058,0.293 -3.84,0.879c-0.781,0.587 -1.171,1.456 -1.171,2.609c0,1.778 0.839,2.667 2.52,2.667c0.743,0 1.436,-0.21 2.081,-0.63c0.645,-0.42 1.133,-0.972 1.466,-1.656l0.088,-3.81Zm-1.818,7.342c-0.644,0.303 -1.378,0.454 -2.198,0.454c-0.86,0 -1.593,-0.117 -2.198,-0.35c-0.607,-0.234 -1.095,-0.55 -1.465,-0.95c-0.373,-0.399 -0.636,-0.842 -0.793,-1.33c-0.156,-0.486 -0.234,-0.993 -0.234,-1.519c0,-1.656 0.679,-2.942 2.037,-3.857c1.357,-0.915 3.258,-1.373 5.701,-1.373c0.411,0 0.752,0 1.026,0l0,-1.026c0,-0.665 -0.029,-1.158 -0.088,-1.481c-0.058,-0.322 -0.186,-0.59 -0.38,-0.806c-0.47,-0.528 -1.124,-0.79 -1.964,-0.79c-0.783,0 -1.632,0.175 -2.55,0.526c-0.919,0.353 -1.623,0.753 -2.111,1.203l-1.143,-1.642c1.973,-1.309 4.016,-1.964 6.126,-1.964c2.071,0 3.419,0.762 4.045,2.286c0.136,0.313 0.224,0.703 0.264,1.172c0.039,0.469 0.058,1.154 0.058,2.052l-0.117,4.808c0,1.251 0.073,2.091 0.219,2.521c0.148,0.43 0.465,0.781 0.953,1.055l-1.172,1.438c-0.536,-0.118 -0.934,-0.222 -1.275,-0.603c-0.342,-0.381 -0.581,-0.825 -0.718,-1.334c-0.703,0.704 -1.377,1.207 -2.023,1.51Z" style="fill:#030404;fill-rule:nonzero;"/><path d="M74.071,18.409c0.391,0.508 0.918,0.928 1.583,1.26c0.664,0.333 1.338,0.499 2.023,0.499c0.508,0 1.011,-0.122 1.509,-0.367c0.498,-0.244 0.874,-0.551 1.129,-0.923c0.292,-0.449 0.537,-1.06 0.732,-1.832c0.195,-0.772 0.294,-1.724 0.294,-2.858c0,-0.977 -0.064,-1.769 -0.191,-2.374c-0.128,-0.606 -0.347,-1.124 -0.66,-1.554c-0.274,-0.391 -0.659,-0.699 -1.157,-0.924c-0.498,-0.224 -1.032,-0.337 -1.598,-0.337c-0.704,0 -1.388,0.176 -2.052,0.528c-0.665,0.352 -1.202,0.811 -1.612,1.378l0,7.504Zm-0.132,2.697c-0.049,0.215 -0.187,0.813 -0.324,1.086l-2.182,-0.557c0.115,-0.35 0.21,-0.598 0.278,-1.145c0.068,-0.547 0.102,-1.309 0.102,-2.286l0,-14.363c0,-0.801 -0.048,-1.456 -0.145,-1.964c-0.098,-0.508 -0.177,-0.851 -0.235,-1.026l2.286,-0.44c0.059,0.195 0.137,0.587 0.234,1.173c0.098,0.586 0.147,1.348 0.147,2.286l0,3.4c0,0.313 -0.005,0.621 -0.014,0.924c-0.011,0.303 -0.025,0.532 -0.044,0.688c0.722,-0.703 1.406,-1.206 2.051,-1.509c0.645,-0.303 1.359,-0.455 2.14,-0.455c1.739,0 3.117,0.665 4.133,1.994c1.017,1.329 1.525,3.136 1.525,5.422c0,2.345 -0.533,4.241 -1.598,5.687c-1.065,1.447 -2.468,2.169 -4.206,2.169c-0.743,0 -1.495,-0.186 -2.258,-0.556c-0.761,-0.371 -1.348,-0.831 -1.758,-1.379c-0.039,0.352 -0.083,0.635 -0.132,0.851Z" style="fill:#030404;fill-rule:nonzero;"/><path d="M84.278,20.931l1.115,-1.819c1.506,0.919 3.049,1.378 4.632,1.378c0.899,0 1.617,-0.229 2.155,-0.689c0.536,-0.459 0.805,-1.07 0.805,-1.832c0,-0.663 -0.19,-1.187 -0.571,-1.568c-0.381,-0.381 -0.992,-0.66 -1.833,-0.835l-1.817,-0.381c-1.191,-0.254 -2.105,-0.733 -2.74,-1.437c-0.635,-0.703 -0.953,-1.563 -0.953,-2.579c0,-1.329 0.484,-2.408 1.452,-3.239c0.966,-0.83 2.212,-1.246 3.737,-1.246c0.762,0 1.538,0.107 2.33,0.323c0.791,0.214 1.499,0.498 2.125,0.849l-0.85,1.701c-0.743,-0.352 -1.388,-0.616 -1.935,-0.792c-0.546,-0.176 -1.123,-0.264 -1.729,-0.264c-0.841,0 -1.51,0.22 -2.008,0.659c-0.499,0.44 -0.747,1.023 -0.747,1.745c0,0.567 0.161,1.021 0.483,1.363c0.323,0.342 0.865,0.591 1.627,0.747l1.935,0.411c2.598,0.547 3.898,1.905 3.898,4.074c0,1.426 -0.508,2.579 -1.524,3.459c-1.016,0.88 -2.345,1.319 -3.987,1.319c0,0 -3.226,-0.003 -5.6,-1.347Z" style="fill:#030404;fill-rule:nonzero;"/><path d="M100.211,18.818c-0.107,-0.057 -0.413,-0.189 -0.802,-0.189c-0.776,0 -1.155,0.495 -1.155,1.156c0,0.644 0.403,1.166 1.164,1.166c0.331,0 0.645,-0.091 0.836,-0.215l0.097,0.314c-0.288,0.19 -0.668,0.256 -1.015,0.256c-0.959,0 -1.513,-0.661 -1.513,-1.496c0,-0.941 0.743,-1.536 1.578,-1.536c0.43,0 0.794,0.124 0.911,0.222l-0.101,0.322Zm-3.107,0.967c0,1.232 0.91,2.199 2.1,2.199c1.164,0.016 2.073,-0.967 2.073,-2.224c0,-1.23 -0.909,-2.205 -2.082,-2.205c-1.181,0 -2.091,0.975 -2.091,2.23Zm4.586,-0.025c0,1.422 -1.09,2.562 -2.486,2.562c-1.405,0 -2.512,-1.14 -2.512,-2.562c0,-1.404 1.107,-2.544 2.52,-2.544c1.388,0 2.478,1.14 2.478,2.544Z" style="fill:#030404;fill-rule:nonzero;"/><path d="M100.063,37.433l-19.19,0l-10.657,7.282l0,-7.282l-69.355,0c-0.476,0 -0.861,0.391 -0.861,0.875c0,0.483 0.385,0.875 0.861,0.875l67.634,0l0,8.817l12.902,-8.817l18.666,0c0.475,0 0.86,-0.392 0.86,-0.875c0,-0.484 -0.385,-0.875 -0.86,-0.875Z" style="fill:#030404;fill-rule:nonzero;"/><path d="M15.987,21.839l0,-9.351c0,-0.977 -0.063,-1.578 -0.191,-1.803c-0.127,-0.224 -0.425,-0.337 -0.894,-0.337c-0.156,0 -0.405,0.059 -0.747,0.176c-0.342,0.117 -0.64,0.254 -0.894,0.41l0,10.905l-4.778,0l0,-9.381c0,-1.015 -0.049,-1.636 -0.147,-1.86c-0.098,-0.225 -0.391,-0.338 -0.879,-0.338c-0.234,0 -0.518,0.058 -0.85,0.176c-0.333,0.117 -0.597,0.254 -0.791,0.41l0,10.993l-4.954,0l0,-9.633c0,-2.056 -0.157,-3.749 -0.469,-5.081l4.69,-0.793l0.029,0.117c0.157,0.548 0.244,0.997 0.264,1.349c0.547,-0.47 1.138,-0.831 1.773,-1.085c0.635,-0.254 1.266,-0.381 1.891,-0.381c0.762,0 1.412,0.142 1.949,0.425c0.538,0.284 1.021,0.689 1.452,1.217c1.211,-1.095 2.657,-1.642 4.337,-1.642c0.587,0 1.119,0.064 1.598,0.19c0.478,0.128 0.908,0.353 1.29,0.675c0.381,0.322 0.679,0.782 0.894,1.377c0.215,0.597 0.322,1.344 0.322,2.243l0,11.022l-4.895,0Z" style="fill:#030404;fill-rule:nonzero;"/><path d="M31.493,3.987c-0.411,-0.234 -0.899,-0.352 -1.466,-0.352c-0.313,0 -0.586,0.098 -0.821,0.293c-0.234,0.196 -0.351,0.46 -0.351,0.792l0,1.993l3.194,0l-1.081,3.342l-2.113,0l0,11.784l-5.1,0l0,-11.784l-1.29,0l0,-3.342l1.29,0c-0.04,-0.214 -0.064,-0.469 -0.074,-0.762c-0.01,-0.293 -0.014,-0.645 -0.014,-1.055c0,-1.036 0.175,-1.886 0.527,-2.55c0.352,-0.665 0.796,-1.163 1.334,-1.495c0.537,-0.332 1.094,-0.557 1.67,-0.675c0.577,-0.116 1.158,-0.176 1.745,-0.176c0.82,0 1.514,0.06 2.081,0.176c0.566,0.118 1.124,0.323 1.671,0.617l-1.202,3.194Z" style="fill:#030404;fill-rule:nonzero;"/><path d="M39.285,9.271c-1.531,0 -2.297,0.752 -2.297,2.259c0,1.454 0.753,2.181 2.258,2.181c0.766,0 1.353,-0.178 1.762,-0.536c0.408,-0.357 0.612,-0.905 0.612,-1.645c0,-1.507 -0.778,-2.259 -2.335,-2.259Zm7.546,-2.026l0,2.282c-0.731,0.512 -1.171,0.479 -1.269,0.44c0.157,0.117 0.318,0.356 0.484,0.718c0.165,0.362 0.249,0.738 0.249,1.129c0,0.703 -0.161,1.343 -0.484,1.919c-0.322,0.577 -0.776,1.071 -1.362,1.481c-0.587,0.41 -1.251,0.723 -1.994,0.938c-0.742,0.215 -1.534,0.322 -2.374,0.322l-1.641,0c-0.02,0.02 -0.05,0.049 -0.089,0.088c-0.156,0.176 -0.234,0.323 -0.234,0.44c0,0.137 0.122,0.249 0.366,0.337c0.245,0.088 0.572,0.131 0.982,0.131l2.199,0c1.778,0 3.146,0.387 4.103,1.159c0.958,0.772 1.437,1.842 1.437,3.21c0,1.797 -0.689,3.238 -2.067,4.322c-1.377,1.085 -3.424,1.628 -6.141,1.628c-1.212,0 -2.256,-0.108 -3.136,-0.323c-0.879,-0.215 -1.598,-0.508 -2.155,-0.879c-0.556,-0.372 -0.967,-0.797 -1.23,-1.275c-0.265,-0.479 -0.396,-0.982 -0.396,-1.51c0,-0.293 0.019,-0.62 0.058,-0.982c0.039,-0.362 0.089,-0.689 0.147,-0.981l4.572,0c-0.019,0.195 -0.029,0.498 -0.029,0.908c0,0.859 0.851,1.29 2.551,1.29c0.86,0 1.524,-0.157 1.993,-0.469c0.469,-0.313 0.703,-0.704 0.703,-1.173c0,-0.527 -0.181,-0.874 -0.542,-1.04c-0.362,-0.166 -1.099,-0.249 -2.213,-0.249l-2.668,0c-1.25,0 -2.223,-0.255 -2.916,-0.763c-0.694,-0.508 -1.041,-1.231 -1.041,-2.169c0,-0.567 0.162,-1.113 0.484,-1.641c0.322,-0.528 0.787,-0.918 1.393,-1.172c-1.447,-0.763 -2.17,-2.042 -2.17,-3.841c0,-1.602 0.625,-2.867 1.876,-3.796c1.251,-0.928 2.931,-1.392 5.042,-1.392c0.645,0 1.187,0.035 1.627,0.103c0.44,0.068 0.903,0.171 1.392,0.308c0.645,0.156 1.153,0.234 1.524,0.234c0.509,0 1.246,-0.111 1.684,-0.266c0.484,-0.169 1.28,-0.445 1.28,-0.445l0.005,0.979Z" style="fill:#030404;fill-rule:nonzero;"/><path d="M54.95,18.907c0,0.567 0.059,0.953 0.176,1.158c0.118,0.205 0.332,0.308 0.645,0.308c0.039,0 0.088,-0.009 0.146,-0.03c0.059,-0.018 0.108,-0.029 0.148,-0.029l0.468,1.495c-0.293,0.137 -0.533,0.225 -0.718,0.264c-0.187,0.039 -0.436,0.058 -0.748,0.058c-0.703,0 -1.28,-0.204 -1.729,-0.615c-0.469,-0.41 -0.704,-1.104 -0.704,-2.081l0,-15.477c0,-0.801 -0.044,-1.455 -0.131,-1.964c-0.089,-0.508 -0.161,-0.85 -0.22,-1.026l2.286,-0.439c0.058,0.195 0.136,0.585 0.235,1.172c0.097,0.586 0.146,1.348 0.146,2.286l0,14.92Z" style="fill:#030404;fill-rule:nonzero;"/><path d="M56.065,20.314l1.892,-1.098l0.935,1.513l-2.359,1.08l-0.468,-1.495Z" style="fill:#030404;fill-rule:nonzero;"/></g></svg>