<?xml version="1.0" encoding="UTF-8" standalone="no"?><!DOCTYPE svg PUBLIC "-//W3C//DTD SVG 1.1//EN" "http://www.w3.org/Graphics/SVG/1.1/DTD/svg11.dtd"><svg width="100%" height="100%" viewBox="0 0 144 48" version="1.1" xmlns="http://www.w3.org/2000/svg" xmlns:xlink="http://www.w3.org/1999/xlink" xml:space="preserve" xmlns:serif="http://www.serif.com/" style="fill-rule:evenodd;clip-rule:evenodd;stroke-linejoin:round;stroke-miterlimit:1.41421;"><rect id="Platine" x="0" y="0" width="144" height="48" style="fill:none;"/><g id="squares_1_"><path d="M43.458,34.089l0,-27.675l1.923,0l0,25.849l13.169,0l0,1.826l-15.092,0Zm24.602,0.383c-2.982,0 -5.289,-0.962 -7.016,-2.787c-1.63,-1.826 -2.502,-4.417 -2.502,-7.783c0,-3.267 0.766,-5.957 2.404,-7.88c1.63,-2.021 3.749,-2.982 6.535,-2.982c2.404,0 4.327,0.864 5.77,2.501c1.442,1.728 2.111,4.034 2.111,6.919l0,1.54l-14.897,0c0,2.787 0.676,4.996 2.021,6.438c1.247,1.54 3.17,2.208 5.574,2.208c1.149,0 2.208,-0.097 3.072,-0.285c0.864,-0.195 2.021,-0.481 3.366,-1.059l0,1.825c-1.15,0.481 -2.209,0.864 -3.17,1.059c-1.075,0.196 -2.171,0.293 -3.268,0.286Zm-0.579,-19.697c-2.02,0 -3.553,0.676 -4.807,1.923c-1.15,1.345 -1.923,3.17 -2.111,5.672l12.688,0c0,-2.404 -0.481,-4.229 -1.54,-5.574c-0.962,-1.352 -2.404,-2.021 -4.23,-2.021Zm17.879,-1.637c1.443,0 2.787,0.285 3.846,0.766c1.06,0.578 2.021,1.442 2.885,2.787l0.098,0c-0.098,-1.63 -0.098,-3.17 -0.098,-4.71l0,-7.392l1.825,0l0,29.5l-1.247,0l-0.48,-3.17c-1.54,2.306 -3.846,3.553 -6.731,3.553c-2.885,0 -4.996,-0.864 -6.536,-2.689c-1.54,-1.728 -2.208,-4.327 -2.208,-7.685c0,-3.554 0.766,-6.25 2.208,-8.166c1.443,-1.923 3.651,-2.794 6.438,-2.794Zm0,1.637c-2.208,0 -3.936,0.766 -5.093,2.404c-1.149,1.54 -1.728,3.846 -1.728,6.919c0,5.859 2.306,8.744 6.821,8.744c2.306,0 4.034,-0.676 5.093,-2.021c1.06,-1.345 1.631,-3.553 1.631,-6.731l0,-0.285c0,-3.17 -0.579,-5.477 -1.631,-6.821c-0.961,-1.54 -2.689,-2.209 -5.093,-2.209Zm28.539,-1.247l0,1.345l-4.23,0.285c1.15,1.443 1.728,2.983 1.728,4.613c0,2.02 -0.676,3.553 -2.021,4.807c-1.344,1.247 -3.072,1.826 -5.288,1.826c-0.962,0 -1.63,0 -1.923,-0.098c-0.766,0.383 -1.345,0.864 -1.728,1.345c-0.383,0.578 -0.578,1.059 -0.578,1.728c0,0.668 0.285,1.149 0.766,1.442c0.481,0.285 1.344,0.481 2.501,0.481l3.553,0c2.209,0 3.937,0.481 5.094,1.344c1.157,0.864 1.825,2.209 1.825,4.034c0,2.209 -0.864,3.847 -2.592,4.996c-1.727,1.149 -4.229,1.728 -7.497,1.728c-2.591,0 -4.612,-0.481 -6.054,-1.54c-1.443,-0.962 -2.111,-2.404 -2.111,-4.132c0,-1.442 0.481,-2.592 1.344,-3.553c0.864,-0.962 2.111,-1.54 3.554,-1.923c-0.579,-0.286 -1.15,-0.676 -1.443,-1.15c-0.375,-0.465 -0.578,-1.036 -0.578,-1.63c0,-1.344 0.864,-2.591 2.592,-3.651c-1.15,-0.48 -2.111,-1.247 -2.787,-2.306c-0.677,-1.059 -0.962,-2.306 -0.962,-3.651c0,-2.02 0.676,-3.748 1.923,-4.995c1.345,-1.247 3.073,-1.826 5.289,-1.826c1.344,0 2.403,0.098 3.17,0.384l6.438,0l0,0.097l0.015,0Zm-16.722,24.024c0,2.787 2.111,4.229 6.34,4.229c5.379,0 8.075,-1.728 8.075,-5.191c0,-1.247 -0.383,-2.111 -1.247,-2.689c-0.864,-0.579 -2.208,-0.864 -4.131,-0.864l-3.366,0c-3.748,0.09 -5.671,1.532 -5.671,4.515Zm1.637,-17.684c0,1.63 0.481,2.787 1.443,3.749c0.961,0.864 2.208,1.345 3.846,1.345c1.728,0 3.072,-0.481 3.936,-1.345c0.962,-0.864 1.345,-2.111 1.345,-3.749c0,-1.727 -0.481,-3.072 -1.442,-3.936c-0.962,-0.864 -2.209,-1.345 -3.937,-1.345c-1.63,0 -2.982,0.481 -3.846,1.443c-0.962,0.856 -1.345,2.201 -1.345,3.838Z" style="fill:#333745;fill-rule:nonzero;"/><path d="M123.221,34.472c-2.982,0 -5.288,-0.962 -7.016,-2.787c-1.63,-1.826 -2.502,-4.417 -2.502,-7.783c0,-3.267 0.767,-5.957 2.404,-7.88c1.63,-2.021 3.749,-2.982 6.536,-2.982c2.404,0 4.327,0.864 5.769,2.501c1.442,1.728 2.111,4.034 2.111,6.919l0,1.54l-14.799,0c0,2.787 0.676,4.996 2.021,6.438c1.247,1.54 3.17,2.208 5.574,2.208c1.149,0 2.208,-0.097 3.072,-0.285c0.864,-0.195 2.021,-0.481 3.366,-1.059l0,1.825c-1.15,0.481 -2.209,0.864 -3.171,1.059c-1.059,0.196 -2.118,0.286 -3.365,0.286Zm-0.481,-19.697c-2.02,0 -3.553,0.676 -4.807,1.923c-1.15,1.345 -1.924,3.17 -2.111,5.672l12.688,0c0,-2.404 -0.481,-4.229 -1.54,-5.574c-0.962,-1.352 -2.404,-2.021 -4.23,-2.021Zm18.45,-1.637c0.864,0 1.825,0.097 2.787,0.285l-0.383,1.825c-0.887,-0.195 -1.788,-0.293 -2.689,-0.285c-1.728,0 -3.171,0.766 -4.327,2.209c-1.15,1.539 -1.728,3.365 -1.728,5.671l0,11.246l-1.923,0l0,-20.561l1.63,0l0.195,3.749l0.098,0c0.864,-1.54 1.728,-2.592 2.689,-3.17c1.157,-0.676 2.306,-0.969 3.651,-0.969Zm-116.084,-7.588l-13.747,0l0,18.45l18.449,0l0,-13.649c0.008,-2.592 -2.11,-4.801 -4.702,-4.801Zm-17.969,0l-2.306,0c-2.592,0 -4.808,2.111 -4.808,4.808l0,2.306l7.114,0l0,-7.114Zm-7.114,11.434l7.114,0l0,7.114l-7.114,0l0,-7.114Zm22.679,18.449l2.306,0c2.592,0 4.808,-2.111 4.808,-4.807l0,-2.299l-7.114,0l0,7.106Zm-11.343,-7.106l7.114,0l0,7.114l-7.114,0l0,-7.114Zm-11.336,0l0,2.306c0,2.592 2.111,4.808 4.808,4.808l2.306,0l0,-7.114l-7.114,0Z" style="fill:#333745;fill-rule:nonzero;"/></g></svg>