<?xml version="1.0" encoding="UTF-8" standalone="no"?><!DOCTYPE svg PUBLIC "-//W3C//DTD SVG 1.1//EN" "http://www.w3.org/Graphics/SVG/1.1/DTD/svg11.dtd"><svg width="100%" height="100%" viewBox="0 0 144 48" version="1.1" xmlns="http://www.w3.org/2000/svg" xmlns:xlink="http://www.w3.org/1999/xlink" xml:space="preserve" xmlns:serif="http://www.serif.com/" style="fill-rule:evenodd;clip-rule:evenodd;stroke-linejoin:round;stroke-miterlimit:1.41421;"><rect id="Platine" x="0" y="0" width="144" height="48" style="fill:none;"/><g><g><g><path d="M74.581,43.846l2.224,0l2.056,-4.867l0.042,0l0.839,4.867l2.224,0l3.608,-7.301l-2.265,0l-2.014,4.574l-0.042,0l-0.714,-4.574l-2.475,0l-1.888,4.574l-0.042,0l-0.797,-4.574l-2.308,0l1.552,7.301Z" style="fill:#1ecae1;fill-rule:nonzero;"/><path d="M92.162,37.385c-0.252,-0.336 -0.588,-0.588 -0.965,-0.798c-0.42,-0.167 -0.881,-0.251 -1.385,-0.251c-0.545,0 -1.091,0.084 -1.636,0.251c-0.504,0.168 -1.007,0.42 -1.385,0.798c-0.42,0.335 -0.755,0.755 -1.049,1.216c-0.294,0.462 -0.461,1.007 -0.545,1.595c-0.084,0.587 -0.042,1.091 0.084,1.594c0.125,0.462 0.377,0.881 0.713,1.217c0.336,0.336 0.713,0.587 1.175,0.797c0.461,0.168 1.007,0.252 1.552,0.252c0.588,0 1.175,-0.126 1.762,-0.378c0.588,-0.251 1.091,-0.587 1.511,-1.091l-1.427,-1.174c-0.251,0.251 -0.503,0.461 -0.755,0.629c-0.294,0.168 -0.587,0.252 -0.965,0.252c-0.462,0 -0.797,-0.126 -1.049,-0.378c-0.252,-0.252 -0.42,-0.587 -0.461,-1.049l5.244,0l0.126,-0.713c0.084,-0.588 0.084,-1.091 -0.042,-1.595c-0.084,-0.419 -0.252,-0.839 -0.503,-1.174Zm-1.637,1.972l-2.979,0c0.042,-0.168 0.126,-0.336 0.21,-0.504c0.084,-0.168 0.21,-0.294 0.378,-0.419c0.168,-0.126 0.335,-0.21 0.545,-0.294c0.21,-0.084 0.42,-0.126 0.672,-0.126c0.419,0 0.713,0.126 0.965,0.42c0.209,0.209 0.293,0.545 0.209,0.923Z" style="fill:#1ecae1;fill-rule:nonzero;"/><path d="M101.644,38.643c-0.084,-0.461 -0.252,-0.881 -0.461,-1.216c-0.21,-0.336 -0.546,-0.63 -0.923,-0.84c-0.378,-0.209 -0.84,-0.335 -1.343,-0.335c-0.462,0 -0.923,0.084 -1.343,0.21c-0.419,0.125 -0.797,0.377 -1.091,0.755l-0.042,0l0.672,-4.783l-2.224,0l-1.552,11.202l2.055,0l0.126,-0.965l0.042,0c0.084,0.126 0.168,0.252 0.294,0.378c0.126,0.126 0.294,0.252 0.462,0.378c0.167,0.125 0.377,0.209 0.587,0.251c0.21,0.084 0.461,0.084 0.713,0.084c0.546,0 1.049,-0.084 1.511,-0.293c0.461,-0.168 0.881,-0.42 1.217,-0.756c0.335,-0.335 0.629,-0.713 0.881,-1.175c0.251,-0.461 0.377,-0.965 0.461,-1.51c0.042,-0.42 0.042,-0.923 -0.042,-1.385Zm-2.182,1.385c-0.084,0.545 -0.293,0.965 -0.671,1.301c-0.378,0.335 -0.839,0.503 -1.385,0.503c-0.545,0 -0.965,-0.168 -1.258,-0.503c-0.252,-0.336 -0.336,-0.798 -0.294,-1.301c0.084,-0.545 0.294,-0.965 0.671,-1.301c0.336,-0.335 0.798,-0.503 1.385,-0.503c0.545,0 0.965,0.168 1.259,0.503c0.293,0.336 0.377,0.756 0.293,1.301Z" style="fill:#1ecae1;fill-rule:nonzero;"/><path d="M46.763,41.916c-0.21,0.126 -0.419,0.168 -0.671,0.168c-0.588,0 -1.007,-0.168 -1.259,-0.504c-0.252,-0.335 -0.378,-0.797 -0.294,-1.342c0.084,-0.546 0.294,-1.007 0.672,-1.343c0.377,-0.336 0.839,-0.503 1.384,-0.503c0.252,0 0.42,0.042 0.63,0.167c0.167,0.126 0.335,0.252 0.419,0.42l1.72,-1.552c-0.293,-0.378 -0.671,-0.63 -1.132,-0.756c-0.462,-0.126 -0.881,-0.209 -1.343,-0.209c-0.545,0 -1.091,0.083 -1.636,0.251c-0.504,0.168 -1.007,0.42 -1.385,0.797c-0.42,0.336 -0.755,0.756 -1.049,1.217c-0.294,0.462 -0.462,1.007 -0.545,1.595c-0.084,0.587 -0.042,1.091 0.083,1.594c0.126,0.462 0.378,0.881 0.714,1.217c0.335,0.336 0.713,0.587 1.175,0.797c0.461,0.168 1.007,0.252 1.552,0.252c0.42,0 0.881,-0.084 1.385,-0.21c0.503,-0.126 0.965,-0.42 1.342,-0.755l-1.258,-1.553c-0.126,0 -0.294,0.126 -0.504,0.252Z" style="fill:#1ecae1;fill-rule:nonzero;"/><path d="M56.371,37.385c-0.335,-0.336 -0.713,-0.588 -1.174,-0.798c-0.462,-0.167 -1.007,-0.251 -1.553,-0.251c-0.545,0 -1.091,0.084 -1.636,0.251c-0.504,0.168 -1.007,0.42 -1.385,0.798c-0.419,0.335 -0.755,0.755 -1.049,1.216c-0.293,0.462 -0.461,1.007 -0.545,1.595c-0.084,0.587 -0.042,1.091 0.084,1.594c0.126,0.462 0.377,0.881 0.713,1.217c0.336,0.336 0.713,0.587 1.175,0.797c0.461,0.168 1.007,0.252 1.552,0.252c0.546,0 1.091,-0.084 1.637,-0.252c0.503,-0.168 1.007,-0.419 1.384,-0.797c0.42,-0.336 0.756,-0.755 1.049,-1.217c0.294,-0.461 0.462,-1.007 0.546,-1.594c0.084,-0.588 0.042,-1.091 -0.084,-1.595c-0.168,-0.503 -0.42,-0.881 -0.714,-1.216Zm-1.468,2.769c-0.084,0.545 -0.294,1.007 -0.671,1.343c-0.378,0.335 -0.84,0.503 -1.427,0.503c-0.587,0 -1.007,-0.168 -1.259,-0.503c-0.251,-0.336 -0.377,-0.798 -0.293,-1.343c0.084,-0.546 0.293,-1.007 0.671,-1.343c0.378,-0.335 0.839,-0.503 1.385,-0.503c0.545,0 1.007,0.168 1.258,0.503c0.294,0.378 0.42,0.797 0.336,1.343Z" style="fill:#1ecae1;fill-rule:nonzero;"/><path d="M58.008,43.846l2.266,0l1.594,-11.412l-2.266,0l-1.594,11.412Z" style="fill:#1ecae1;fill-rule:nonzero;"/><path d="M61.91,43.846l2.266,0l1.007,-7.343l-2.224,0l-1.049,7.343Z" style="fill:#1ecae1;fill-rule:nonzero;"/><path d="M65.686,34.196c0.042,-0.378 -0.042,-0.672 -0.252,-0.923c-0.209,-0.252 -0.503,-0.378 -0.881,-0.378c-0.168,0 -0.377,0.042 -0.545,0.126c-0.168,0.084 -0.336,0.168 -0.462,0.294c-0.126,0.126 -0.251,0.251 -0.335,0.419c-0.084,0.168 -0.168,0.336 -0.168,0.504c0,0.168 0,0.335 0.042,0.503c0.042,0.168 0.126,0.294 0.21,0.42c0.083,0.126 0.209,0.21 0.377,0.294c0.168,0.083 0.336,0.125 0.504,0.125c0.168,0 0.335,-0.042 0.545,-0.125c0.168,-0.084 0.336,-0.168 0.462,-0.294c0.126,-0.126 0.251,-0.252 0.335,-0.42c0.084,-0.21 0.168,-0.377 0.168,-0.545Z" style="fill:#1ecae1;fill-rule:nonzero;"/><path d="M71.183,39.818c-0.252,-0.168 -0.546,-0.294 -0.881,-0.335c-0.336,-0.084 -0.63,-0.126 -0.882,-0.21c-0.251,-0.084 -0.503,-0.126 -0.671,-0.21c-0.168,-0.084 -0.252,-0.21 -0.21,-0.42c0.042,-0.209 0.126,-0.377 0.336,-0.461c0.21,-0.084 0.378,-0.126 0.587,-0.126c0.546,0 0.965,0.21 1.217,0.629l1.553,-1.384c-0.294,-0.378 -0.672,-0.63 -1.133,-0.756c-0.462,-0.125 -0.965,-0.209 -1.427,-0.209c-0.377,0 -0.755,0.042 -1.133,0.126c-0.377,0.083 -0.713,0.251 -1.049,0.461c-0.335,0.21 -0.587,0.462 -0.797,0.755c-0.21,0.294 -0.377,0.672 -0.419,1.133c-0.084,0.462 -0.042,0.839 0.125,1.091c0.168,0.294 0.378,0.504 0.63,0.629c0.252,0.168 0.545,0.252 0.881,0.336c0.336,0.084 0.629,0.126 0.881,0.21c0.294,0.084 0.504,0.126 0.671,0.252c0.168,0.084 0.252,0.251 0.21,0.419c-0.042,0.21 -0.168,0.336 -0.377,0.42c-0.21,0.084 -0.462,0.126 -0.714,0.126c-0.335,0 -0.629,-0.084 -0.881,-0.21c-0.252,-0.126 -0.461,-0.336 -0.629,-0.587l-1.595,1.51c0.294,0.378 0.714,0.629 1.217,0.755c0.504,0.126 1.007,0.21 1.511,0.21c0.377,0 0.797,-0.042 1.216,-0.126c0.42,-0.084 0.798,-0.21 1.133,-0.377c0.336,-0.168 0.63,-0.42 0.881,-0.756c0.252,-0.293 0.42,-0.713 0.462,-1.175c0.042,-0.461 0,-0.839 -0.126,-1.09c-0.126,-0.252 -0.336,-0.462 -0.587,-0.63Z" style="fill:#1ecae1;fill-rule:nonzero;"/></g><g><path d="M85.071,7.133c-1.846,-3.273 -4.825,-5.623 -8.434,-6.63c-1.217,-0.335 -2.517,-0.503 -3.776,-0.503c-2.979,0 -5.958,1.007 -8.392,2.811c-2.475,1.846 -4.237,4.448 -5.077,7.427c-0.167,0.671 -0.335,1.342 -0.419,2.014l2.391,-1.217c0,-0.084 0.042,-0.126 0.042,-0.21c0.714,-2.559 2.224,-4.741 4.322,-6.335c2.056,-1.553 4.574,-2.392 7.133,-2.392c1.091,0 2.14,0.168 3.189,0.419c3.063,0.84 5.622,2.854 7.175,5.623c1.552,2.769 1.93,5.958 1.091,9.021c-0.714,2.559 -2.224,4.741 -4.322,6.336c-2.056,1.552 -4.574,2.391 -7.133,2.391c-1.091,0 -2.14,-0.168 -3.189,-0.419c-1.259,-0.336 -2.391,-0.882 -3.44,-1.595l-2.979,0.336c1.636,1.552 3.608,2.685 5.832,3.273c1.217,0.335 2.517,0.503 3.776,0.503c2.979,0 5.958,-1.007 8.392,-2.811c2.475,-1.846 4.237,-4.448 5.077,-7.427c1.048,-3.566 0.587,-7.342 -1.259,-10.615Z" style="fill:#1ecae1;fill-rule:nonzero;"/><path d="M62.791,20.266l-2.14,0.503c0,0.042 0.042,0.084 0.042,0.126c0.21,0.378 0.42,0.713 0.671,1.049l2.056,-0.755c-0.251,-0.294 -0.461,-0.588 -0.629,-0.923Z" style="fill:#1ecae1;fill-rule:nonzero;"/><path d="M61.113,15.692l-2.056,0.588c0.126,0.671 0.252,1.342 0.461,1.972l1.888,-1.007c-0.125,-0.504 -0.209,-1.049 -0.293,-1.553Z" style="fill:#1ecae1;fill-rule:nonzero;"/><path d="M75.043,17.622c-0.378,0.252 -0.839,0.378 -1.343,0.42c-1.175,0.084 -2.014,-0.21 -2.601,-0.881c-0.588,-0.671 -0.839,-1.553 -0.714,-2.685c0.084,-1.133 0.504,-2.056 1.175,-2.812c0.714,-0.713 1.637,-1.133 2.77,-1.216c0.461,-0.042 0.881,0.042 1.3,0.251c0.378,0.21 0.672,0.462 0.881,0.756l3.273,-3.357c-0.671,-0.713 -1.468,-1.175 -2.392,-1.427c-0.923,-0.251 -1.846,-0.335 -2.727,-0.293c-1.133,0.084 -2.224,0.293 -3.273,0.755c-0.461,0.21 -0.923,0.419 -1.342,0.713l-18.797,9.567l14.769,-4.238c-0.126,0.503 -0.21,1.007 -0.252,1.552c-0.042,0.504 -0.042,0.965 0,1.427l-8.14,4.28l8.686,-2.098c0.335,0.755 0.797,1.426 1.384,1.972c0.126,0.126 0.252,0.251 0.42,0.335l-7.846,2.854l12.629,-1.385c0.168,0 0.294,0 0.461,0c0.42,-0.042 0.84,-0.084 1.301,-0.168l0.042,0c0.462,-0.084 0.965,-0.252 1.427,-0.42c0.965,-0.335 1.846,-0.923 2.643,-1.678l-2.727,-3.021c-0.294,0.252 -0.63,0.546 -1.007,0.797Z" style="fill:#1ecae1;fill-rule:nonzero;"/></g></g><path d="M42.441,47.916l0.504,-2.392l0.294,0l-0.462,2.14l0.923,0l-0.042,0.252l-1.217,0Z" style="fill:#1ecae1;fill-rule:nonzero;"/><path d="M44.288,47.916l-0.294,0l0.377,-1.804l0.294,0l-0.377,1.804Zm0.167,-2.266c0,-0.042 0,-0.126 0.042,-0.167c0.042,-0.042 0.084,-0.042 0.126,-0.042c0.084,0 0.126,0.042 0.126,0.167c0,0.042 0,0.126 -0.042,0.168c-0.042,0.042 -0.084,0.042 -0.126,0.042c-0.042,0 -0.084,0 -0.126,-0.042c0.042,-0.042 0,-0.084 0,-0.126Z" style="fill:#1ecae1;fill-rule:nonzero;"/><path d="M45.127,47.916l-0.21,-1.804l0.294,0l0.126,1.007c0.041,0.294 0.041,0.461 0.041,0.587c0.126,-0.293 0.252,-0.503 0.294,-0.629l0.546,-1.007l0.293,0l-0.965,1.804l-0.419,0l0,0.042Z" style="fill:#1ecae1;fill-rule:nonzero;"/><path d="M47.56,46.07c0.084,0 0.126,0 0.21,0.042l-0.042,0.252c-0.042,0 -0.126,-0.042 -0.168,-0.042c-0.084,0 -0.209,0.042 -0.293,0.084c-0.084,0.084 -0.168,0.167 -0.21,0.293c-0.084,0.126 -0.126,0.252 -0.126,0.378l-0.168,0.839l-0.294,0l0.378,-1.804l0.21,0l-0.042,0.336c0.084,-0.084 0.126,-0.168 0.21,-0.21c0.042,-0.042 0.126,-0.084 0.167,-0.126c0.042,0 0.126,-0.042 0.168,-0.042Z" style="fill:#1ecae1;fill-rule:nonzero;"/><path d="M48.735,46.07c0.084,0 0.21,0.042 0.252,0.084c0.084,0.042 0.126,0.126 0.168,0.252l0.126,-0.294l0.209,0l-0.377,1.804l-0.21,0l0.042,-0.336c-0.21,0.252 -0.42,0.378 -0.629,0.378c-0.168,0 -0.294,-0.042 -0.378,-0.168c-0.084,-0.126 -0.126,-0.252 -0.126,-0.461c0,-0.21 0.042,-0.42 0.126,-0.63c0.084,-0.209 0.168,-0.335 0.336,-0.461c0.125,-0.084 0.293,-0.168 0.461,-0.168Zm-0.294,1.636c0.126,0 0.21,-0.042 0.336,-0.168c0.126,-0.083 0.21,-0.251 0.252,-0.377c0.084,-0.168 0.084,-0.336 0.084,-0.504c0,-0.126 -0.042,-0.209 -0.084,-0.251c-0.042,-0.084 -0.126,-0.084 -0.252,-0.084c-0.126,0 -0.21,0.042 -0.336,0.126c-0.084,0.083 -0.167,0.209 -0.251,0.377c-0.042,0.168 -0.084,0.336 -0.084,0.504c0,0.126 0.042,0.209 0.084,0.293c0.084,0.084 0.126,0.084 0.251,0.084Z" style="fill:#1ecae1;fill-rule:nonzero;"/><path d="M49.952,47.916l-0.294,0l0.378,-1.804l0.294,0l-0.378,1.804Zm0.21,-2.266c0,-0.042 0,-0.126 0.042,-0.167c0.042,-0.042 0.084,-0.042 0.126,-0.042c0.083,0 0.125,0.042 0.125,0.167c0,0.042 0,0.126 -0.042,0.168c-0.042,0.042 -0.083,0.042 -0.125,0.042c-0.042,0 -0.084,0 -0.126,-0.042c0,-0.042 0,-0.084 0,-0.126Z" style="fill:#1ecae1;fill-rule:nonzero;"/><path d="M51.672,47.413c0,0.167 -0.042,0.293 -0.168,0.419c-0.126,0.084 -0.293,0.126 -0.503,0.126c-0.168,0 -0.336,-0.042 -0.504,-0.126l0,-0.252c0.084,0.042 0.168,0.084 0.252,0.126c0.084,0.042 0.168,0.042 0.252,0.042c0.126,0 0.252,-0.042 0.294,-0.084c0.083,-0.042 0.125,-0.126 0.125,-0.209c0,-0.042 0,-0.126 -0.042,-0.168c-0.041,-0.042 -0.125,-0.084 -0.251,-0.168c-0.126,-0.084 -0.252,-0.168 -0.294,-0.252c-0.042,-0.084 -0.084,-0.168 -0.084,-0.294c0,-0.167 0.042,-0.293 0.168,-0.377c0.126,-0.084 0.252,-0.126 0.42,-0.126c0.167,0 0.377,0.042 0.545,0.126l-0.084,0.21l-0.084,-0.042c-0.126,-0.042 -0.252,-0.084 -0.377,-0.084c-0.084,0 -0.168,0.042 -0.252,0.084c-0.042,0.042 -0.084,0.126 -0.084,0.167c0,0.042 0,0.126 0.042,0.168c0.042,0.042 0.126,0.084 0.252,0.168c0.125,0.084 0.209,0.126 0.251,0.168c0.042,0.042 0.084,0.084 0.126,0.168c0,0.084 0,0.126 0,0.21Z" style="fill:#1ecae1;fill-rule:nonzero;"/><path d="M52.973,46.112c0.21,0 0.378,0.042 0.503,0.168c0.126,0.126 0.168,0.293 0.168,0.503c0,0.21 -0.042,0.42 -0.126,0.588c-0.084,0.167 -0.167,0.335 -0.335,0.419c-0.168,0.084 -0.294,0.168 -0.462,0.168c-0.21,0 -0.377,-0.042 -0.503,-0.168c-0.126,-0.126 -0.168,-0.293 -0.168,-0.503c0,-0.21 0.042,-0.42 0.126,-0.588c0.084,-0.168 0.209,-0.335 0.335,-0.419c0.126,-0.126 0.294,-0.168 0.462,-0.168Zm0.378,0.629c0,-0.126 -0.042,-0.21 -0.084,-0.293c-0.084,-0.084 -0.168,-0.126 -0.294,-0.126c-0.126,0 -0.21,0.042 -0.336,0.126c-0.084,0.083 -0.168,0.209 -0.21,0.335c-0.042,0.126 -0.083,0.294 -0.083,0.462c0,0.126 0.041,0.252 0.125,0.335c0.084,0.084 0.168,0.126 0.294,0.126c0.126,0 0.21,-0.042 0.294,-0.126c0.084,-0.083 0.168,-0.209 0.21,-0.335c0.084,-0.126 0.084,-0.294 0.084,-0.504Z" style="fill:#1ecae1;fill-rule:nonzero;"/><path d="M55.029,47.916l0.252,-1.133c0.042,-0.126 0.042,-0.21 0.042,-0.252c0,-0.083 0,-0.125 -0.042,-0.167c-0.042,-0.042 -0.084,-0.042 -0.168,-0.042c-0.084,0 -0.21,0.042 -0.294,0.084c-0.084,0.084 -0.168,0.167 -0.252,0.293c-0.084,0.126 -0.126,0.252 -0.168,0.462l-0.167,0.797l-0.294,0l0.378,-1.804l0.209,0l-0.042,0.336c0.126,-0.126 0.21,-0.21 0.294,-0.294c0.084,-0.042 0.21,-0.084 0.294,-0.084c0.126,0 0.252,0.042 0.335,0.126c0.084,0.084 0.126,0.168 0.126,0.335c0,0.084 0,0.168 -0.042,0.294l-0.251,1.091l-0.21,0l0,-0.042Z" style="fill:#1ecae1;fill-rule:nonzero;"/><path d="M57.001,47.916l-0.294,0l0.378,-1.804l0.293,0l-0.377,1.804Zm0.21,-2.266c0,-0.042 0,-0.126 0.042,-0.167c0.042,-0.042 0.084,-0.042 0.125,-0.042c0.084,0 0.126,0.042 0.126,0.167c0,0.042 0,0.126 -0.042,0.168c-0.042,0.042 -0.084,0.042 -0.125,0.042c-0.042,0 -0.084,0 -0.126,-0.042c0,-0.042 0,-0.084 0,-0.126Z" style="fill:#1ecae1;fill-rule:nonzero;"/><path d="M58.637,47.916l0.252,-1.133c0,-0.084 0.042,-0.168 0.042,-0.21c0,-0.083 0,-0.125 -0.042,-0.167c-0.042,-0.042 -0.084,-0.084 -0.168,-0.084c-0.084,0 -0.168,0.042 -0.252,0.084c-0.084,0.084 -0.167,0.167 -0.251,0.293c-0.084,0.126 -0.126,0.252 -0.168,0.462l-0.168,0.797l-0.294,0l0.378,-1.804l0.21,0l-0.042,0.336c0.084,-0.126 0.21,-0.21 0.293,-0.294c0.084,-0.042 0.21,-0.084 0.294,-0.084c0.126,0 0.21,0.042 0.294,0.126c0.084,0.084 0.126,0.168 0.126,0.293c0.084,-0.125 0.21,-0.251 0.293,-0.293c0.126,-0.084 0.21,-0.084 0.336,-0.084c0.126,0 0.252,0.042 0.336,0.126c0.084,0.084 0.126,0.168 0.126,0.335c0,0.084 0,0.168 -0.042,0.294l-0.252,1.091l-0.294,0l0.252,-1.133c0.042,-0.126 0.042,-0.21 0.042,-0.252c0,-0.084 0,-0.125 -0.042,-0.167c-0.042,-0.042 -0.084,-0.042 -0.168,-0.042c-0.084,0 -0.168,0.042 -0.252,0.084c-0.084,0.083 -0.167,0.167 -0.209,0.251c-0.084,0.126 -0.126,0.252 -0.168,0.42l-0.168,0.839l-0.294,0l0,-0.084Z" style="fill:#1ecae1;fill-rule:nonzero;"/><path d="M61.616,47.916l0.252,-1.133c0,-0.084 0.042,-0.168 0.042,-0.21c0,-0.083 0,-0.125 -0.042,-0.167c-0.042,-0.042 -0.084,-0.084 -0.168,-0.084c-0.084,0 -0.168,0.042 -0.252,0.084c-0.084,0.084 -0.167,0.167 -0.251,0.293c-0.084,0.126 -0.126,0.252 -0.168,0.462l-0.168,0.797l-0.294,0l0.378,-1.804l0.21,0l-0.042,0.336c0.084,-0.126 0.21,-0.21 0.293,-0.294c0.084,-0.042 0.21,-0.084 0.294,-0.084c0.126,0 0.21,0.042 0.294,0.126c0.084,0.084 0.126,0.168 0.126,0.293c0.084,-0.125 0.21,-0.251 0.293,-0.293c0.126,-0.084 0.21,-0.084 0.336,-0.084c0.126,0 0.252,0.042 0.336,0.126c0.084,0.084 0.126,0.168 0.126,0.335c0,0.084 0,0.168 -0.042,0.294l-0.252,1.091l-0.252,0l0.252,-1.133c0.042,-0.126 0.042,-0.21 0.042,-0.252c0,-0.084 0,-0.125 -0.042,-0.167c-0.042,-0.042 -0.084,-0.042 -0.168,-0.042c-0.084,0 -0.168,0.042 -0.252,0.084c-0.084,0.041 -0.167,0.167 -0.209,0.251c-0.084,0.126 -0.126,0.252 -0.168,0.42l-0.168,0.839l-0.336,0l0,-0.084Z" style="fill:#1ecae1;fill-rule:nonzero;"/><path d="M64.218,47.958c-0.21,0 -0.378,-0.042 -0.462,-0.168c-0.126,-0.126 -0.168,-0.293 -0.168,-0.503c0,-0.21 0.042,-0.42 0.126,-0.588c0.084,-0.209 0.21,-0.335 0.336,-0.461c0.126,-0.126 0.294,-0.168 0.461,-0.168c0.168,0 0.294,0.042 0.378,0.126c0.084,0.084 0.126,0.168 0.126,0.294c0,0.209 -0.084,0.335 -0.294,0.461c-0.168,0.126 -0.461,0.168 -0.797,0.168l-0.042,0l0,0.126c0,0.126 0.042,0.252 0.084,0.335c0.084,0.084 0.168,0.126 0.336,0.126c0.083,0 0.125,0 0.209,-0.042c0.084,0 0.168,-0.042 0.294,-0.126l0,0.252c-0.084,0.042 -0.21,0.084 -0.294,0.084c-0.084,0 -0.209,0.084 -0.293,0.084Zm0.209,-1.636c-0.125,0 -0.209,0.042 -0.335,0.168c-0.084,0.083 -0.168,0.251 -0.21,0.419c0.252,0 0.462,-0.042 0.587,-0.084c0.126,-0.084 0.21,-0.168 0.21,-0.294c0,-0.041 0,-0.125 -0.042,-0.125c-0.042,-0.084 -0.084,-0.084 -0.21,-0.084Zm-0.042,-0.504c0.042,-0.084 0.126,-0.168 0.21,-0.252c0.084,-0.083 0.126,-0.167 0.168,-0.251l0.294,0l0,0.042c-0.042,0.042 -0.126,0.126 -0.252,0.251c-0.126,0.126 -0.21,0.21 -0.294,0.252l-0.167,0l0,-0.042l0.041,0Z" style="fill:#1ecae1;fill-rule:nonzero;"/><path d="M66.148,46.07c0.209,0 0.377,0.084 0.461,0.294c0,-0.168 0.042,-0.336 0.084,-0.462l0.126,-0.587l0.294,0l-0.546,2.559l-0.21,0l0.042,-0.336c-0.125,0.126 -0.209,0.252 -0.293,0.294c-0.084,0.042 -0.21,0.084 -0.294,0.084c-0.168,0 -0.294,-0.042 -0.378,-0.168c-0.083,-0.126 -0.125,-0.251 -0.125,-0.461c0,-0.252 0.042,-0.462 0.125,-0.63c0.084,-0.167 0.168,-0.335 0.336,-0.461c0.042,-0.042 0.21,-0.126 0.378,-0.126Zm-0.336,1.636c0.084,0 0.21,-0.042 0.336,-0.168c0.126,-0.083 0.209,-0.251 0.251,-0.377c0.084,-0.168 0.084,-0.336 0.084,-0.504c0,-0.126 -0.042,-0.209 -0.084,-0.293c-0.042,-0.084 -0.125,-0.084 -0.251,-0.084c-0.126,0 -0.21,0.042 -0.294,0.126c-0.084,0.084 -0.168,0.209 -0.21,0.377c-0.042,0.168 -0.084,0.336 -0.084,0.504c-0.042,0.293 0.042,0.419 0.252,0.419Z" style="fill:#1ecae1;fill-rule:nonzero;"/><path d="M67.406,47.916l-0.293,0l0.377,-1.804l0.294,0l-0.378,1.804Zm0.168,-2.266c0,-0.042 0,-0.126 0.042,-0.167c0.042,-0.042 0.084,-0.042 0.126,-0.042c0.084,0 0.126,0.042 0.126,0.167c0,0.042 0,0.126 -0.042,0.168c-0.042,0.042 -0.084,0.042 -0.126,0.042c-0.042,0 -0.084,0 -0.126,-0.042c0.042,-0.042 0,-0.084 0,-0.126Z" style="fill:#1ecae1;fill-rule:nonzero;"/><path d="M68.959,46.07c0.084,0 0.21,0.042 0.252,0.084c0.084,0.042 0.126,0.126 0.167,0.252l0.126,-0.294l0.21,0l-0.377,1.804l-0.21,0l0.042,-0.336c-0.21,0.252 -0.42,0.378 -0.63,0.378c-0.168,0 -0.293,-0.042 -0.377,-0.168c-0.084,-0.126 -0.126,-0.252 -0.126,-0.461c0,-0.21 0.042,-0.42 0.126,-0.63c0.084,-0.209 0.168,-0.335 0.335,-0.461c0.126,-0.084 0.294,-0.168 0.462,-0.168Zm-0.336,1.636c0.126,0 0.21,-0.042 0.336,-0.168c0.126,-0.083 0.21,-0.251 0.252,-0.377c0.084,-0.168 0.084,-0.336 0.084,-0.504c0,-0.126 -0.042,-0.209 -0.084,-0.251c-0.042,-0.084 -0.126,-0.084 -0.252,-0.084c-0.126,0 -0.21,0.042 -0.336,0.126c-0.084,0.083 -0.168,0.209 -0.252,0.377c-0.041,0.168 -0.083,0.336 -0.083,0.504c0,0.126 0.042,0.209 0.083,0.293c0.084,0.084 0.168,0.084 0.252,0.084Z" style="fill:#1ecae1;fill-rule:nonzero;"/><path d="M70.469,47.706c0.042,0 0.126,0 0.252,-0.042l0,0.21c-0.042,0 -0.084,0.042 -0.126,0.042c-0.042,0 -0.084,0 -0.126,0c-0.125,0 -0.251,-0.042 -0.335,-0.084c-0.084,-0.084 -0.126,-0.168 -0.126,-0.294c0,-0.083 0,-0.167 0.042,-0.251l0.21,-1.007l-0.294,0l0.042,-0.126l0.294,-0.126l0.209,-0.378l0.126,0l-0.084,0.42l0.462,0l-0.042,0.21l-0.462,0l-0.209,1.007c0,0.084 -0.042,0.168 -0.042,0.21c0,0.041 0,0.125 0.042,0.125c0.042,0.084 0.083,0.084 0.167,0.084Z" style="fill:#1ecae1;fill-rule:nonzero;"/><path d="M71.728,47.958c-0.21,0 -0.377,-0.042 -0.461,-0.168c-0.126,-0.126 -0.168,-0.293 -0.168,-0.503c0,-0.21 0.042,-0.42 0.126,-0.588c0.084,-0.209 0.209,-0.335 0.335,-0.461c0.126,-0.126 0.294,-0.168 0.462,-0.168c0.168,0 0.294,0.042 0.377,0.126c0.084,0.084 0.126,0.168 0.126,0.294c0,0.209 -0.084,0.335 -0.293,0.461c-0.168,0.126 -0.462,0.168 -0.798,0.168l-0.042,0l0,0.126c0,0.126 0.042,0.252 0.084,0.335c0.084,0.084 0.168,0.126 0.336,0.126c0.084,0 0.126,0 0.21,-0.042c0.084,0 0.168,-0.042 0.294,-0.126l0,0.252c-0.084,0.042 -0.21,0.084 -0.294,0.084c-0.084,0 -0.21,0.084 -0.294,0.084Zm0.21,-1.636c-0.126,0 -0.21,0.042 -0.336,0.168c-0.084,0.083 -0.168,0.251 -0.21,0.419c0.252,0 0.462,-0.042 0.588,-0.084c0.126,-0.084 0.21,-0.168 0.21,-0.294c0,-0.041 0,-0.125 -0.042,-0.125c-0.042,-0.084 -0.126,-0.084 -0.21,-0.084Z" style="fill:#1ecae1;fill-rule:nonzero;"/><path d="M74.497,46.112c0.21,0 0.378,0.042 0.504,0.168c0.126,0.126 0.168,0.293 0.168,0.503c0,0.21 -0.042,0.42 -0.126,0.588c-0.084,0.167 -0.168,0.335 -0.336,0.419c-0.126,0.084 -0.294,0.168 -0.461,0.168c-0.21,0 -0.378,-0.042 -0.504,-0.168c-0.126,-0.126 -0.168,-0.293 -0.168,-0.503c0,-0.21 0.042,-0.42 0.126,-0.588c0.084,-0.168 0.21,-0.335 0.336,-0.419c0.126,-0.126 0.294,-0.168 0.461,-0.168Zm0.378,0.629c0,-0.126 -0.042,-0.21 -0.084,-0.293c-0.084,-0.084 -0.168,-0.126 -0.294,-0.126c-0.126,0 -0.209,0.042 -0.335,0.126c-0.084,0.083 -0.168,0.209 -0.21,0.335c-0.042,0.126 -0.084,0.294 -0.084,0.462c0,0.126 0.042,0.252 0.126,0.335c0.084,0.084 0.168,0.126 0.294,0.126c0.125,0 0.209,-0.042 0.293,-0.126c0.084,-0.083 0.168,-0.209 0.21,-0.335c0.084,-0.126 0.084,-0.294 0.084,-0.504Z" style="fill:#1ecae1;fill-rule:nonzero;"/><path d="M76.092,46.112l-0.252,1.133c0,0.084 -0.042,0.168 -0.042,0.21c0,0.167 0.084,0.251 0.252,0.251c0.084,0 0.21,-0.042 0.294,-0.084c0.083,-0.084 0.167,-0.167 0.251,-0.293c0.084,-0.126 0.126,-0.252 0.168,-0.462l0.168,-0.797l0.294,0l-0.378,1.804l-0.21,0l0.042,-0.336c-0.126,0.126 -0.21,0.252 -0.294,0.294c-0.083,0.042 -0.209,0.084 -0.293,0.084c-0.126,0 -0.252,-0.042 -0.336,-0.126c-0.084,-0.084 -0.126,-0.168 -0.126,-0.335c0,-0.084 0,-0.168 0.042,-0.294l0.252,-1.091l0.168,0l0,0.042Z" style="fill:#1ecae1;fill-rule:nonzero;"/><path d="M79.364,47.413c0,0.167 -0.041,0.293 -0.167,0.419c-0.126,0.084 -0.294,0.126 -0.504,0.126c-0.168,0 -0.336,-0.042 -0.503,-0.126l0,-0.252c0.084,0.042 0.167,0.084 0.251,0.126c0.084,0.042 0.168,0.042 0.252,0.042c0.126,0 0.252,-0.042 0.294,-0.084c0.084,-0.042 0.126,-0.126 0.126,-0.209c0,-0.042 0,-0.126 -0.042,-0.168c-0.042,-0.042 -0.126,-0.084 -0.252,-0.168c-0.126,-0.084 -0.252,-0.168 -0.294,-0.252c-0.042,-0.084 -0.084,-0.168 -0.084,-0.294c0,-0.167 0.042,-0.293 0.168,-0.377c0.126,-0.084 0.252,-0.126 0.42,-0.126c0.168,0 0.377,0.042 0.545,0.126l-0.084,0.21l-0.084,-0.042c-0.125,-0.042 -0.251,-0.084 -0.377,-0.084c-0.084,0 -0.168,0.042 -0.252,0.084c-0.042,0.042 -0.084,0.126 -0.084,0.167c0,0.042 0,0.126 0.042,0.168c0.042,0.042 0.126,0.084 0.252,0.168c0.126,0.084 0.21,0.126 0.252,0.168c0.042,0.042 0.084,0.084 0.125,0.168c0,0.084 0,0.126 0,0.21Z" style="fill:#1ecae1;fill-rule:nonzero;"/><path d="M80.371,46.112l-0.251,1.133c0,0.084 -0.042,0.168 -0.042,0.21c0,0.167 0.084,0.251 0.252,0.251c0.083,0 0.209,-0.042 0.293,-0.084c0.084,-0.084 0.168,-0.167 0.252,-0.293c0.084,-0.126 0.126,-0.252 0.168,-0.462l0.168,-0.797l0.293,0l-0.377,1.804l-0.21,0l0.042,-0.336c-0.126,0.126 -0.21,0.252 -0.294,0.294c-0.084,0.042 -0.21,0.084 -0.294,0.084c-0.125,0 -0.251,-0.042 -0.335,-0.126c-0.084,-0.084 -0.126,-0.168 -0.126,-0.335c0,-0.084 0,-0.168 0.042,-0.294l0.252,-1.091l0.167,0l0,0.042Z" style="fill:#1ecae1;fill-rule:nonzero;"/><path d="M82.805,46.07c0.084,0 0.126,0 0.21,0.042l-0.042,0.252c-0.042,0 -0.126,-0.042 -0.168,-0.042c-0.084,0 -0.21,0.042 -0.294,0.084c-0.084,0.084 -0.167,0.167 -0.209,0.293c-0.084,0.126 -0.126,0.252 -0.126,0.378l-0.168,0.839l-0.294,0l0.378,-1.804l0.21,0l-0.042,0.336c0.084,-0.084 0.125,-0.168 0.209,-0.21c0.042,-0.042 0.126,-0.084 0.168,-0.126c0.042,0 0.126,-0.042 0.168,-0.042Z" style="fill:#1ecae1;fill-rule:nonzero;"/><path d="M85.029,46.07c0.084,0 0.126,0 0.21,0.042l-0.042,0.252c-0.042,0 -0.126,-0.042 -0.168,-0.042c-0.084,0 -0.21,0.042 -0.294,0.084c-0.084,0.084 -0.168,0.167 -0.21,0.293c-0.042,0.126 -0.126,0.252 -0.126,0.378l-0.167,0.839l-0.294,0l0.378,-1.804l0.209,0l-0.042,0.336c0.084,-0.084 0.126,-0.168 0.21,-0.21c0.042,-0.042 0.126,-0.084 0.168,-0.126c0.042,0 0.126,-0.042 0.168,-0.042Z" style="fill:#1ecae1;fill-rule:nonzero;"/><path d="M85.952,47.958c-0.21,0 -0.378,-0.042 -0.462,-0.168c-0.126,-0.126 -0.167,-0.293 -0.167,-0.503c0,-0.21 0.041,-0.42 0.125,-0.588c0.084,-0.209 0.21,-0.335 0.336,-0.461c0.126,-0.126 0.294,-0.168 0.462,-0.168c0.167,0 0.293,0.042 0.377,0.126c0.084,0.084 0.126,0.168 0.126,0.294c0,0.209 -0.084,0.335 -0.294,0.461c-0.167,0.126 -0.461,0.168 -0.797,0.168l-0.042,0l0,0.126c0,0.126 0.042,0.252 0.084,0.335c0.084,0.084 0.168,0.126 0.336,0.126c0.084,0 0.126,0 0.21,-0.042c0.084,0 0.167,-0.042 0.293,-0.126l0,0.252c-0.084,0.042 -0.209,0.084 -0.293,0.084c-0.084,0 -0.21,0.084 -0.294,0.084Zm0.21,-1.636c-0.126,0 -0.21,0.042 -0.336,0.168c-0.084,0.083 -0.168,0.251 -0.21,0.419c0.252,0 0.462,-0.042 0.588,-0.084c0.126,-0.084 0.209,-0.168 0.209,-0.294c0,-0.041 0,-0.125 -0.042,-0.125c-0.041,-0.084 -0.125,-0.084 -0.209,-0.084Z" style="fill:#1ecae1;fill-rule:nonzero;"/><path d="M88.008,47.916l0.252,-1.133c0.042,-0.126 0.042,-0.21 0.042,-0.252c0,-0.083 0,-0.125 -0.042,-0.167c-0.042,-0.042 -0.084,-0.042 -0.168,-0.042c-0.084,0 -0.21,0.042 -0.294,0.084c-0.084,0.084 -0.168,0.167 -0.252,0.293c-0.084,0.126 -0.126,0.252 -0.168,0.462l-0.167,0.797l-0.294,0l0.378,-1.804l0.209,0l-0.042,0.336c0.126,-0.126 0.21,-0.21 0.294,-0.294c0.084,-0.042 0.21,-0.084 0.294,-0.084c0.126,0 0.252,0.042 0.335,0.126c0.084,0.084 0.126,0.168 0.126,0.335c0,0.084 0,0.168 -0.042,0.294l-0.251,1.091l-0.21,0l0,-0.042Z" style="fill:#1ecae1;fill-rule:nonzero;"/><path d="M89.812,46.07c0.21,0 0.378,0.084 0.462,0.294c0,-0.168 0.042,-0.336 0.083,-0.462l0.126,-0.587l0.294,0l-0.545,2.559l-0.21,0l0.042,-0.336c-0.126,0.126 -0.21,0.252 -0.294,0.294c-0.084,0.042 -0.21,0.084 -0.294,0.084c-0.167,0 -0.293,-0.042 -0.377,-0.168c-0.084,-0.126 -0.126,-0.251 -0.126,-0.461c0,-0.252 0.042,-0.462 0.126,-0.63c0.084,-0.167 0.168,-0.335 0.335,-0.461c0.084,-0.042 0.21,-0.126 0.378,-0.126Zm-0.294,1.636c0.084,0 0.21,-0.042 0.336,-0.168c0.126,-0.083 0.21,-0.251 0.252,-0.377c0.084,-0.168 0.084,-0.336 0.084,-0.504c0,-0.126 -0.042,-0.209 -0.084,-0.293c-0.042,-0.084 -0.126,-0.084 -0.252,-0.084c-0.126,0 -0.21,0.042 -0.294,0.126c-0.084,0.084 -0.168,0.209 -0.209,0.377c-0.042,0.168 -0.084,0.336 -0.084,0.504c-0.042,0.293 0.042,0.419 0.251,0.419Z" style="fill:#1ecae1;fill-rule:nonzero;"/><path d="M91.532,47.958c-0.209,0 -0.377,-0.042 -0.461,-0.168c-0.126,-0.126 -0.168,-0.293 -0.168,-0.503c0,-0.21 0.042,-0.42 0.126,-0.588c0.084,-0.209 0.21,-0.335 0.335,-0.461c0.126,-0.126 0.294,-0.168 0.462,-0.168c0.168,0 0.294,0.042 0.378,0.126c0.084,0.084 0.126,0.168 0.126,0.294c0,0.209 -0.084,0.335 -0.294,0.461c-0.168,0.126 -0.462,0.168 -0.797,0.168l-0.042,0l0,0.126c0,0.126 0.042,0.252 0.084,0.335c0.083,0.084 0.167,0.126 0.335,0.126c0.084,0 0.126,0 0.21,-0.042c0.084,0 0.168,-0.042 0.294,-0.126l0,0.252c-0.084,0.042 -0.21,0.084 -0.294,0.084c-0.084,0 -0.21,0.084 -0.294,0.084Zm0.21,-1.636c-0.126,0 -0.21,0.042 -0.336,0.168c-0.083,0.083 -0.167,0.251 -0.209,0.419c0.251,0 0.461,-0.042 0.587,-0.084c0.126,-0.084 0.21,-0.168 0.21,-0.294c0,-0.041 0,-0.125 -0.042,-0.125c-0.042,-0.084 -0.126,-0.084 -0.21,-0.084Z" style="fill:#1ecae1;fill-rule:nonzero;"/><path d="M93.546,47.916l-1.175,0l0.042,-0.21l1.133,-1.384l-0.797,0l0.042,-0.21l1.091,0l-0.042,0.21l-1.133,1.384l0.881,0l-0.042,0.21Z" style="fill:#1ecae1;fill-rule:nonzero;"/><path d="M93.924,47.077l0.042,-0.252l0.797,0l-0.042,0.252l-0.797,0Z" style="fill:#1ecae1;fill-rule:nonzero;"/><path d="M95.309,47.916l-0.21,-1.804l0.293,0l0.126,1.007c0.042,0.294 0.042,0.461 0.042,0.587c0.126,-0.293 0.252,-0.503 0.294,-0.629l0.545,-1.007l0.294,0l-0.965,1.804l-0.419,0l0,0.042Z" style="fill:#1ecae1;fill-rule:nonzero;"/><path d="M97.574,46.112c0.21,0 0.378,0.042 0.504,0.168c0.126,0.126 0.168,0.293 0.168,0.503c0,0.21 -0.042,0.42 -0.126,0.588c-0.084,0.167 -0.168,0.335 -0.336,0.419c-0.126,0.084 -0.294,0.168 -0.461,0.168c-0.21,0 -0.378,-0.042 -0.504,-0.168c-0.126,-0.126 -0.168,-0.293 -0.168,-0.503c0,-0.21 0.042,-0.42 0.126,-0.588c0.084,-0.168 0.21,-0.335 0.336,-0.419c0.126,-0.084 0.293,-0.168 0.461,-0.168Zm0.378,0.629c0,-0.126 -0.042,-0.21 -0.084,-0.293c-0.084,-0.084 -0.168,-0.126 -0.294,-0.126c-0.126,0 -0.21,0.042 -0.335,0.126c-0.084,0.083 -0.168,0.209 -0.21,0.335c-0.042,0.126 -0.084,0.294 -0.084,0.462c0,0.126 0.042,0.252 0.126,0.335c0.084,0.084 0.168,0.126 0.293,0.126c0.126,0 0.21,-0.042 0.294,-0.126c0.084,-0.083 0.168,-0.209 0.21,-0.335c0.084,-0.126 0.084,-0.294 0.084,-0.504Z" style="fill:#1ecae1;fill-rule:nonzero;"/><path d="M99.169,46.112l-0.252,1.133c0,0.084 -0.042,0.168 -0.042,0.21c0,0.167 0.084,0.251 0.252,0.251c0.084,0 0.21,-0.042 0.293,-0.084c0.084,-0.084 0.168,-0.167 0.252,-0.293c0.084,-0.126 0.126,-0.252 0.168,-0.462l0.168,-0.797l0.294,0l-0.378,1.804l-0.21,0l0.042,-0.336c-0.126,0.126 -0.21,0.252 -0.294,0.294c-0.084,0.042 -0.209,0.084 -0.293,0.084c-0.126,0 -0.252,-0.042 -0.336,-0.126c-0.084,-0.084 -0.126,-0.168 -0.126,-0.335c0,-0.084 0,-0.168 0.042,-0.294l0.252,-1.091l0.168,0l0,0.042Z" style="fill:#1ecae1;fill-rule:nonzero;"/><path d="M101.56,47.413c0,0.167 -0.042,0.293 -0.168,0.419c-0.125,0.084 -0.293,0.126 -0.503,0.126c-0.168,0 -0.336,-0.042 -0.504,-0.126l0,-0.252c0.084,0.042 0.168,0.084 0.252,0.126c0.084,0.042 0.168,0.042 0.252,0.042c0.126,0 0.252,-0.042 0.294,-0.084c0.084,-0.042 0.126,-0.126 0.126,-0.209c0,-0.042 0,-0.126 -0.042,-0.168c-0.042,-0.042 -0.126,-0.084 -0.252,-0.168c-0.126,-0.084 -0.252,-0.168 -0.294,-0.252c-0.042,-0.084 -0.084,-0.168 -0.084,-0.294c0,-0.167 0.042,-0.293 0.168,-0.377c0.126,-0.084 0.252,-0.126 0.42,-0.126c0.167,0 0.377,0.042 0.545,0.126l-0.084,0.21l-0.084,-0.042c-0.126,-0.042 -0.251,-0.084 -0.377,-0.084c-0.084,0 -0.168,0.042 -0.252,0.084c-0.042,0.042 -0.084,0.126 -0.084,0.167c0,0.042 0,0.126 0.042,0.168c0.042,0.042 0.126,0.084 0.252,0.168c0.126,0.084 0.209,0.126 0.251,0.168c0.042,0.042 0.084,0.084 0.126,0.168c0,0.084 0,0.126 0,0.21Z" style="fill:#1ecae1;fill-rule:nonzero;"/></g></svg>