<?xml version="1.0" encoding="UTF-8" standalone="no"?><!DOCTYPE svg PUBLIC "-//W3C//DTD SVG 1.1//EN" "http://www.w3.org/Graphics/SVG/1.1/DTD/svg11.dtd"><svg width="100%" height="100%" viewBox="0 0 144 48" version="1.1" xmlns="http://www.w3.org/2000/svg" xmlns:xlink="http://www.w3.org/1999/xlink" xml:space="preserve" xmlns:serif="http://www.serif.com/" style="fill-rule:evenodd;clip-rule:evenodd;stroke-linejoin:round;stroke-miterlimit:1.41421;"><rect id="Platine" x="0" y="0" width="144" height="48" style="fill:none;"/><clipPath id="_clip1"><rect x="43.182" y="0" width="57.636" height="48"/></clipPath><g clip-path="url(#_clip1)"><g id="Calque_1-2"><path d="M43.182,40.378l1.121,0l0,0.983c0,0 1.15,-0.866 2.6,-1.136l0,1.166c-1.405,0.269 -2.6,1.032 -2.6,1.032l0,5.424l-1.121,0l0,-7.469Z" style="fill:#3a434d;fill-rule:nonzero;"/><path d="M53.792,46.849l0.03,0.911c0,0 -1.689,0.24 -2.896,0.24c-2.241,0 -2.974,-1.3 -2.974,-3.84c0,-2.839 1.24,-3.93 3.139,-3.93c1.972,0 3.006,1.047 3.006,3.496l-0.06,0.867l-4.952,0c0.014,1.569 0.492,2.39 1.972,2.39c1.121,0 2.735,-0.134 2.735,-0.134Zm-0.82,-3.167c0,-1.793 -0.583,-2.45 -1.883,-2.45c-1.286,0 -2.004,0.702 -2.004,2.45l3.887,0Z" style="fill:#3a434d;fill-rule:nonzero;"/><path d="M61.248,46.341c0.03,0.478 0.388,0.628 0.866,0.687l-0.044,0.971c-0.897,0 -1.375,-0.165 -1.763,-0.567c0,0 -1.345,0.567 -2.764,0.567c-1.3,0 -2.033,-0.82 -2.033,-2.286c0,-1.435 0.729,-2.077 2.271,-2.212l2.362,-0.227l0,-0.612c0,-0.942 -0.478,-1.36 -1.3,-1.36c-1.093,0 -2.855,0.194 -2.855,0.194l-0.044,-0.971c0,0 1.793,-0.299 2.943,-0.299c1.585,0 2.362,0.747 2.362,2.436l-0.001,3.679Zm-3.317,-1.973c-0.911,0.091 -1.286,0.553 -1.286,1.314c0,0.867 0.389,1.345 1.061,1.345c1.136,0 2.436,-0.448 2.436,-0.448l0,-2.394l-2.211,0.183Z" style="fill:#3a434d;fill-rule:nonzero;"/><path d="M68.451,40.45l-0.033,0.975c0,0 -1.195,-0.135 -1.764,-0.135c-1.718,0 -2.181,0.717 -2.181,2.69c0,2.182 0.343,2.973 2.181,2.973c0.568,0 1.778,-0.135 1.778,-0.135l0.045,0.972c0,0 -1.405,0.209 -2.077,0.209c-2.391,0 -3.079,-1.093 -3.079,-4.019c0,-2.705 0.867,-3.751 3.093,-3.751c0.693,0 2.037,0.221 2.037,0.221Z" style="fill:#3a434d;fill-rule:nonzero;"/><path d="M70.409,47.851l0,-10.909l1.121,0l0,3.795c0,0 1.255,-0.508 2.301,-0.508c2.062,0 2.526,1.017 2.526,3.721l0,3.9l-1.121,0l0,-3.885c0,-1.972 -0.224,-2.704 -1.569,-2.704c-1.002,0 -2.136,0.434 -2.136,0.434l0,6.156l-1.122,0Z" style="fill:#3a434d;fill-rule:nonzero;"/><path d="M80.675,47.851l-1.106,0l0,-6.456l-0.941,0l0,-1.017l0.941,0l0,-0.672c0,-2.152 0.538,-2.72 2.004,-2.72c0.523,0 1.51,0.105 1.51,0.105l-0.015,0.927c0,0 -0.836,-0.03 -1.27,-0.03c-0.837,0 -1.12,0.359 -1.12,1.731l0,0.657l2.182,0l0,1.016l-2.185,0l0,6.459Z" style="fill:#59b274;fill-rule:nonzero;"/><path d="M84.41,37.39l1.106,0l0,1.3l-1.106,0l0,-1.3Zm0,2.988l1.106,0l0,7.471l-1.106,0l0,-7.471Z" style="fill:#59b274;fill-rule:nonzero;"/><path d="M88.251,40.378l1.793,6.515l0.553,0l1.822,-6.515l1.135,0l-2.122,7.471l-2.242,0l-2.108,-7.471l1.169,0Z" style="fill:#59b274;fill-rule:nonzero;"/><path d="M100.519,46.849l0.03,0.911c0,0 -1.688,0.239 -2.899,0.239c-2.241,0 -2.973,-1.3 -2.973,-3.84c0,-2.839 1.24,-3.93 3.137,-3.93c1.973,0 3.007,1.047 3.007,3.496l-0.06,0.867l-4.948,0c0.015,1.569 0.493,2.39 1.972,2.39c1.121,0.001 2.734,-0.133 2.734,-0.133Zm-0.82,-3.167c0,-1.793 -0.583,-2.45 -1.883,-2.45c-1.284,0 -2.004,0.702 -2.004,2.45l3.887,0Z" style="fill:#59b274;fill-rule:nonzero;"/><path d="M77.174,9.222c-6.256,-3.715 -14.496,-5.479 -14.496,-5.479l9.322,-3.743l9.343,3.743l6.356,7.848l-0.278,10.392c0,0 -3.991,-9.046 -10.247,-12.761Z" style="fill:#3a434d;fill-opacity:0.8;fill-rule:nonzero;"/><path d="M80.899,19.695c1.61,-7.095 0.44,-15.952 0.44,-15.952l6.356,7.848l-0.274,10.392l-5.2,9.056l-10.221,2.301c0,0 7.293,-6.549 8.899,-13.645Z" style="fill:#59b274;fill-opacity:0.8;fill-rule:nonzero;"/><path d="M66.846,9.222c6.257,-3.715 14.497,-5.479 14.497,-5.479l-9.323,-3.743l-9.342,3.743l-6.356,7.848l0.273,10.392c0,0 3.995,-9.046 10.251,-12.761Z" style="fill:#3a434d;fill-opacity:0.8;fill-rule:nonzero;"/><path d="M63.098,19.695c-1.61,-7.095 -0.44,-15.952 -0.44,-15.952l-6.357,7.848l0.273,10.392l5.2,9.056l10.221,2.3c0,0 -7.288,-6.548 -8.897,-13.644Z" style="fill:#59b274;fill-opacity:0.8;fill-rule:nonzero;"/><path d="M71.789,26.5c-7.252,-0.572 -15.193,-4.517 -15.193,-4.517l5.18,9.056l10.221,2.3l10.224,-2.3l5.2,-9.056c0,0 -8.376,5.09 -15.632,4.517Z" style="fill:#3a434d;fill-opacity:0.8;fill-rule:nonzero;"/></g></g></svg>