<?xml version="1.0" encoding="UTF-8" standalone="no"?><!DOCTYPE svg PUBLIC "-//W3C//DTD SVG 1.1//EN" "http://www.w3.org/Graphics/SVG/1.1/DTD/svg11.dtd"><svg width="100%" height="100%" viewBox="0 0 85 48" version="1.1" xmlns="http://www.w3.org/2000/svg" xmlns:xlink="http://www.w3.org/1999/xlink" xml:space="preserve" xmlns:serif="http://www.serif.com/" style="fill-rule:evenodd;clip-rule:evenodd;stroke-linejoin:round;stroke-miterlimit:1.41421;"><g><path d="M17.028,22.803l-2.295,0l0,-13.639l2.295,0l0,1.677c0.813,-1.153 2.17,-1.823 3.761,-1.823c0.293,0 0.634,0.028 0.817,0.055l0.169,0.023l0,2.438l-0.242,-0.061c-0.316,-0.078 -0.755,-0.12 -1.231,-0.12c-1.926,0 -3.274,1.416 -3.274,3.445l0,8.005Z" style="fill:#4d5255;"/><path d="M43.657,22.778c2.259,0 3.89,-0.7 5.291,-2.269l0.12,-0.135l-1.466,-1.507l-0.141,0.148c-1.037,1.097 -1.992,1.732 -3.804,1.732c-2.547,0 -4.212,-1.631 -4.385,-4.276l10.325,0l0.013,-0.181c0.025,-0.379 0.025,-0.801 0.025,-0.82c0,-1.858 -0.577,-3.556 -1.627,-4.785c-1.106,-1.298 -2.629,-1.983 -4.401,-1.983c-3.909,0 -6.64,2.969 -6.64,7.224l0,0.101c0,4.037 2.689,6.751 6.69,6.751Zm-4.248,-8.334c0.23,-1.995 2.067,-3.582 4.198,-3.582c1.978,0 3.599,1.589 3.698,3.582l-7.896,0Z" style="fill:#4d5255;"/><rect x="24.011" y="9.164" width="2.295" height="13.639" style="fill:#4d5255;"/><path d="M34.167,22.968c-0.702,0 -1.734,-0.072 -2.56,-0.698c-0.896,-0.676 -1.351,-1.863 -1.351,-3.523l0,-7.434l0,-2.16l0,-3.156l2.295,0l0,3.156l2.985,0l0,2.16l-2.985,0l0,7.434c0,1.717 0.609,2.061 1.588,2.061c0.361,0 0.702,0 1.17,-0.076l0.227,-0.036l0,2.103l-0.149,0.036c-0.474,0.111 -0.805,0.133 -1.22,0.133Z" style="fill:#4d5255;"/><path d="M58.108,22.968c1.884,0 3.639,-0.717 4.943,-2.019c1.325,-1.323 2.059,-3.142 2.059,-5.114c0,-1.972 -0.734,-3.789 -2.059,-5.114c-1.304,-1.302 -3.059,-2.019 -4.943,-2.019c-1.884,0 -3.639,0.717 -4.943,2.019c-1.328,1.325 -2.059,3.142 -2.059,5.114c0,1.972 0.731,3.791 2.059,5.114c1.304,1.302 3.059,2.019 4.943,2.019Zm0,-12.106c1.31,0 2.507,0.502 3.369,1.416c0.862,0.913 1.336,2.177 1.336,3.557c0,1.38 -0.474,2.642 -1.336,3.557c-0.862,0.912 -2.059,1.416 -3.369,1.416c-1.311,0 -2.508,-0.504 -3.369,-1.416c-0.862,-0.915 -1.336,-2.177 -1.336,-3.557c0,-1.38 0.474,-2.644 1.336,-3.557c0.861,-0.914 2.058,-1.416 3.369,-1.416Z" style="fill:#4d5255;"/><path d="M7.048,22.968c-1.901,0 -3.668,-0.717 -4.981,-2.019c-1.334,-1.323 -2.067,-3.14 -2.067,-5.114c0,-1.974 0.733,-3.791 2.067,-5.114c1.313,-1.302 3.08,-2.019 4.981,-2.019c2,0 3.736,0.696 5.015,2.011l0.122,0.128l-1.403,1.658l-0.15,-0.158c-0.922,-0.969 -2.161,-1.479 -3.584,-1.479c-1.323,0 -2.532,0.504 -3.405,1.416c-0.868,0.915 -1.348,2.177 -1.348,3.557c0,1.38 0.48,2.642 1.348,3.555c0.873,0.914 2.082,1.418 3.405,1.418c1.425,0 2.664,-0.512 3.584,-1.479l0.15,-0.159l1.403,1.659l-0.122,0.128c-1.279,1.315 -3.013,2.011 -5.015,2.011Z" style="fill:#4d5255;"/><path d="M25.159,3.521c-0.967,0 -1.755,-0.79 -1.755,-1.759c0,-0.972 0.788,-1.762 1.755,-1.762c0.965,0 1.753,0.79 1.753,1.762c0,0.969 -0.788,1.759 -1.753,1.759Z" style="fill:#f79031;"/><path d="M82.529,22.968c-0.967,0 -1.753,-0.791 -1.753,-1.762c0,-0.971 0.786,-1.759 1.753,-1.759c0.97,0 1.755,0.788 1.755,1.759c0,0.971 -0.785,1.762 -1.755,1.762Z" style="fill:#f79031;"/><path d="M77.537,20.376l-4.665,0c-1.207,0 -2.185,-0.976 -2.185,-2.179l0,-13.696c0,-1.968 -1.599,-3.563 -3.573,-3.563l-36.934,0l0,1.584l36.736,0c1.205,0 2.183,0.974 2.183,2.177l0,13.696c0,1.968 1.601,3.563 3.575,3.563l4.863,0l0,-1.582Z" style="fill:#f79031;"/><path d="M40.777,44.477c0,3.234 2.099,3.523 3.464,3.523c0.303,0 0.607,-0.025 0.91,-0.097l0,-1.665c-0.278,0.076 -0.607,0.102 -0.91,0.102c-1.188,0 -1.593,-0.586 -1.593,-1.99l0,-14.416l-1.871,0l0,14.543Z" style="fill:#f79031;"/><path d="M46.508,44.254c0,2.326 1.897,3.746 4.579,3.746c1.755,0 3.359,-0.457 4.313,-1.54c0.051,0.208 0.127,0.436 0.278,0.689c0.152,0.253 0.607,0.682 1.34,0.682c0.405,0 0.936,-0.05 1.29,-0.278l0,-1.213l-0.228,0c-0.531,0 -1.062,-0.026 -1.062,-0.993l0,-6.848c0,-2.457 -1.845,-3.9 -4.578,-3.9c-1.956,0 -3.585,0.817 -4.693,2.398l1.283,1.07c0.803,-1.07 1.905,-1.808 3.41,-1.808c2.006,0 2.707,1.068 2.707,1.96c0,1.502 -0.952,1.707 -3.358,1.884c-3.46,0.255 -5.281,1.502 -5.281,4.151Zm1.871,-0.053c0,-1.679 1.404,-2.137 3.485,-2.316c1.779,-0.154 2.832,-0.305 3.283,-0.79l0,2.293c0,1.78 -1.352,2.952 -3.86,2.952c-1.806,0 -2.908,-0.788 -2.908,-2.139Z" style="fill:#f79031;"/><path d="M60.457,47.608l1.871,0l0,-1.802c0.63,1.062 2.019,2.194 4.518,2.194c3.559,0 6.439,-2.779 6.439,-6.701c0,-3.921 -2.88,-6.7 -6.439,-6.7c-2.499,0 -3.888,1.131 -4.518,2.195l0,-6.86l-1.871,0l0,17.674Zm1.644,-6.309c0,-2.876 2.018,-5.04 4.745,-5.04c2.625,0 4.568,2.164 4.568,5.04c0,2.877 -1.943,5.041 -4.568,5.041c-2.727,0 -4.745,-2.164 -4.745,-5.041Z" style="fill:#f79031;"/><path d="M74.92,44.825c0.531,1.953 2.453,2.964 4.756,2.964c3.167,0 4.608,-1.784 4.608,-3.59c0,-2.034 -1.416,-3.112 -3.82,-4.04c-1.626,-0.627 -2.712,-1.154 -2.712,-2.282c0,-1.053 0.839,-1.63 1.95,-1.63c1.034,0 1.651,0.425 2.096,1.253l1.5,-0.777c-0.733,-1.404 -1.945,-2.137 -3.622,-2.137c-2.202,0 -3.795,1.342 -3.795,3.291c0,2.006 1.442,2.885 3.424,3.688c1.949,0.777 3.108,1.254 3.108,2.634c0,0.727 -0.442,1.93 -2.737,1.93c-1.85,0 -2.859,-0.953 -3.163,-1.907l-1.593,0.603Z" style="fill:#f79031;"/></g></svg>