<?xml version="1.0" encoding="UTF-8" standalone="no"?><!DOCTYPE svg PUBLIC "-//W3C//DTD SVG 1.1//EN" "http://www.w3.org/Graphics/SVG/1.1/DTD/svg11.dtd"><svg width="100%" height="100%" viewBox="0 0 144 48" version="1.1" xmlns="http://www.w3.org/2000/svg" xmlns:xlink="http://www.w3.org/1999/xlink" xml:space="preserve" xmlns:serif="http://www.serif.com/" style="fill-rule:evenodd;clip-rule:evenodd;stroke-linejoin:round;stroke-miterlimit:1.41421;"><rect id="Platine" x="0" y="0" width="144" height="48" style="fill:none;"/><clipPath id="_clip1"><rect x="0" y="0" width="144" height="48"/></clipPath><g clip-path="url(#_clip1)"><g id="iadvize"><path d="M3.887,34.938c-3.361,-4.127 -4.861,-9.83 -3.217,-15.831c1.547,-5.647 5.947,-10.115 11.577,-11.719c11.754,-3.35 22.426,5.385 22.426,16.612c0,9.391 -7.467,17.038 -16.789,17.327l0.006,0.009l-8.869,0l-7.13,0c-0.771,0 -1.251,-0.836 -0.862,-1.501l2.858,-4.897Z" style="fill:#46b85d;fill-rule:nonzero;"/><path d="M39.069,26.546c0,-1.134 0.882,-2.017 2.017,-2.017c1.135,0 2.017,0.883 2.017,2.017l0,12.774c0,1.134 -0.882,2.016 -2.017,2.016c-1.135,0 -2.017,-0.882 -2.017,-2.016l0,-12.774Zm2.059,-9.075c1.387,0 2.521,1.176 2.521,2.521c0,1.344 -1.134,2.437 -2.521,2.437c-1.303,0 -2.437,-1.093 -2.437,-2.437c0,-1.345 1.134,-2.521 2.437,-2.521Z" style="fill:#212b38;fill-rule:nonzero;"/><path d="M53.187,32.513l7.521,0l-3.782,-6.975l-3.739,6.975Zm4.874,-14.286l10.378,20.21c0.126,0.294 0.21,0.546 0.21,0.84c0,1.135 -0.84,2.059 -1.975,2.059c-0.84,0 -1.428,-0.378 -1.806,-1.092l-2.269,-4.244l-11.303,0l-2.311,4.244c-0.378,0.714 -0.966,1.092 -1.807,1.092c-1.134,0 -1.974,-0.924 -1.974,-2.059c0,-0.294 0.083,-0.546 0.21,-0.84l10.378,-20.21c0.168,-0.462 0.588,-0.756 1.134,-0.756c0.547,0 0.967,0.294 1.135,0.756Z" style="fill:#212b38;fill-rule:nonzero;"/><path d="M95.331,40.748l-7.227,-13.361c-0.126,-0.211 -0.168,-0.505 -0.168,-0.841c0,-1.134 0.882,-2.017 2.017,-2.017c0.84,0 1.428,0.337 1.806,1.051l4.454,8.403l4.454,-8.403c0.378,-0.714 0.966,-1.051 1.807,-1.051c1.134,0 2.017,0.883 2.017,2.017c0,0.336 -0.043,0.63 -0.169,0.841l-7.226,13.361c-0.127,0.378 -0.421,0.588 -0.883,0.588c-0.462,0 -0.756,-0.21 -0.882,-0.588Z" style="fill:#212b38;fill-rule:nonzero;"/><path d="M106.597,26.546c0,-1.134 0.882,-2.017 2.017,-2.017c1.134,0 2.017,0.883 2.017,2.017l0,12.774c0,1.134 -0.883,2.016 -2.017,2.016c-1.135,0 -2.017,-0.882 -2.017,-2.016l0,-12.774Zm2.059,-9.075c1.387,0 2.521,1.176 2.521,2.521c0,1.344 -1.134,2.437 -2.521,2.437c-1.303,0 -2.437,-1.093 -2.437,-2.437c0,-1.345 1.134,-2.521 2.437,-2.521Z" style="fill:#212b38;fill-rule:nonzero;"/><path d="M113.698,41.336c-0.378,0 -0.756,-0.42 -0.756,-0.924c0,-0.126 0.042,-0.21 0.042,-0.336l7.395,-11.849l-5.841,0c-1.008,0 -1.806,-0.798 -1.806,-1.807c0,-1.05 0.798,-1.891 1.806,-1.891l11.261,0c0.378,0 0.756,0.42 0.756,0.925c0,0.126 -0.042,0.21 -0.042,0.336l-7.437,11.975l5.883,0c1.008,0 1.764,0.756 1.764,1.765c0,1.008 -0.756,1.806 -1.764,1.806l-11.261,0Z" style="fill:#212b38;fill-rule:nonzero;"/><path d="M131.462,31.021l8.332,0c-0.735,-1.776 -2.344,-2.687 -4.159,-2.687c-1.851,0 -3.45,0.911 -4.173,2.687Zm4.163,10.233c-4.606,0 -8.354,-3.751 -8.354,-8.361c0,-4.612 3.752,-8.364 8.364,-8.364c2.226,0 4.328,0.886 5.921,2.496c1.576,1.591 2.444,3.733 2.444,5.923c0,1.044 -0.846,1.949 -1.891,1.949l-10.651,0c0.719,1.292 2.316,2.635 4.167,2.635c1.121,0 2.203,-0.446 3.046,-1.203c0.778,-0.697 1.973,-0.646 2.67,0.131c0.697,0.778 0.632,1.966 -0.146,2.662c-1.538,1.379 -3.516,2.132 -5.57,2.132Z" style="fill:#212b38;fill-rule:nonzero;"/><path d="M77.295,37.317c-2.438,0 -4.422,-1.984 -4.422,-4.423c0,-2.438 1.984,-4.422 4.422,-4.422c2.439,0 4.423,1.984 4.423,4.422c0,2.439 -1.984,4.423 -4.423,4.423Zm6.381,-19.846c-1.135,0 -1.938,0.96 -1.938,2.095l0,6.275c-1.292,-0.82 -2.811,-1.296 -4.453,-1.296c-4.612,0 -8.344,3.738 -8.344,8.349c0,4.611 3.741,8.349 8.352,8.349c1.677,0 3.238,-0.496 4.547,-1.347c0.241,0.843 0.913,1.44 1.846,1.44c1.135,0 1.928,-0.882 1.928,-2.016l0,-19.833c0,-1.134 -0.804,-2.016 -1.938,-2.016Z" style="fill:#212b38;fill-rule:nonzero;"/></g></g></svg>