<?xml version="1.0" encoding="UTF-8" standalone="no"?><!DOCTYPE svg PUBLIC "-//W3C//DTD SVG 1.1//EN" "http://www.w3.org/Graphics/SVG/1.1/DTD/svg11.dtd"><svg width="100%" height="100%" viewBox="0 0 144 33" version="1.1" xmlns="http://www.w3.org/2000/svg" xmlns:xlink="http://www.w3.org/1999/xlink" xml:space="preserve" xmlns:serif="http://www.serif.com/" style="fill-rule:evenodd;clip-rule:evenodd;stroke-linejoin:round;stroke-miterlimit:1.41421;"><g><path id="Valraiso" d="M41.643,12.836l2.128,-6.568l6.984,0l-9.173,22.247l-9.112,-22.247l7.246,0l1.927,6.568Zm85.244,-0.679l0,6.075c-0.812,0 -1.37,0.152 -1.673,0.455c-0.304,0.303 -0.496,0.902 -0.578,1.796c-0.268,2.97 -1.419,5.067 -3.454,6.29c-1.078,0.637 -2.608,0.956 -4.594,0.956l-0.802,0l0,-6.105l0.262,0c0.928,-0.001 1.586,-0.194 1.981,-0.578c0.396,-0.386 0.625,-1.062 0.686,-2.028c0.082,-1.572 0.229,-2.677 0.44,-3.315c0.21,-0.637 0.64,-1.269 1.287,-1.896c1.13,-1.099 2.696,-1.649 4.702,-1.65l1.743,0Zm-59.99,15.156l-5.766,0l0,-7.123c0,-0.812 -0.198,-1.459 -0.594,-1.943c-0.395,-0.483 -0.927,-0.724 -1.595,-0.724c-0.607,0 -1.131,0.221 -1.573,0.663c-0.442,0.442 -0.663,0.966 -0.663,1.572c0,0.638 0.201,1.162 0.601,1.573c0.401,0.411 0.91,0.617 1.527,0.617c0.503,0 0.971,-0.134 1.403,-0.401l0,5.966c-0.473,0.082 -0.905,0.124 -1.295,0.124c-2.313,0 -4.24,-0.761 -5.782,-2.282c-1.542,-1.521 -2.313,-3.428 -2.313,-5.72c0,-2.23 0.779,-4.122 2.336,-5.674c1.557,-1.552 3.451,-2.328 5.682,-2.328c2.487,0 4.448,0.727 5.881,2.182c1.434,1.454 2.151,3.441 2.151,5.959l0,7.539Zm37.835,0l-5.766,0l0,-7.123c0,-0.812 -0.198,-1.459 -0.594,-1.943c-0.396,-0.483 -0.928,-0.724 -1.596,-0.724c-0.606,0 -1.13,0.221 -1.572,0.663c-0.442,0.442 -0.663,0.966 -0.663,1.572c0,0.638 0.2,1.162 0.601,1.573c0.401,0.411 0.91,0.617 1.527,0.617c0.503,0 0.971,-0.134 1.403,-0.401l0,5.966c-0.473,0.082 -0.905,0.124 -1.296,0.124c-2.312,0 -4.239,-0.761 -5.781,-2.282c-1.542,-1.521 -2.313,-3.428 -2.313,-5.72c0,-2.23 0.779,-4.122 2.336,-5.674c1.557,-1.552 3.451,-2.328 5.681,-2.328c2.488,0 4.448,0.727 5.882,2.182c1.434,1.454 2.151,3.441 2.151,5.959l0,7.539Zm25.469,-13.39c-1.583,1.536 -2.374,3.43 -2.374,5.681c0,2.21 0.791,4.099 2.374,5.666c1.583,1.568 3.49,2.351 5.72,2.351c2.23,0 4.135,-0.781 5.712,-2.343c1.578,-1.563 2.367,-3.454 2.367,-5.674c0,-2.189 -0.779,-4.068 -2.336,-5.635c-1.557,-1.567 -3.425,-2.351 -5.604,-2.351c-2.323,0 -4.276,0.768 -5.859,2.305l0,0Zm-59.943,-7.655l5.766,0l0,21.045l-5.766,0l0,-21.045Zm14.909,21.045l-5.767,0l0,-8.403c0,-2.22 0.607,-3.99 1.82,-5.311c1.212,-1.321 2.831,-1.981 4.856,-1.981c0.452,0 1.038,0.056 1.758,0.169l0,6.167c-0.401,-0.226 -0.766,-0.339 -1.095,-0.339c-1.048,0 -1.572,0.802 -1.572,2.405l0,7.293Zm22.926,-15.371l5.766,0l0,15.371l-5.766,0l0,-15.371Zm29.401,6.035c0.432,0.448 0.648,0.995 0.648,1.642c0,0.638 -0.219,1.183 -0.656,1.635c-0.437,0.452 -0.963,0.678 -1.58,0.678c-0.607,0 -1.128,-0.226 -1.565,-0.678c-0.437,-0.452 -0.655,-0.997 -0.655,-1.635c0,-0.647 0.216,-1.194 0.648,-1.642c0.431,-0.447 0.955,-0.67 1.572,-0.67c0.627,0 1.156,0.223 1.588,0.67Zm-28.53,-12.071c-0.57,0.55 -0.856,1.2 -0.856,1.95c0,0.802 0.27,1.459 0.81,1.973c0.539,0.514 1.23,0.771 2.073,0.771c0.843,0 1.534,-0.257 2.074,-0.771c0.54,-0.514 0.809,-1.171 0.809,-1.973c0,-0.75 -0.285,-1.4 -0.855,-1.95c-0.571,-0.55 -1.247,-0.825 -2.028,-0.825c-0.781,0 -1.457,0.275 -2.027,0.825Z"/><path id="Forme-3-copie-2" d="M4.858,2.539l18.945,0c2.683,0 4.857,2.174 4.857,4.857l0,18.945c0,2.683 -2.174,4.858 -4.857,4.858l-18.945,0c-2.683,0 -4.858,-2.175 -4.858,-4.858l0,-18.945c0,-2.683 2.175,-4.857 4.858,-4.857l0,0Z" style="fill:#ad0f09;"/><path id="Etoile-OK" d="M11.849,0l-3.177,8.872l-7.886,1.534l5.696,4.546l-6.463,17.142l12.761,-12.213l12.651,9.42l-7.174,-15.445l9.748,-9.475l-12.706,2.848l-3.45,-7.229l0,0Z" style="fill:#fff;"/></g></svg>