<?xml version="1.0" encoding="UTF-8" standalone="no"?><!DOCTYPE svg PUBLIC "-//W3C//DTD SVG 1.1//EN" "http://www.w3.org/Graphics/SVG/1.1/DTD/svg11.dtd"><svg width="100%" height="100%" viewBox="0 0 144 34" version="1.1" xmlns="http://www.w3.org/2000/svg" xmlns:xlink="http://www.w3.org/1999/xlink" xml:space="preserve" xmlns:serif="http://www.serif.com/" style="fill-rule:evenodd;clip-rule:evenodd;stroke-linejoin:round;stroke-miterlimit:1.41421;"><g><path d="M140.666,12.312c-0.147,-1.58 -0.508,-3.022 -1.074,-4.346c0.967,-2.025 1.959,-2.774 1.959,-2.774c0,0 2.041,5.256 0.249,10.658c-1.107,3.343 -2.433,5.36 -3.143,6.227c-0.159,0.194 -0.3,0.254 -0.213,0.136c1.674,-2.27 2.597,-5.881 2.222,-9.901m1.621,6.371c-0.826,1.002 -1.662,1.975 -2.586,2.719c-0.132,0.106 -0.216,0.099 -0.114,-0.013c3.267,-3.587 6.815,-11.537 2.216,-19.371c0,0 -1.819,1.263 -3.312,3.881c-1.471,-2.28 -3.615,-4.192 -6.281,-5.899c0,0 -6.748,7.564 -3.763,18.521c-8.607,1.195 -5.482,7.879 -4.117,8.841c0.063,0.045 0.118,0.022 0.029,-0.114c-0.483,-0.746 -1.837,-3.356 0.952,-5.86c1.496,-1.343 4.632,-1.694 4.632,-1.694c-0.713,-5.261 -0.663,-10.014 2.91,-15.275c0.457,0.304 5.685,2.617 5.882,10.4c0.437,4.881 -2.083,8.788 -4.528,10.309c-4.333,2.337 -9.195,3.485 -13.422,4.482c-0.36,0.085 -0.22,0.125 0.019,0.115c10.044,-0.425 18.971,-4.969 22.405,-9.305c0.66,-0.833 0.956,-1.751 0.511,-2.26c-0.446,-0.508 -1.252,0.303 -1.433,0.523" style="fill:#e11479;fill-rule:nonzero;"/><rect x="55.276" y="7.774" width="4.536" height="1.786" style="fill:#080706;fill-rule:nonzero;"/><path d="M37.509,9.528l0,-3.492l3.824,0l0,-1.763l-3.824,0l0,-3.641l-2.04,0l0,9.167c0,2.649 1.226,3.78 4.1,3.78l3.073,0l0,-1.764l-2.492,0c-1.686,0 -2.641,-0.106 -2.641,-2.287" style="fill:#080706;fill-rule:nonzero;"/><path d="M28.254,4.301c-2.06,0 -5.171,0 -5.171,4.382l0,4.896l1.947,0l0,-4.639c0,-2.257 0.693,-2.876 3.224,-2.876c2.525,0 3.216,0.619 3.216,2.876l0,4.639l2.039,0l0,-4.896c0,-4.382 -3.289,-4.382 -5.255,-4.382" style="fill:#080706;fill-rule:nonzero;"/><path d="M9.042,4.301l-3.391,6.871l-3.361,-6.812l-0.031,-0.059l-2.259,0l4.707,9.222l0.031,0.056l1.828,0l4.737,-9.278l-2.261,0Z" style="fill:#080706;fill-rule:nonzero;"/><path d="M111.92,7.784c0.181,-1.165 0.692,-1.72 2.846,-1.72c2.295,0 2.837,0.604 2.95,1.72l-5.796,0Zm7.939,1.156c0,-4.639 -3.44,-4.639 -5.093,-4.639c-1.496,0 -5,0 -5,4.639c0,4.639 3.504,4.639 5,4.639l4.634,0l0,-1.764l-4.634,0c-2.355,0 -2.848,-0.596 -2.952,-2.268l8.045,0l0,-0.607Z" style="fill:#080706;fill-rule:nonzero;"/><path d="M92.249,11.172l-3.358,-6.808l-0.03,-0.064l-2.263,0l4.704,9.219l0.03,0.06l1.834,0l4.736,-9.279l-2.261,0l-3.392,6.872Z" style="fill:#080706;fill-rule:nonzero;"/><path d="M66.77,11.815c-3.115,0 -3.244,-0.596 -3.244,-2.875c0,-2.233 0.139,-2.876 3.244,-2.876c3.107,0 3.246,0.643 3.246,2.876c0,2.232 -0.139,2.875 -3.246,2.875m0,-7.514c-2.783,0 -5.281,0.355 -5.281,4.639l0,7.481l2.037,0l0,-3.331c0.974,0.45 2.18,0.489 3.244,0.489c2.785,0 5.284,-0.354 5.284,-4.639c0,-4.284 -2.499,-4.639 -5.284,-4.639" style="fill:#080706;fill-rule:nonzero;"/><path d="M73.842,8.683l0,4.896l2.038,0l0,-4.64c0,-2.136 0.157,-2.874 3.245,-2.874l2.147,0l0,-1.764l-1.872,0c-2.859,0 -5.558,0 -5.558,4.382" style="fill:#080706;fill-rule:nonzero;"/><path d="M100.384,7.784c0.181,-1.165 0.694,-1.72 2.846,-1.72c2.295,0 2.838,0.604 2.951,1.72l-5.797,0Zm2.846,-3.483c-1.496,0 -4.999,0 -4.999,4.639c0,4.639 3.503,4.639 4.999,4.639l4.634,0l0,-1.764l-4.634,0c-2.355,0 -2.848,-0.596 -2.952,-2.268l8.046,0l0,-0.607c0,-4.639 -3.441,-4.639 -5.094,-4.639" style="fill:#080706;fill-rule:nonzero;"/><path d="M45.612,7.784c0.181,-1.165 0.694,-1.72 2.846,-1.72c2.295,0 2.838,0.604 2.951,1.72l-5.797,0Zm2.846,-3.483c-1.496,0 -4.999,0 -4.999,4.639c0,4.639 3.503,4.639 4.999,4.639l4.635,0l0,-1.764l-4.635,0c-2.355,0 -2.847,-0.596 -2.952,-2.268l8.046,0l0,-0.607c0,-4.639 -3.441,-4.639 -5.094,-4.639" style="fill:#080706;fill-rule:nonzero;"/><path d="M13.453,7.784c0.182,-1.165 0.694,-1.72 2.847,-1.72c2.295,0 2.837,0.604 2.95,1.72l-5.797,0Zm2.847,-3.483c-1.497,0 -5,0 -5,4.639c0,4.639 3.503,4.639 5,4.639l4.634,0l0,-1.764l-4.634,0c-2.355,0 -2.848,-0.596 -2.952,-2.268l8.045,0l0,-0.607c0,-4.639 -3.44,-4.639 -5.093,-4.639" style="fill:#080706;fill-rule:nonzero;"/><path d="M84.056,0.625c-0.598,0 -1.084,0.487 -1.084,1.084c0,0.597 0.486,1.083 1.084,1.083c0.597,0 1.082,-0.486 1.082,-1.083c0,-0.597 -0.485,-1.084 -1.082,-1.084" style="fill:#080706;fill-rule:nonzero;"/><rect x="83.035" y="4.301" width="2.038" height="9.278" style="fill:#080706;fill-rule:nonzero;"/><path d="M66.243,24.944l2.564,0l0,1.881c-0.539,0.434 -1.223,0.776 -2.249,0.776c-2.315,0 -3.38,-1.565 -3.38,-3.302c0,-1.959 1.223,-3.498 3.38,-3.498c0.908,0 1.828,0.408 2.394,0.999l0.947,-0.959c-0.816,-0.856 -2.052,-1.395 -3.341,-1.395c-3.143,0 -4.84,2.196 -4.84,4.853c0,2.447 1.565,4.67 4.84,4.67c1.618,0 2.842,-0.684 3.617,-1.513l0,-3.854l-3.932,0l0,1.342Z" style="fill:#080606;fill-rule:nonzero;"/><path d="M76.476,24.286l0,-3.301l2.814,0c1.197,0 1.737,0.829 1.737,1.644c0,0.868 -0.54,1.657 -1.763,1.657l-2.788,0Zm3.564,1.197c1.815,-0.276 2.499,-1.552 2.486,-2.881c0,-1.551 -1.105,-2.985 -3.236,-2.998l-4.3,0l0,9.207l1.486,0l0,-3.183l1.854,0l2.657,3.183l1.96,0l-2.907,-3.328Z" style="fill:#080606;fill-rule:nonzero;"/><path d="M106.069,25.089c0,1.67 -0.947,2.512 -2.367,2.512c-1.434,0 -2.473,-0.79 -2.473,-2.512l0,-5.485l-1.499,0l0,5.485c0,2.682 1.854,3.879 3.958,3.879c2.184,0 3.881,-1.236 3.881,-3.879l0,-5.485l-1.5,0l0,5.485Z" style="fill:#080606;fill-rule:nonzero;"/><path d="M116.315,24.615l-2.446,0l0,-3.603l2.446,0c1.211,0 1.815,0.894 1.815,1.801c0,0.894 -0.604,1.802 -1.815,1.802m0,-5.011l-3.946,0l0,9.207l1.5,0l0,-2.828l2.446,0c2.197,0 3.276,-1.591 3.276,-3.196c0,-1.592 -1.079,-3.183 -3.276,-3.183" style="fill:#080606;fill-rule:nonzero;"/><path d="M87.653,24.457c0,-1.724 0.909,-3.32 3.057,-3.411c0.418,-0.447 0.831,-0.873 1.24,-1.282c-0.328,-0.06 -0.676,-0.094 -1.049,-0.094c-3.208,0 -4.707,2.327 -4.707,4.76c0,0.579 0.089,1.151 0.264,1.689c0.377,-0.507 0.775,-1.026 1.199,-1.555c-0.001,-0.036 -0.004,-0.072 -0.004,-0.107" style="fill:#080606;fill-rule:nonzero;"/><path d="M87.661,24.679c-0.415,0.525 -0.807,1.041 -1.171,1.542c0.42,1.204 1.296,2.215 2.647,2.685c0.361,-0.361 0.73,-0.739 1.108,-1.137c-1.718,-0.272 -2.512,-1.617 -2.584,-3.09" style="fill:#080606;fill-rule:nonzero;"/><path d="M91.384,27.795c-0.45,0.468 -0.896,0.909 -1.335,1.33c0.271,0.039 0.552,0.066 0.852,0.066c3.209,0 4.722,-2.341 4.722,-4.747c0,-0.486 -0.063,-0.967 -0.185,-1.428c-0.401,0.539 -0.831,1.088 -1.282,1.643c-0.068,1.531 -0.912,2.93 -2.772,3.136" style="fill:#080606;fill-rule:nonzero;"/><path d="M90.827,21.041c0.026,-0.001 0.049,-0.004 0.075,-0.004c1.834,0 2.821,1.065 3.142,2.396c0.368,-0.455 0.72,-0.901 1.05,-1.332c-0.553,-1.125 -1.55,-2.01 -3.023,-2.315c-0.407,0.395 -0.823,0.815 -1.244,1.255" style="fill:#080606;fill-rule:nonzero;"/><path d="M90.827,21.041c-0.04,0 -0.078,0.003 -0.118,0.005c-0.487,0.52 -0.979,1.061 -1.471,1.627c-0.555,0.637 -1.083,1.269 -1.581,1.89c0.001,0.039 0.002,0.078 0.005,0.117c0.487,-0.617 1.004,-1.243 1.554,-1.875c0.54,-0.619 1.079,-1.207 1.611,-1.764" style="fill:#e11479;fill-rule:nonzero;"/><path d="M83.678,32.554c-0.683,-0.578 0.515,-3.164 2.813,-6.333c-0.012,-0.033 -0.022,-0.068 -0.033,-0.101c-2.695,3.628 -4.134,6.602 -3.358,7.26c0.78,0.661 3.658,-1.105 6.949,-4.256c-0.325,-0.047 -0.63,-0.12 -0.912,-0.218c-2.645,2.638 -4.797,4.209 -5.459,3.648" style="fill:#e11479;fill-rule:nonzero;"/><path d="M99.044,15.074c-0.802,-0.68 -3.726,1.319 -7.095,4.69c0.041,0.007 0.082,0.014 0.122,0.022c2.879,-2.789 5.332,-4.376 6.026,-3.788c0.682,0.578 -0.64,3.011 -3.002,6.103c0.143,0.291 0.259,0.597 0.342,0.915c2.909,-3.909 4.421,-7.252 3.607,-7.942" style="fill:#e11479;fill-rule:nonzero;"/><path d="M90.245,27.769c0.207,0.033 0.423,0.054 0.657,0.054c0.168,0 0.327,-0.011 0.482,-0.029c0.559,-0.58 1.124,-1.195 1.685,-1.84c0.378,-0.434 0.737,-0.865 1.087,-1.295c0.003,-0.067 0.007,-0.135 0.007,-0.202c0,-0.35 -0.04,-0.695 -0.119,-1.024c-0.537,0.662 -1.106,1.342 -1.71,2.035c-0.708,0.814 -1.409,1.585 -2.089,2.301" style="fill:#e11479;fill-rule:nonzero;"/><path d="M91.384,27.795c-0.155,0.017 -0.314,0.028 -0.483,0.028c-0.233,0 -0.449,-0.021 -0.656,-0.053c-0.378,0.397 -0.747,0.775 -1.108,1.135c0.282,0.099 0.586,0.172 0.912,0.22c0.439,-0.421 0.885,-0.862 1.335,-1.33" style="fill:#e11479;fill-rule:nonzero;"/><path d="M87.661,24.679c-0.001,-0.038 -0.003,-0.077 -0.004,-0.115c-0.424,0.529 -0.821,1.048 -1.199,1.555c0.011,0.035 0.021,0.069 0.032,0.102c0.364,-0.501 0.756,-1.017 1.171,-1.542" style="fill:#080706;fill-rule:nonzero;"/><path d="M90.709,21.046c0.04,-0.002 0.078,-0.005 0.118,-0.005c0.421,-0.44 0.837,-0.86 1.244,-1.255c-0.039,-0.008 -0.081,-0.015 -0.122,-0.022c-0.407,0.408 -0.821,0.835 -1.24,1.282" style="fill:#080706;fill-rule:nonzero;"/><path d="M94.044,23.433c0.079,0.329 0.119,0.674 0.119,1.024c0,0.067 -0.004,0.134 -0.007,0.201c0.451,-0.554 0.881,-1.104 1.282,-1.642c-0.085,-0.318 -0.2,-0.624 -0.343,-0.916c-0.33,0.432 -0.683,0.878 -1.051,1.333" style="fill:#e11479;fill-rule:nonzero;"/></g></svg>