<?xml version="1.0" encoding="UTF-8" standalone="no"?><!DOCTYPE svg PUBLIC "-//W3C//DTD SVG 1.1//EN" "http://www.w3.org/Graphics/SVG/1.1/DTD/svg11.dtd"><svg width="100%" height="100%" viewBox="0 0 144 18" version="1.1" xmlns="http://www.w3.org/2000/svg" xmlns:xlink="http://www.w3.org/1999/xlink" xml:space="preserve" xmlns:serif="http://www.serif.com/" style="fill-rule:evenodd;clip-rule:evenodd;stroke-linejoin:round;stroke-miterlimit:1.41421;"><g><path d="M12.123,13.027l-7.699,0l0,-8.06l7.699,0l0,8.06Zm8.406,-12.692l-18.317,0c-1.222,0 -2.212,1.037 -2.212,2.315l0,12.695c0,1.279 0.99,2.316 2.212,2.316l12.122,0c1.222,0 2.213,-1.037 2.213,-2.316l0,-10.378l3.982,0c1.221,0 2.211,-1.037 2.211,-2.317c0,-1.278 -0.99,-2.315 -2.211,-2.315" style="fill:#f00;fill-rule:nonzero;"/><path d="M30.371,17.624l0,-17.299l4.176,0l0,13.401l3.95,0l0,3.898l-8.126,0Z" style="fill-rule:nonzero;"/><path d="M40.272,10.725l0,-10.4l4.175,0l0,10.4c0,1.949 0.925,3.299 2.975,3.299c1.975,0 2.924,-1.374 2.924,-3.325l0,-10.374l4.176,0l0,10.374c0,4.176 -2.4,7.251 -7.15,7.251c-4.875,0 -7.1,-2.9 -7.1,-7.225" style="fill-rule:nonzero;"/><path d="M61.347,7.4l0,10.225l-4.024,0l0,-17.3l4.299,0l6.501,10.45l0,-10.45l4.025,0l0,17.3l-4.126,0l-6.675,-10.225Z" style="fill-rule:nonzero;"/><path d="M80.422,10l3.05,0l-1.525,-4.375l-1.525,4.375Zm4.251,3.499l-5.45,0l-1.426,4.126l-4.099,0l6.05,-17.3l4.4,0l6.4,17.3l-4.426,0l-1.449,-4.126Z" style="fill-rule:nonzero;"/><path d="M96.948,4.225l0,13.4l-4.175,0l0,-13.4l-2.9,0l0,-3.9l9.95,0l0,3.9l-2.875,0Z" style="fill-rule:nonzero;"/><path d="M102.224,17.624l0,-17.299l8.199,0l0,3.9l-4.024,0l0,2.675l3.899,0l0,3.849l-3.899,0l0,2.977l4.099,0l0,3.898l-8.274,0Z" style="fill-rule:nonzero;"/><path d="M127.699,15.7c-1.476,1.399 -3.326,2.25 -5.75,2.25c-5.75,0 -9.201,-3.9 -9.201,-8.95c0,-5 3.601,-9 9.126,-9c2.625,0 4.475,0.85 5.85,2.05l-2.475,3.15c-0.625,-0.575 -1.776,-1.301 -3.325,-1.301c-3.076,0 -4.8,2.251 -4.8,5.076c0,2.85 1.924,5.075 4.825,5.075c1.45,0 2.55,-0.651 3.3,-1.3l2.45,2.95Z" style="fill-rule:nonzero;"/><path d="M144,17.624l-4.175,0l0,-6.824l-6,0l0,6.824l-4.176,0l0,-17.299l4.176,0l0,6.5l6,0l0,-6.5l4.175,0l0,17.299Z" style="fill-rule:nonzero;"/></g></svg>