<?xml version="1.0" encoding="UTF-8" standalone="no"?><!DOCTYPE svg PUBLIC "-//W3C//DTD SVG 1.1//EN" "http://www.w3.org/Graphics/SVG/1.1/DTD/svg11.dtd"><svg width="100%" height="100%" viewBox="0 0 486 285" version="1.1" xmlns="http://www.w3.org/2000/svg" xmlns:xlink="http://www.w3.org/1999/xlink" xml:space="preserve" style="fill-rule:evenodd;clip-rule:evenodd;stroke-miterlimit:11.4737;"><rect id="Plan-de-travail1" x="0" y="0" width="486.709" height="285.997" style="fill:none;"/><clipPath id="_clip1"><rect x="0" y="0" width="486.709" height="285.997"/></clipPath><g clip-path="url(#_clip1)"><g><g><clipPath id="_clip2"><rect x="-8.395" y="-0.752" width="495.703" height="286.749"/></clipPath><g clip-path="url(#_clip2)"><rect x="-7.644" y="0" width="494.576" height="164.984" style="fill:#fff;fill-rule:nonzero;"/><rect x="-7.644" y="164.984" width="22.925" height="120.637" style="fill:#fff;fill-rule:nonzero;"/><rect x="392.602" y="174.755" width="94.33" height="7.892" style="fill:#fff;fill-rule:nonzero;"/><rect x="15.281" y="182.647" width="471.651" height="43.219" style="fill:#fff;fill-rule:nonzero;"/><rect x="392.602" y="225.866" width="94.33" height="15.033" style="fill:#fff;fill-rule:nonzero;"/><rect x="15.281" y="240.899" width="471.651" height="44.722" style="fill:#fff;fill-rule:nonzero;"/><rect x="14.905" y="164.608" width="472.027" height="10.147" style="fill:#f00;fill-rule:nonzero;"/><rect x="14.905" y="174.379" width="377.697" height="8.268" style="fill:#f00;fill-rule:nonzero;"/><rect x="14.905" y="225.491" width="377.697" height="15.409" style="fill:#d9d9d9;fill-rule:nonzero;"/><path d="M15.093,7.516l0,270.213m94.33,-205.196l0,92.451m0,17.287l0,43.595m0,14.657l0,27.435m94.331,-195.425l0,73.66m0,36.078l0,43.595m0,14.657l0,27.435m94.33,-195.425l0,92.451m0,17.287l0,43.595m0,14.657l0,27.435m-283.179,-176.446l377.697,0m-377.697,30.065l377.697,0m-283.366,24.428l283.366,0m-0.188,-73.472l0,92.451m-377.509,17.475l377.697,0m-377.697,24.429l377.697,0m-377.697,18.79l377.697,0m-377.697,15.033l377.697,0m-377.697,27.059l377.697,0m-0.188,-93.391l0,103.35m-377.509,-270.025l472.027,0m-472.027,23.677l472.027,0m-472.027,9.771l472.027,0m-472.027,31.569l472.027,0m-472.027,92.075l472.027,0m-0.188,-157.28l0,157.468m-94.518,9.583l94.706,0m-472.027,102.974l472.027,0m-0.188,-103.162l0,103.35" style="fill:none;stroke:#000;stroke-width:0.38px;"/><text x="51.735px" y="5.729px" style="font-family:'Arial-BoldMT', 'Arial', sans-serif;font-weight:700;font-size:4.886px;">Bananas</text><text x="147.945px" y="5.729px" style="font-family:'Arial-BoldMT', 'Arial', sans-serif;font-weight:700;font-size:4.886px;">Lenses</text><text x="238.517px" y="5.729px" style="font-family:'Arial-BoldMT', 'Arial', sans-serif;font-weight:700;font-size:4.886px;">Envelopes</text><text x="330.592px" y="5.729px" style="font-family:'Arial-BoldMT', 'Arial', sans-serif;font-weight:700;font-size:4.886px;">Barbed Wire</text><text x="427.553px" y="5.729px" style="font-family:'Arial-BoldMT', 'Arial', sans-serif;font-weight:700;font-size:4.886px;">Workshop</text><text x="3.999px" y="13.226px" style="font-family:'Arial-BoldMT', 'Arial', sans-serif;font-weight:700;font-size:4.886px;">8:00</text><text x="209.955px" y="21.82px" style="font-family:'ArialMT', 'Arial', sans-serif;font-size:6.84px;">Registration / Meet&apos;n Greet</text><text x="3.999px" y="36.903px" style="font-family:'Arial-BoldMT', 'Arial', sans-serif;font-weight:700;font-size:4.886px;">8:50</text><text x="208.827px" y="38.764px" style="font-family:'ArialMT', 'Arial', sans-serif;font-size:6.84px;fill:#f00;">Le mot de l&apos;orga - Foreword</text><text x="3.999px" y="46.674px" style="font-family:'Arial-BoldMT', 'Arial', sans-serif;font-weight:700;font-size:4.886px;">9:00</text><g transform="matrix(1,0,0,1,-58.0437,-54)"><text x="264.616px" y="109.268px" style="font-family:'ArialMT', 'Arial', sans-serif;font-size:6.84px;">Beyond eventual consistency</text><text x="284.91px" y="117.127px" style="font-family:'ArialMT', 'Arial', sans-serif;font-size:6.84px;fill:#f00;">Jamie A<tspan x="309.618px " y="117.127px ">l</tspan>len</text></g><g transform="matrix(1,0,0,1,-58.0437,-54)"><text x="59.326px" y="132.243px" style="font-family:'Arial-BoldMT', 'Arial', sans-serif;font-weight:700;font-size:4.886px;">10:00</text><text x="74.452px" y="132.243px" style="font-family:'ArialMT', 'Arial', sans-serif;font-size:4.886px;">The Making of an IO</text><text x="74.452px" y="137.861px" style="font-family:'ArialMT', 'Arial', sans-serif;font-size:4.886px;fill:#f00;">Daniel Spiewak</text></g><g transform="matrix(1,0,0,1,-58.0437,-54)"><text x="168.783px" y="132.243px" style="font-family:'ArialMT', 'Arial', sans-serif;font-size:4.886px;fill:#f00;">Kleisli, un ami qui vous veut du bien</text><text x="168.783px" y="137.861px" style="font-family:'ArialMT', 'Arial', sans-serif;font-size:4.886px;">Xavier Bucchiotty,<tspan x="207.884px " y="137.861px "> </tspan>Tr<tspan x="213.853px " y="137.861px ">i</tspan>stan Sallé</text></g><g transform="matrix(1,0,0,1,-58.0437,-54)"><text x="263.113px" y="132.243px" style="font-family:'ArialMT', 'Arial', sans-serif;font-size:4.886px;">Au secours, toute mon équipe s&apos;est mise</text><text x="263.113px" y="137.861px" style="font-family:'ArialMT', 'Arial', sans-serif;font-size:4.886px;">à coder en Rust</text><text x="263.113px" y="143.479px" style="font-family:'ArialMT', 'Arial', sans-serif;font-size:4.886px;fill:#f00;">Clément Delafargue</text></g><g transform="matrix(1,0,0,1,-58.0437,-54)"><text x="357.443px" y="132.243px" style="font-family:'ArialMT', 'Arial', sans-serif;font-size:4.886px;">Domain Invariants &amp; Property-Based</text><text x="357.443px" y="137.861px" style="font-family:'ArialMT', 'Arial', sans-serif;font-size:4.886px;">Te<tspan x="363.144px " y="137.861px ">s</tspan>ting for the Masses</text><text x="357.443px" y="143.479px" style="font-family:'ArialMT', 'Arial', sans-serif;font-size:4.886px;fill:#f00;">Romeu Moura</text></g><g transform="matrix(1,0,0,1,-58.0437,-54)"><text x="451.773px" y="171.704px" style="font-family:'ArialMT', 'Arial', sans-serif;font-size:4.886px;">Lagom Microservice Workshop</text><text x="451.773px" y="177.322px" style="font-family:'ArialMT', 'Arial', sans-serif;font-size:4.886px;fill:#f00;">Lutz Huehnken</text></g><g transform="matrix(1,0,0,1,-58.0437,-54)"><text x="59.326px" y="151.034px" style="font-family:'Arial-BoldMT', 'Arial', sans-serif;font-weight:700;font-size:4.886px;">11<tspan x="64.76px " y="151.034px ">:</tspan>00</text><text x="74.452px" y="151.034px" style="font-family:'ArialMT', 'Arial', sans-serif;font-size:4.886px;">The Design of the Scalaz 8 Effect System</text><text x="74.452px" y="156.652px" style="font-family:'ArialMT', 'Arial', sans-serif;font-size:4.886px;fill:#f00;">John A<tspan x="89.663px 91.02px " y="156.652px 156.652px "> D</tspan>e Goes</text></g><g transform="matrix(1,0,0,1,-58.0437,-54)"><text x="168.783px" y="151.034px" style="font-family:'ArialMT', 'Arial', sans-serif;font-size:4.886px;">Free monad or tagless ﬁnal? How not to</text><text x="168.783px" y="156.652px" style="font-family:'ArialMT', 'Arial', sans-serif;font-size:4.886px;">commit to a monad too early.</text><text x="168.783px" y="162.27px" style="font-family:'ArialMT', 'Arial', sans-serif;font-size:4.886px;fill:#f00;">Adam Wa<tspan x="190.231px " y="162.27px ">r</tspan>ski</text></g><g transform="matrix(1,0,0,1,-58.0437,-54)"><text x="263.113px" y="151.034px" style="font-family:'ArialMT', 'Arial', sans-serif;font-size:4.886px;">What Referential Tr<tspan x="305.468px " y="151.034px ">a</tspan>nsparency can do for</text><text x="263.113px" y="156.652px" style="font-family:'ArialMT', 'Arial', sans-serif;font-size:4.886px;">you</text><text x="263.113px" y="162.27px" style="font-family:'ArialMT', 'Arial', sans-serif;font-size:4.886px;fill:#f00;">Luka Jacobowit</text></g><g transform="matrix(1,0,0,1,-58.0437,-54)"><text x="357.443px" y="151.034px" style="font-family:'ArialMT', 'Arial', sans-serif;font-size:4.886px;">Refactoring vers un style plus fonctionnel</text><text x="357.443px" y="156.652px" style="font-family:'ArialMT', 'Arial', sans-serif;font-size:4.886px;">en F#</text><text x="357.443px" y="162.27px" style="font-family:'ArialMT', 'Arial', sans-serif;font-size:4.886px;fill:#f00;">Clément Bouillier</text></g><g transform="matrix(1,0,0,1,-58.0437,-54)"><text x="59.326px" y="181.099px" style="font-family:'Arial-BoldMT', 'Arial', sans-serif;font-weight:700;font-size:4.886px;">12:00</text><text x="74.452px" y="181.099px" style="font-family:'ArialMT', 'Arial', sans-serif;font-size:4.886px;">Going bananas with recursion schemes</text><text x="74.452px" y="186.717px" style="font-family:'ArialMT', 'Arial', sans-serif;font-size:4.886px;">for ﬁxed point data types</text><text x="74.452px" y="192.335px" style="font-family:'ArialMT', 'Arial', sans-serif;font-size:4.886px;fill:#f00;">Pawel Szulc</text></g><g transform="matrix(1,0,0,1,-58.0437,-54)"><text x="168.783px" y="181.099px" style="font-family:'ArialMT', 'Arial', sans-serif;font-size:4.886px;">Freestyle: A<tspan x="194.847px 196.205px " y="181.099px 181.099px "> f</tspan>ramework for pure functional</text><text x="168.783px" y="186.717px" style="font-family:'ArialMT', 'Arial', sans-serif;font-size:4.886px;">apps, libs and microservices in Scala</text><text x="168.783px" y="192.335px" style="font-family:'ArialMT', 'Arial', sans-serif;font-size:4.886px;fill:#f00;">Raúl Raja Martínez</text></g><g transform="matrix(1,0,0,1,-58.0437,-54)"><text x="263.113px" y="181.099px" style="font-family:'ArialMT', 'Arial', sans-serif;font-size:4.886px;">Editing Tr<tspan x="284.02px " y="181.099px ">e</tspan>es with Zippers</text><text x="263.113px" y="186.717px" style="font-family:'ArialMT', 'Arial', sans-serif;font-size:4.886px;fill:#f00;">Ratan Sebastian</text></g><g transform="matrix(1,0,0,1,-58.0437,-54)"><text x="357.443px" y="181.099px" style="font-family:'ArialMT', 'Arial', sans-serif;font-size:4.886px;">Scala Native: le mariage entre la</text><text x="357.443px" y="186.717px" style="font-family:'ArialMT', 'Arial', sans-serif;font-size:4.886px;">performance du natif et le confort du</text><text x="357.443px" y="192.335px" style="font-family:'ArialMT', 'Arial', sans-serif;font-size:4.886px;">fonctionnel en Scala</text><text x="357.443px" y="197.953px" style="font-family:'ArialMT', 'Arial', sans-serif;font-size:4.886px;fill:#f00;">Antoine Gourlay</text></g><text x="1.282px" y="151.527px" style="font-family:'Arial-BoldMT', 'Arial', sans-serif;font-weight:700;font-size:4.886px;">12:30</text><g transform="matrix(1,0,0,1,-58.0437,-54)"><text x="357.443px" y="205.527px" style="font-family:'ArialMT', 'Arial', sans-serif;font-size:4.886px;">The Path to Generic Endpoints using</text><text x="357.443px" y="211.145px" style="font-family:'ArialMT', 'Arial', sans-serif;font-size:4.886px;">Shapeless</text><text x="357.443px" y="216.763px" style="font-family:'ArialMT', 'Arial', sans-serif;font-size:4.886px;fill:#f00;">Maria Livia Chiorean</text></g><text x="1.282px" y="170.318px" style="font-family:'Arial-BoldMT', 'Arial', sans-serif;font-weight:700;font-size:4.886px;">13:00</text><text x="224.612px" y="172.147px" style="font-family:'ArialMT', 'Arial', sans-serif;font-size:6.84px;">Déjeuner / Lunch</text><text x="1.282px" y="180.089px" style="font-family:'Arial-BoldMT', 'Arial', sans-serif;font-weight:700;font-size:4.886px;">14:00</text><g transform="matrix(1,0,0,1,-58.0437,-54)"><text x="451.773px" y="278.812px" style="font-family:'ArialMT', 'Arial', sans-serif;font-size:4.886px;">Scala Center FLOSS Spree</text><text x="451.773px" y="284.43px" style="font-family:'ArialMT', 'Arial', sans-serif;font-size:4.886px;">Julien Richard-Foy <tspan x="502.52px " y="284.43px ">/</tspan></text></g><g transform="matrix(1,0,0,1,-58.0437,-54)"><text x="59.326px" y="241.982px" style="font-family:'Arial-BoldMT', 'Arial', sans-serif;font-weight:700;font-size:4.886px;">14:30</text><text x="74.452px" y="247.619px" style="font-family:'ArialMT', 'Arial', sans-serif;font-size:4.886px;">Working efﬁciently with immutability</text><text x="74.452px" y="253.237px" style="font-family:'ArialMT', 'Arial', sans-serif;font-size:4.886px;fill:#f00;">Marcin Matuszak</text></g><g transform="matrix(1,0,0,1,-58.0437,-54)"><text x="168.783px" y="241.982px" style="font-family:'ArialMT', 'Arial', sans-serif;font-size:4.886px;">10 choses que ressent un développeur</text><text x="168.783px" y="247.6px" style="font-family:'ArialMT', 'Arial', sans-serif;font-size:4.886px;">Scala qui revient à Java, la 8è va vous</text><text x="168.783px" y="253.218px" style="font-family:'ArialMT', 'Arial', sans-serif;font-size:4.886px;">étonner!</text><text x="168.783px" y="258.836px" style="font-family:'ArialMT', 'Arial', sans-serif;font-size:4.886px;fill:#f00;">Brice Leporini</text></g><g transform="matrix(1,0,0,1,-58.0437,-54)"><text x="263.113px" y="247.619px" style="font-family:'ArialMT', 'Arial', sans-serif;font-size:4.886px;">Case classes ate my RAM</text><text x="263.113px" y="253.237px" style="font-family:'ArialMT', 'Arial', sans-serif;font-size:4.886px;fill:#f00;">Roman Grebennikov</text></g><g transform="matrix(1,0,0,1,-58.0437,-54)"><text x="357.443px" y="241.982px" style="font-family:'ArialMT', 'Arial', sans-serif;font-size:4.886px;">Comment louper la création d&apos;un SI réactif</text><text x="357.443px" y="247.6px" style="font-family:'ArialMT', 'Arial', sans-serif;font-size:4.886px;">? - Retour d&apos;expérience MNT</text><text x="357.443px" y="253.218px" style="font-family:'ArialMT', 'Arial', sans-serif;font-size:4.886px;fill:#f00;">Jérôme Duchemin, Jocelyn De Giovanni</text></g><g transform="matrix(1,0,0,1,-58.0437,-54)"><text x="59.326px" y="266.41px" style="font-family:'Arial-BoldMT', 'Arial', sans-serif;font-weight:700;font-size:4.886px;">15:30</text><text x="74.452px" y="266.41px" style="font-family:'ArialMT', 'Arial', sans-serif;font-size:4.886px;">Composable event sourcing with monads</text><text x="74.452px" y="272.028px" style="font-family:'ArialMT', 'Arial', sans-serif;font-size:4.886px;fill:#f00;">Daniel Krzywicki, Étienne Va<tspan x="136.634px " y="272.028px ">l</tspan>lette d&apos;Osia</text></g><g transform="matrix(1,0,0,1,-58.0437,-54)"><text x="168.783px" y="266.41px" style="font-family:'ArialMT', 'Arial', sans-serif;font-size:4.886px;">A <tspan x="173.399px " y="266.41px ">p</tspan>ractical introduction to Category</text><text x="168.783px" y="272.028px" style="font-family:'ArialMT', 'Arial', sans-serif;font-size:4.886px;">Theory</text><text x="168.783px" y="277.646px" style="font-family:'ArialMT', 'Arial', sans-serif;font-size:4.886px;fill:#f00;">Daniela Sfregola</text></g><g transform="matrix(1,0,0,1,-58.0437,-54)"><text x="263.113px" y="266.468px" style="font-family:'ArialMT', 'Arial', sans-serif;font-size:4.886px;">Survivre dans un monde débordant</text><text x="263.113px" y="272.086px" style="font-family:'ArialMT', 'Arial', sans-serif;font-size:4.886px;">d&apos;effets</text><text x="263.113px" y="277.704px" style="font-family:'ArialMT', 'Arial', sans-serif;font-size:4.886px;fill:#f00;">Benoit Lemoine</text></g><g transform="matrix(1,0,0,1,-58.0437,-54)"><text x="357.443px" y="266.41px" style="font-family:'ArialMT', 'Arial', sans-serif;font-size:4.886px;">Owasp To<tspan x="379.707px " y="266.41px ">p</tspan>10 pour les developpeurs</text><text x="357.443px" y="272.028px" style="font-family:'ArialMT', 'Arial', sans-serif;font-size:4.886px;">scala</text><text x="357.443px" y="277.646px" style="font-family:'ArialMT', 'Arial', sans-serif;font-size:4.886px;fill:#f00;">Sebastien Gioria</text></g><text x="1.282px" y="231.201px" style="font-family:'Arial-BoldMT', 'Arial', sans-serif;font-weight:700;font-size:4.886px;">16:15</text><text x="188.157px" y="234.959px" style="font-family:'ArialMT', 'Arial', sans-serif;font-size:4.886px;fill:#434343;">Pause / Break</text><g transform="matrix(1,0,0,1,-58.0437,-54)"><text x="59.326px" y="300.233px" style="font-family:'Arial-BoldMT', 'Arial', sans-serif;font-weight:700;font-size:4.886px;">16:45</text><text x="74.452px" y="306.998px" style="font-family:'ArialMT', 'Arial', sans-serif;font-size:4.886px;">Next generation Scala builds with CBT</text><text x="74.452px" y="312.616px" style="font-family:'ArialMT', 'Arial', sans-serif;font-size:4.886px;fill:#f00;">Jan Christopher Vo<tspan x="116.274px " y="312.616px ">g</tspan>t</text></g><g transform="matrix(1,0,0,1,-58.0437,-54)"><text x="168.783px" y="304.367px" style="font-family:'ArialMT', 'Arial', sans-serif;font-size:4.886px;">Implementer une base de données en</text><text x="168.783px" y="309.985px" style="font-family:'ArialMT', 'Arial', sans-serif;font-size:4.886px;">Haskell</text><text x="168.783px" y="315.603px" style="font-family:'ArialMT', 'Arial', sans-serif;font-size:4.886px;fill:#f00;">Yo<tspan x="174.758px " y="315.603px ">r</tspan>ick Laupa</text></g><g transform="matrix(1,0,0,1,-58.0437,-54)"><text x="263.113px" y="304.367px" style="font-family:'ArialMT', 'Arial', sans-serif;font-size:4.886px;">Ti<tspan x="267.182px " y="304.367px ">m</tspan>e Series Jobs Scheduling at Criteo</text><text x="263.113px" y="309.985px" style="font-family:'ArialMT', 'Arial', sans-serif;font-size:4.886px;">With Cuttle</text><text x="263.113px" y="315.603px" style="font-family:'ArialMT', 'Arial', sans-serif;font-size:4.886px;fill:#f00;">Guillaume Bort</text></g><g transform="matrix(1,0,0,1,-58.0437,-54)"><text x="357.443px" y="304.367px" style="font-family:'ArialMT', 'Arial', sans-serif;font-size:4.886px;">Refactoring fonctionnel, comment s’y</text><text x="357.443px" y="309.985px" style="font-family:'ArialMT', 'Arial', sans-serif;font-size:4.886px;">prendre ?</text><text x="357.443px" y="315.603px" style="font-family:'ArialMT', 'Arial', sans-serif;font-size:4.886px;fill:#f00;">Loïc Knuchel</text></g><text x="1.282px" y="275.566px" style="font-family:'Arial-BoldMT', 'Arial', sans-serif;font-weight:700;font-size:4.886px;">17:30</text><text x="190.412px" y="275.153px" style="font-family:'Arial-BoldMT', 'Arial', sans-serif;font-weight:700;font-size:6.84px;fill:#f00;">The end</text><text x="1.282px" y="283.459px" style="font-family:'Arial-BoldMT', 'Arial', sans-serif;font-weight:700;font-size:4.886px;">18:00</text></g></g></g></g></svg>