<?xml version="1.0" encoding="UTF-8" standalone="no"?><!DOCTYPE svg PUBLIC "-//W3C//DTD SVG 1.1//EN" "http://www.w3.org/Graphics/SVG/1.1/DTD/svg11.dtd"><svg width="100%" height="100%" viewBox="0 0 444 310" version="1.1" xmlns="http://www.w3.org/2000/svg" xmlns:xlink="http://www.w3.org/1999/xlink" xml:space="preserve" style="fill-rule:evenodd;clip-rule:evenodd;stroke-miterlimit:11.4737;"><rect id="Plan-de-travail1" x="0" y="0" width="444.307" height="310.054" style="fill:none;"/><clipPath id="_clip1"><rect x="0" y="0" width="444.307" height="310.054"/></clipPath><g clip-path="url(#_clip1)"><g><rect x="-8.584" y="0.159" width="452.904" height="158.309" style="fill:#fff;fill-rule:nonzero;"/><rect x="-8.584" y="158.468" width="20.993" height="151.426" style="fill:#fff;fill-rule:nonzero;"/><rect x="12.409" y="167.416" width="345.527" height="103.933" style="fill:#fff;fill-rule:nonzero;"/><rect x="357.936" y="224.201" width="86.382" height="24.779" style="fill:#fff;fill-rule:nonzero;"/><rect x="357.936" y="248.98" width="86.382" height="22.37" style="fill:#fff;fill-rule:nonzero;"/><rect x="357.936" y="271.35" width="86.382" height="7.227" style="fill:#fff;fill-rule:nonzero;"/><rect x="12.409" y="278.577" width="431.909" height="31.318" style="fill:#fff;fill-rule:nonzero;"/><rect x="12.065" y="158.124" width="432.253" height="9.292" style="fill:#f00;fill-rule:nonzero;"/><rect x="357.592" y="167.072" width="86.726" height="57.129" style="fill:#fff;fill-rule:nonzero;"/><rect x="12.065" y="271.006" width="345.871" height="7.571" style="fill:#d9d9d9;fill-rule:nonzero;"/><path d="M12.237,7.042l0,302.853m86.382,-243.315l0,91.888m0,8.604l0,104.278m0,6.883l0,22.714m86.381,-234.367l0,91.888m0,8.604l0,104.278m0,6.883l0,22.714m86.382,-234.367l0,91.888m0,8.604l0,104.278m0,6.883l0,22.714m-259.317,-203.565l345.871,0m-345.871,30.973l345.871,0m-0.172,-61.775l0,91.888m-259.317,8.776l259.489,0m-345.871,17.208l345.871,0m-345.871,17.207l345.871,0m-345.871,47.149l345.871,0m-345.871,22.37l345.871,0m-345.871,7.227l345.871,0m-0.172,-111.333l0,133.875m-345.699,-293.733l432.253,0m-432.253,21.682l432.253,0m-432.253,8.948l432.253,0m-432.253,28.908l432.253,0m-0.172,-59.71l0,151.426m-432.081,65.561l432.253,0m-432.253,76.746l432.253,0m-432.253,8.948l432.253,0m-0.172,-142.651l0,142.823" style="fill:none;stroke:#000;stroke-width:0.34px;"/><text x="45.792px" y="5.406px" style="font-family:'Arial-BoldMT', 'Arial', sans-serif;font-weight:700;font-size:4.474px;">Bananas</text><text x="133.894px" y="5.406px" style="font-family:'Arial-BoldMT', 'Arial', sans-serif;font-weight:700;font-size:4.474px;">Lenses</text><text x="216.834px" y="5.406px" style="font-family:'Arial-BoldMT', 'Arial', sans-serif;font-weight:700;font-size:4.474px;">Envelopes</text><text x="301.151px" y="5.406px" style="font-family:'Arial-BoldMT', 'Arial', sans-serif;font-weight:700;font-size:4.474px;">Barbed Wire</text><text x="389.942px" y="5.406px" style="font-family:'Arial-BoldMT', 'Arial', sans-serif;font-weight:700;font-size:4.474px;">Workshop</text><text x="2.078px" y="12.271px" style="font-family:'Arial-BoldMT', 'Arial', sans-serif;font-weight:700;font-size:4.474px;">8:00</text><text x="190.679px" y="20.141px" style="font-family:'ArialMT', 'Arial', sans-serif;font-size:6.264px;">Registration / Meet&apos;n Greet</text><text x="2.078px" y="33.953px" style="font-family:'Arial-BoldMT', 'Arial', sans-serif;font-weight:700;font-size:4.474px;">8:50</text><text x="189.647px" y="35.657px" style="font-family:'ArialMT', 'Arial', sans-serif;font-size:6.264px;fill:#f00;">Le mot de l&apos;orga - Foreword</text><text x="2.078px" y="42.901px" style="font-family:'Arial-BoldMT', 'Arial', sans-serif;font-weight:700;font-size:4.474px;">9:00</text><g transform="matrix(1,0,0,1,-58.9841,-53.8407)"><text x="256.202px" y="104.611px" style="font-family:'ArialMT', 'Arial', sans-serif;font-size:6.264px;">Stream A<tspan x="282.308px " y="104.611px ">l</tspan>l the T<tspan x="301.105px " y="104.611px ">h</tspan>ings!</text><text x="260.676px" y="111.808px" style="font-family:'ArialMT', 'Arial', sans-serif;font-size:6.264px;fill:#f00;">Dean Wa<tspan x="286.785px " y="111.808px ">m</tspan>pler</text></g><g transform="matrix(1,0,0,1,-58.9841,-53.8407)"><text x="58.574px" y="125.65px" style="font-family:'Arial-BoldMT', 'Arial', sans-serif;font-weight:700;font-size:4.474px;">10:00</text><text x="72.426px" y="125.65px" style="font-family:'ArialMT', 'Arial', sans-serif;font-size:4.474px;">A <tspan x="76.653px " y="125.65px ">C</tspan>rash Course in Category Theory</text><text x="72.426px" y="130.795px" style="font-family:'ArialMT', 'Arial', sans-serif;font-size:4.474px;fill:#f00;">Bartosz Milewski</text></g><g transform="matrix(1,0,0,1,-58.9841,-53.8407)"><text x="158.807px" y="125.65px" style="font-family:'ArialMT', 'Arial', sans-serif;font-size:4.474px;">Introduction à A<tspan x="190.145px " y="125.65px ">k</tspan>ka Stream</text><text x="158.807px" y="130.795px" style="font-family:'ArialMT', 'Arial', sans-serif;font-size:4.474px;fill:#f00;">Marc Karassev</text></g><g transform="matrix(1,0,0,1,-58.9841,-53.8407)"><text x="245.189px" y="125.65px" style="font-family:'ArialMT', 'Arial', sans-serif;font-size:4.474px;">Compiling like a boss!</text><text x="245.189px" y="130.795px" style="font-family:'ArialMT', 'Arial', sans-serif;font-size:4.474px;fill:#f00;">Mirco Dotta, Iulian Dragos</text></g><g transform="matrix(1,0,0,1,-58.9841,-53.8407)"><text x="331.571px" y="125.65px" style="font-family:'ArialMT', 'Arial', sans-serif;font-size:4.474px;">Mon application en scala de la tête aux</text><text x="331.571px" y="130.795px" style="font-family:'ArialMT', 'Arial', sans-serif;font-size:4.474px;">pieds</text><text x="331.571px" y="135.939px" style="font-family:'ArialMT', 'Arial', sans-serif;font-size:4.474px;fill:#f00;">François Laroche, Charley Pestoury</text></g><g transform="matrix(1,0,0,1,-58.9841,-53.8407)"><text x="417.953px" y="162.818px" style="font-family:'ArialMT', 'Arial', sans-serif;font-size:4.474px;">Fight the Systemic Issues why your Code</text><text x="417.953px" y="167.963px" style="font-family:'ArialMT', 'Arial', sans-serif;font-size:4.474px;">is Sad</text><text x="417.953px" y="173.107px" style="font-family:'ArialMT', 'Arial', sans-serif;font-size:4.474px;fill:#f00;">Romeu Moura</text></g><g transform="matrix(1,0,0,1,-58.9841,-53.8407)"><text x="58.574px" y="156.279px" style="font-family:'Arial-BoldMT', 'Arial', sans-serif;font-weight:700;font-size:4.474px;">11<tspan x="63.55px " y="156.279px ">:</tspan>00</text><text x="72.426px" y="156.279px" style="font-family:'ArialMT', 'Arial', sans-serif;font-size:4.474px;">Scala for Java Developers</text><text x="72.426px" y="161.424px" style="font-family:'ArialMT', 'Arial', sans-serif;font-size:4.474px;fill:#f00;">Magnus Härlin</text></g><g transform="matrix(1,0,0,1,-58.9841,-53.8407)"><text x="158.807px" y="156.279px" style="font-family:'ArialMT', 'Arial', sans-serif;font-size:4.474px;">Monix : Une alternative à A<tspan x="212.521px " y="156.279px ">k</tspan>ka-Streams ?</text><text x="158.807px" y="161.424px" style="font-family:'ArialMT', 'Arial', sans-serif;font-size:4.474px;fill:#f00;">Bounkong Khamphousone</text></g><g transform="matrix(1,0,0,1,-58.9841,-53.8407)"><text x="245.189px" y="156.279px" style="font-family:'ArialMT', 'Arial', sans-serif;font-size:4.474px;">Déduction automatique d&apos;instance de type</text><text x="245.189px" y="161.424px" style="font-family:'ArialMT', 'Arial', sans-serif;font-size:4.474px;">classes avec shapeless</text><text x="245.189px" y="166.569px" style="font-family:'ArialMT', 'Arial', sans-serif;font-size:4.474px;fill:#f00;">Etienne Couritas</text></g><g transform="matrix(1,0,0,1,-58.9841,-53.8407)"><text x="331.571px" y="156.279px" style="font-family:'ArialMT', 'Arial', sans-serif;font-size:4.474px;">Full stack Scala</text><text x="331.571px" y="161.424px" style="font-family:'ArialMT', 'Arial', sans-serif;font-size:4.474px;fill:#f00;">Tr<tspan x="335.794px " y="161.424px ">o</tspan>nd Bjerkestrand</text></g><g transform="matrix(1,0,0,1,-58.9841,-53.8407)"><text x="58.574px" y="187.253px" style="font-family:'Arial-BoldMT', 'Arial', sans-serif;font-weight:700;font-size:4.474px;">12:00</text><text x="72.426px" y="187.253px" style="font-family:'ArialMT', 'Arial', sans-serif;font-size:4.474px;">Débuter en scala: entre incompréhension</text><text x="72.426px" y="192.398px" style="font-family:'ArialMT', 'Arial', sans-serif;font-size:4.474px;">et for-compréhension</text><text x="72.426px" y="197.542px" style="font-family:'ArialMT', 'Arial', sans-serif;font-size:4.474px;fill:#f00;">Melanie Lavabre</text></g><g transform="matrix(1,0,0,1,-58.9841,-53.8407)"><text x="158.807px" y="187.253px" style="font-family:'ArialMT', 'Arial', sans-serif;font-size:4.474px;">Scala on Wire</text><text x="158.807px" y="192.398px" style="font-family:'ArialMT', 'Arial', sans-serif;font-size:4.474px;fill:#f00;">Maciej Gorywoda</text></g><g transform="matrix(1,0,0,1,-58.9841,-53.8407)"><text x="245.189px" y="187.253px" style="font-family:'ArialMT', 'Arial', sans-serif;font-size:4.474px;">Our 8 years journey with Scala</text><text x="245.189px" y="192.398px" style="font-family:'ArialMT', 'Arial', sans-serif;font-size:4.474px;fill:#f00;">Naoki Ta<tspan x="263.092px " y="192.398px ">k</tspan>ezoe, Ta<tspan x="282.737px " y="192.398px ">k</tspan>ako Shimamoto</text></g><g transform="matrix(1,0,0,1,-58.9841,-53.8407)"><text x="331.571px" y="187.253px" style="font-family:'ArialMT', 'Arial', sans-serif;font-size:4.474px;">Mort au boilerplate avec Scala meta</text><text x="331.571px" y="192.398px" style="font-family:'ArialMT', 'Arial', sans-serif;font-size:4.474px;fill:#f00;">Damien Gouyette</text></g><text x="-0.41px" y="163.353px" style="font-family:'Arial-BoldMT', 'Arial', sans-serif;font-weight:700;font-size:4.474px;">12:20</text><text x="204.101px" y="165.028px" style="font-family:'ArialMT', 'Arial', sans-serif;font-size:6.264px;">Déjeuner / Lunch</text><g transform="matrix(1,0,0,1,-58.9841,-53.8407)"><text x="58.574px" y="226.142px" style="font-family:'Arial-BoldMT', 'Arial', sans-serif;font-weight:700;font-size:4.474px;">13:00</text><text x="72.426px" y="226.142px" style="font-family:'ArialMT', 'Arial', sans-serif;font-size:4.474px;">Quickie: Simpliﬁez la conﬁguration de vos <tspan x="158.807px " y="226.142px ">Q</tspan>uickies : Remote4J : monadic remote</text><text x="72.426px" y="231.287px" style="font-family:'ArialMT', 'Arial', sans-serif;font-size:4.474px;">projets avec PureConﬁg -</text><text x="72.426px" y="236.431px" style="font-family:'ArialMT', 'Arial', sans-serif;font-size:4.474px;fill:#f00;">Jean-Yv<tspan x="88.838px " y="236.431px ">e</tspan>s Besson</text></g><g transform="matrix(1,0,0,1,-58.9841,-53.8407)"><text x="158.807px" y="231.287px" style="font-family:'ArialMT', 'Arial', sans-serif;font-size:4.474px;">invocation for Java</text><text x="158.807px" y="236.431px" style="font-family:'ArialMT', 'Arial', sans-serif;font-size:4.474px;fill:#f00;">Raphael Jolly</text></g><g transform="matrix(1,0,0,1,-58.9841,-53.8407)"><text x="245.189px" y="226.195px" style="font-family:'ArialMT', 'Arial', sans-serif;font-size:4.474px;">Quickies : Un DSL <tspan x="282.982px " y="226.195px ">p</tspan>our ma base de</text><text x="245.189px" y="231.339px" style="font-family:'ArialMT', 'Arial', sans-serif;font-size:4.474px;">données NoSQL</text><text x="245.189px" y="236.484px" style="font-family:'ArialMT', 'Arial', sans-serif;font-size:4.474px;fill:#f00;">Romain Lecomte</text></g><g transform="matrix(1,0,0,1,-58.9841,-53.8407)"><text x="331.571px" y="226.195px" style="font-family:'ArialMT', 'Arial', sans-serif;font-size:4.474px;">Apache Beam et Google DataFlow IRL</text><text x="331.571px" y="231.339px" style="font-family:'ArialMT', 'Arial', sans-serif;font-size:4.474px;">avec Scala Scio</text><text x="331.571px" y="236.484px" style="font-family:'ArialMT', 'Arial', sans-serif;font-size:4.474px;fill:#f00;">Alick Paul</text></g><g transform="matrix(1,0,0,1,-58.9841,-53.8407)"><text x="58.574px" y="243.349px" style="font-family:'Arial-BoldMT', 'Arial', sans-serif;font-weight:700;font-size:4.474px;">13:15</text><text x="72.426px" y="243.349px" style="font-family:'ArialMT', 'Arial', sans-serif;font-size:4.474px;">Quickie: Retour d&apos;expérience, Feedbacks</text><text x="72.426px" y="248.494px" style="font-family:'ArialMT', 'Arial', sans-serif;font-size:4.474px;">ultra rapides avec spark -</text><text x="72.426px" y="253.639px" style="font-family:'ArialMT', 'Arial', sans-serif;font-size:4.474px;fill:#f00;">Jonathan winandy</text></g><g transform="matrix(1,0,0,1,-58.9841,-53.8407)"><text x="158.807px" y="243.349px" style="font-family:'ArialMT', 'Arial', sans-serif;font-size:4.474px;">Quickies : Scale up calm down @</text><text x="158.807px" y="248.494px" style="font-family:'ArialMT', 'Arial', sans-serif;font-size:4.474px;">emarsys - How we build Scala teams</text><text x="158.807px" y="253.639px" style="font-family:'ArialMT', 'Arial', sans-serif;font-size:4.474px;fill:#f00;">Ta<tspan x="164.028px " y="253.639px ">m</tspan>as puski</text></g><g transform="matrix(1,0,0,1,-58.9841,-53.8407)"><text x="245.189px" y="243.402px" style="font-family:'ArialMT', 'Arial', sans-serif;font-size:4.474px;">Quickies : Crack marketing automation</text><text x="245.189px" y="248.547px" style="font-family:'ArialMT', 'Arial', sans-serif;font-size:4.474px;">with Reactive Streams</text><text x="245.189px" y="253.692px" style="font-family:'ArialMT', 'Arial', sans-serif;font-size:4.474px;fill:#f00;">Stefano Bonetti</text></g><g transform="matrix(1,0,0,1,-58.9841,-53.8407)"><text x="331.571px" y="243.402px" style="font-family:'ArialMT', 'Arial', sans-serif;font-size:4.474px;">Reactive-Conﬁg va vous Hoconer.<tspan x="399.458px " y="243.402px ">.</tspan>. so</text><text x="331.571px" y="248.547px" style="font-family:'ArialMT', 'Arial', sans-serif;font-size:4.474px;">Don&apos;t Stop The A<tspan x="365.501px " y="248.547px ">p</tspan>pli \o/</text><text x="331.571px" y="253.692px" style="font-family:'ArialMT', 'Arial', sans-serif;font-size:4.474px;fill:#f00;">Mohamed A<tspan x="355.693px " y="253.692px ">c</tspan>helif</text></g><g transform="matrix(1,0,0,1,-58.9841,-53.8407)"><text x="58.574px" y="260.557px" style="font-family:'Arial-BoldMT', 'Arial', sans-serif;font-weight:700;font-size:4.474px;">13:30</text><text x="72.426px" y="260.557px" style="font-family:'ArialMT', 'Arial', sans-serif;font-size:4.474px;">Hamsters : Une mini lib d&apos;utilitaires Scala,</text><text x="72.426px" y="265.702px" style="font-family:'ArialMT', 'Arial', sans-serif;font-size:4.474px;">compatible avec les débutants en</text><text x="72.426px" y="270.846px" style="font-family:'ArialMT', 'Arial', sans-serif;font-size:4.474px;">programmation fonctionnelle.</text><text x="72.426px" y="275.991px" style="font-family:'ArialMT', 'Arial', sans-serif;font-size:4.474px;fill:#f00;">Loic Descotte, Damien Gouyette</text></g><g transform="matrix(1,0,0,1,-58.9841,-53.8407)"><text x="158.807px" y="265.719px" style="font-family:'ArialMT', 'Arial', sans-serif;font-size:4.474px;">Alpakka project contributor xp</text><text x="158.807px" y="270.864px" style="font-family:'ArialMT', 'Arial', sans-serif;font-size:4.474px;fill:#f00;">Olivier NOUGUIER</text></g><g transform="matrix(1,0,0,1,-58.9841,-53.8407)"><text x="245.189px" y="262.966px" style="font-family:'ArialMT', 'Arial', sans-serif;font-size:4.474px;">From `goto` Statements to Recursion</text><text x="245.189px" y="268.111px" style="font-family:'ArialMT', 'Arial', sans-serif;font-size:4.474px;">Schemes</text><text x="245.189px" y="273.255px" style="font-family:'ArialMT', 'Arial', sans-serif;font-size:4.474px;fill:#f00;">Jean-Rémi Desjardins</text></g><g transform="matrix(1,0,0,1,-58.9841,-53.8407)"><text x="331.571px" y="265.719px" style="font-family:'ArialMT', 'Arial', sans-serif;font-size:4.474px;">7 sins of a Scala beginner</text><text x="331.571px" y="270.864px" style="font-family:'ArialMT', 'Arial', sans-serif;font-size:4.474px;fill:#f00;">Jakub Kozłowski</text></g><g transform="matrix(1,0,0,1,-58.9841,-53.8407)"><text x="58.574px" y="282.927px" style="font-family:'Arial-BoldMT', 'Arial', sans-serif;font-weight:700;font-size:4.474px;">14:00</text><text x="72.426px" y="289.121px" style="font-family:'ArialMT', 'Arial', sans-serif;font-size:4.474px;">Bayes et Bool sont sur un bateau</text><text x="72.426px" y="294.266px" style="font-family:'ArialMT', 'Arial', sans-serif;font-size:4.474px;fill:#f00;">Samy Zarour</text></g><g transform="matrix(1,0,0,1,-58.9841,-53.8407)"><text x="158.807px" y="289.121px" style="font-family:'ArialMT', 'Arial', sans-serif;font-size:4.474px;">The three paths of Scaling with A<tspan x="224.462px " y="289.121px ">k</tspan>ka.</text><text x="158.807px" y="294.266px" style="font-family:'ArialMT', 'Arial', sans-serif;font-size:4.474px;fill:#f00;">Fran Perez</text></g><g transform="matrix(1,0,0,1,-58.9841,-53.8407)"><text x="245.189px" y="289.121px" style="font-family:'ArialMT', 'Arial', sans-serif;font-size:4.474px;">Move fast and ﬁx things</text><text x="245.189px" y="294.266px" style="font-family:'ArialMT', 'Arial', sans-serif;font-size:4.474px;fill:#f00;">Gabrielle Petronella</text></g><g transform="matrix(1,0,0,1,-58.9841,-53.8407)"><text x="331.571px" y="286.712px" style="font-family:'ArialMT', 'Arial', sans-serif;font-size:4.474px;">Let The Compiler Help Y<tspan x="380.557px 383.045px " y="286.712px 286.712px ">ou</tspan>: How To</text><text x="331.571px" y="291.857px" style="font-family:'ArialMT', 'Arial', sans-serif;font-size:4.474px;">Make The Most Of Scala&apos;s T<tspan x="387.869px 390.106px " y="291.857px 291.857px ">yp</tspan>esystem</text><text x="331.571px" y="297.002px" style="font-family:'ArialMT', 'Arial', sans-serif;font-size:4.474px;fill:#f00;">Markus Hauck</text></g><g transform="matrix(1,0,0,1,-58.9841,-53.8407)"><text x="417.953px" y="315.277px" style="font-family:'ArialMT', 'Arial', sans-serif;font-size:4.474px;">Scala Speed Dating</text><text x="417.953px" y="320.421px" style="font-family:'ArialMT', 'Arial', sans-serif;font-size:4.474px;fill:#f00;">Amit A<tspan x="431.128px " y="320.421px ">n</tspan>afy</text></g><g transform="matrix(1,0,0,1,-58.9841,-53.8407)"><text x="58.574px" y="307.706px" style="font-family:'Arial-BoldMT', 'Arial', sans-serif;font-weight:700;font-size:4.474px;">15:00</text><text x="72.426px" y="307.706px" style="font-family:'ArialMT', 'Arial', sans-serif;font-size:4.474px;">Using Monoids for Large Scale Business</text><text x="72.426px" y="312.85px" style="font-family:'ArialMT', 'Arial', sans-serif;font-size:4.474px;">Stats</text><text x="72.426px" y="317.995px" style="font-family:'ArialMT', 'Arial', sans-serif;font-size:4.474px;fill:#f00;">Ashwanth Kumar,<tspan x="107.737px " y="317.995px "> </tspan>Sriram</text><text x="72.426px" y="323.139px" style="font-family:'ArialMT', 'Arial', sans-serif;font-size:4.474px;fill:#f00;">Ramachandrasekaran</text></g><g transform="matrix(1,0,0,1,-58.9841,-53.8407)"><text x="158.807px" y="310.115px" style="font-family:'ArialMT', 'Arial', sans-serif;font-size:4.474px;">Haskell en production en 2017 dans une</text><text x="158.807px" y="315.259px" style="font-family:'ArialMT', 'Arial', sans-serif;font-size:4.474px;">startup ? Yu<tspan x="182.931px " y="315.259px ">p</tspan>.</text><text x="158.807px" y="320.404px" style="font-family:'ArialMT', 'Arial', sans-serif;font-size:4.474px;fill:#f00;">Frédéric Menou, Clément Delafargue</text></g><g transform="matrix(1,0,0,1,-58.9841,-53.8407)"><text x="245.189px" y="310.115px" style="font-family:'ArialMT', 'Arial', sans-serif;font-size:4.474px;">What’s in the next iteration of the standard</text><text x="245.189px" y="315.259px" style="font-family:'ArialMT', 'Arial', sans-serif;font-size:4.474px;">collections?</text><text x="245.189px" y="320.404px" style="font-family:'ArialMT', 'Arial', sans-serif;font-size:4.474px;fill:#f00;">Julien Richard-Foy</text></g><g transform="matrix(1,0,0,1,-58.9841,-53.8407)"><text x="331.571px" y="312.868px" style="font-family:'ArialMT', 'Arial', sans-serif;font-size:4.474px;">Le développement interactif avec Dotty</text><text x="331.571px" y="318.012px" style="font-family:'ArialMT', 'Arial', sans-serif;font-size:4.474px;fill:#f00;">Guillaume Martres</text></g><text x="-0.41px" y="276.235px" style="font-family:'Arial-BoldMT', 'Arial', sans-serif;font-weight:700;font-size:4.474px;">15:45</text><text x="170.718px" y="276.235px" style="font-family:'ArialMT', 'Arial', sans-serif;font-size:4.474px;fill:#434343;">Pause / Break</text><g transform="matrix(1,0,0,1,-58.9841,-53.8407)"><text x="58.574px" y="337.303px" style="font-family:'Arial-BoldMT', 'Arial', sans-serif;font-weight:700;font-size:4.474px;">16:15</text><text x="72.426px" y="337.303px" style="font-family:'ArialMT', 'Arial', sans-serif;font-size:4.474px;">Specs2, from starters to dessert and... a</text><text x="72.426px" y="342.447px" style="font-family:'ArialMT', 'Arial', sans-serif;font-size:4.474px;">look in the kitchen</text><text x="72.426px" y="347.592px" style="font-family:'ArialMT', 'Arial', sans-serif;font-size:4.474px;fill:#f00;">Eric torreborre</text></g><g transform="matrix(1,0,0,1,-58.9841,-53.8407)"><text x="158.807px" y="337.303px" style="font-family:'ArialMT', 'Arial', sans-serif;font-size:4.474px;">What Orwell&apos;s 1984 Can Te<tspan x="213.371px " y="337.303px ">a</tspan>ch Us about</text><text x="158.807px" y="342.447px" style="font-family:'ArialMT', 'Arial', sans-serif;font-size:4.474px;">Programming</text><text x="158.807px" y="347.592px" style="font-family:'ArialMT', 'Arial', sans-serif;font-size:4.474px;fill:#f00;">Daniel Beskin</text></g><g transform="matrix(1,0,0,1,-58.9841,-53.8407)"><text x="245.189px" y="337.303px" style="font-family:'ArialMT', 'Arial', sans-serif;font-size:4.474px;">Principes et outils pour modéliser</text><text x="245.189px" y="342.447px" style="font-family:'ArialMT', 'Arial', sans-serif;font-size:4.474px;">astucieusement vos données en Scala:</text><text x="245.189px" y="347.592px" style="font-family:'ArialMT', 'Arial', sans-serif;font-size:4.474px;">des énumérations aux algèbres libres</text><text x="245.189px" y="352.736px" style="font-family:'ArialMT', 'Arial', sans-serif;font-size:4.474px;fill:#f00;">Christophe Calvès</text></g><g transform="matrix(1,0,0,1,-58.9841,-53.8407)"><text x="331.571px" y="342.465px" style="font-family:'ArialMT', 'Arial', sans-serif;font-size:4.474px;">Impromptu: Dependently-typed A<tspan x="397.223px " y="342.465px ">s</tspan>ync</text><text x="331.571px" y="347.609px" style="font-family:'ArialMT', 'Arial', sans-serif;font-size:4.474px;fill:#f00;">Jon Pretty</text></g><text x="-0.41px" y="307.914px" style="font-family:'Arial-BoldMT', 'Arial', sans-serif;font-weight:700;font-size:4.474px;">19:00</text><text x="200.315px" y="307.536px" style="font-family:'Arial-BoldMT', 'Arial', sans-serif;font-weight:700;font-size:6.264px;fill:#f00;">Community party !</text></g></g></svg>