<?xml version="1.0" encoding="UTF-8"?>
<!DOCTYPE svg PUBLIC "-//W3C//DTD SVG 1.1//EN" "http://www.w3.org/Graphics/SVG/1.1/DTD/svg11.dtd">
<svg version="1.1" xmlns="http://www.w3.org/2000/svg" xmlns:xlink="http://www.w3.org/1999/xlink" x="0" y="0" width="300" height="150" viewBox="0, 0, 300, 150">
  <g id="Layer_1">
    <path d="M214.05,64.45 L207.45,79.55 L207.35,79.55 L205,64.45 L196.9,64.45 L190.7,79.55 L190.6,79.55 L188.45,67.85 L193.3,34.7 C193.3,32.1 191.2,30 188.6,30 L108.15,30 C105.55,30 103.45,32.1 103.45,34.7 L99.45,62.15 L25.5,64.5 L98.75,66.8 L96,85.55 L68.65,87.2 L95.5,88.85 L91.65,115.25 C91.65,117.85 93.75,119.95 96.35,119.95 L176.75,119.95 C179.35,119.95 181.45,117.85 181.45,115.25 L185.35,88.45 L192.75,88.45 L199.4,72.45 L199.5,72.45 L202.25,88.45 L209.55,88.45 L221.45,64.4 L214.05,64.4 z M242.85,67.3 C242.05,66.2 240.95,65.35 239.65,64.75 C238.35,64.15 236.8,63.85 235.1,63.85 C233.25,63.85 231.5,64.15 229.75,64.75 C228.05,65.35 226.5,66.2 225.15,67.3 C223.8,68.4 222.65,69.75 221.75,71.3 C220.85,72.85 220.25,74.6 220,76.5 C219.75,78.4 219.85,80.15 220.3,81.7 C220.8,83.25 221.55,84.6 222.55,85.7 C223.6,86.8 224.9,87.65 226.45,88.25 C228,88.85 229.7,89.15 231.55,89.15 C233.5,89.15 235.45,88.75 237.35,87.9 C239.3,87.1 240.95,85.9 242.3,84.4 L237.65,80.6 C236.9,81.45 236.05,82.15 235.15,82.7 C234.25,83.25 233.2,83.5 231.95,83.5 C230.5,83.5 229.35,83.1 228.45,82.25 C227.6,81.4 227.1,80.3 227,78.85 L244.2,78.85 L244.55,76.5 C244.8,74.6 244.8,72.85 244.5,71.3 C244.2,69.7 243.65,68.4 242.85,67.3 z M237.55,73.75 L227.75,73.75 C227.9,73.15 228.1,72.6 228.45,72.05 C228.8,71.5 229.2,71.05 229.7,70.6 C230.2,70.2 230.75,69.85 231.45,69.6 C232.1,69.35 232.85,69.2 233.65,69.2 C235,69.2 236.05,69.65 236.75,70.55 C237.5,71.4 237.75,72.5 237.55,73.75 z M274.25,71.85 C273.95,70.3 273.45,68.95 272.65,67.75 C271.85,66.55 270.85,65.6 269.6,64.9 C268.35,64.2 266.85,63.85 265.15,63.85 C263.6,63.85 262.15,64.1 260.75,64.55 C259.35,65.05 258.15,65.85 257.1,67 L257,67 L259.25,51.05 L251.85,51.05 L246.65,88.5 L253.45,88.5 L253.85,85.35 L253.95,85.35 C254.2,85.8 254.5,86.2 254.95,86.65 C255.4,87.1 255.9,87.5 256.5,87.85 C257.1,88.2 257.75,88.5 258.5,88.75 C259.2,89 260,89.1 260.85,89.1 C262.65,89.1 264.3,88.8 265.8,88.2 C267.35,87.6 268.7,86.75 269.9,85.65 C271.1,84.55 272.05,83.25 272.85,81.7 C273.6,80.2 274.15,78.5 274.4,76.7 C274.55,75 274.55,73.35 274.25,71.85 z M267,76.45 C266.75,78.25 266,79.75 264.8,80.85 C263.6,81.95 262.05,82.55 260.2,82.55 C258.3,82.55 256.95,82 256.1,80.85 C255.25,79.75 254.9,78.25 255.2,76.45 C255.45,74.65 256.2,73.15 257.35,72.05 C258.55,70.95 260.05,70.35 261.95,70.35 C263.85,70.35 265.2,70.9 266.1,72.05 C266.95,73.2 267.25,74.65 267,76.45 z" fill="#39B7D3"/>
    <path d="M95.2,73.85 L49.45,76.3 L95.2,78.8 z" fill="#39B7D3"/>
    <path d="M105.1,81.4 C104.45,81.75 103.7,81.95 102.9,81.95 C101,81.95 99.65,81.4 98.8,80.25 C97.95,79.15 97.6,77.65 97.9,75.85 C98.15,74.05 98.9,72.55 100.05,71.45 C101.25,70.35 102.75,69.75 104.65,69.75 C105.4,69.75 106.1,69.9 106.7,70.25 C107.3,70.6 107.75,71.05 108.05,71.55 L113.65,66.4 C112.65,65.2 111.4,64.4 109.9,63.9 C108.4,63.4 106.95,63.2 105.55,63.2 C103.7,63.2 101.95,63.5 100.2,64.1 C98.5,64.7 96.95,65.55 95.6,66.65 C94.25,67.75 93.1,69.1 92.2,70.65 C91.3,72.2 90.7,73.95 90.45,75.85 C90.2,77.75 90.3,79.5 90.75,81.05 C91.25,82.6 92,83.95 93,85.05 C94.05,86.15 95.35,87 96.9,87.6 C98.45,88.2 100.15,88.5 102,88.5 C103.4,88.5 104.95,88.25 106.55,87.8 C108.15,87.3 109.65,86.5 111,85.3 L106.85,80.15 C106.35,80.65 105.75,81.05 105.1,81.4 z M136.5,66.5 C135.45,65.4 134.15,64.55 132.6,63.95 C131.05,63.35 129.35,63.05 127.5,63.05 C125.65,63.05 123.9,63.35 122.15,63.95 C120.45,64.55 118.9,65.4 117.55,66.5 C116.2,67.6 115.05,68.95 114.15,70.5 C113.25,72.05 112.65,73.8 112.4,75.7 C112.15,77.6 112.25,79.35 112.7,80.9 C113.2,82.45 113.95,83.8 114.95,84.9 C116,86 117.3,86.85 118.85,87.45 C120.4,88.05 122.1,88.35 123.95,88.35 C125.8,88.35 127.55,88.05 129.3,87.45 C131,86.85 132.55,86 133.9,84.9 C135.25,83.8 136.4,82.45 137.3,80.9 C138.2,79.35 138.8,77.6 139.1,75.7 C139.35,73.8 139.25,72.05 138.8,70.5 C138.3,68.95 137.55,67.6 136.5,66.5 z M131.7,75.7 C131.45,77.5 130.7,79 129.5,80.1 C128.3,81.2 126.75,81.8 124.9,81.8 C123,81.8 121.65,81.25 120.8,80.1 C119.95,79 119.6,77.5 119.9,75.7 C120.15,73.9 120.9,72.4 122.05,71.3 C123.25,70.2 124.75,69.6 126.65,69.6 C128.55,69.6 129.9,70.15 130.8,71.3 C131.65,72.4 132,73.85 131.7,75.7 z M141.9,87.7 L149.3,87.7 L154.55,50.3 L147.1,50.3 z M154.75,87.7 L162.15,87.7 L165.5,63.65 L158.1,63.65 z M167.15,56.1 C167.3,54.9 167.05,53.9 166.35,53.05 C165.65,52.2 164.7,51.8 163.5,51.8 C162.9,51.8 162.35,51.9 161.75,52.15 C161.2,52.4 160.7,52.7 160.25,53.05 C159.8,53.45 159.45,53.9 159.15,54.4 C158.85,54.95 158.65,55.5 158.55,56.1 C158.5,56.7 158.55,57.25 158.65,57.8 C158.8,58.35 159.05,58.8 159.35,59.15 C159.7,59.55 160.1,59.85 160.6,60.05 C161.1,60.3 161.65,60.4 162.25,60.4 C162.85,60.4 163.4,60.3 164,60.05 C164.55,59.8 165.05,59.5 165.5,59.15 C165.95,58.75 166.3,58.3 166.6,57.8 C166.9,57.25 167.05,56.7 167.15,56.1 z M185.1,74.6 C184.25,74.05 183.3,73.7 182.25,73.45 C181.2,73.2 180.25,72.95 179.35,72.75 C178.45,72.55 177.7,72.3 177.15,72 C176.55,71.7 176.3,71.3 176.4,70.7 C176.5,69.95 176.85,69.45 177.5,69.15 C178.15,68.85 178.75,68.7 179.4,68.7 C181.2,68.7 182.55,69.4 183.45,70.75 L188.6,66.25 C187.65,65.05 186.4,64.25 184.85,63.75 C183.3,63.3 181.75,63.05 180.15,63.05 C178.9,63.05 177.65,63.2 176.4,63.5 C175.15,63.8 174,64.3 172.95,64.95 C171.9,65.6 171.05,66.45 170.3,67.45 C169.6,68.45 169.1,69.7 168.9,71.1 C168.65,72.6 168.8,73.85 169.3,74.75 C169.8,75.65 170.5,76.35 171.35,76.85 C172.2,77.35 173.2,77.7 174.2,77.95 C175.25,78.2 176.2,78.45 177.1,78.65 C178,78.85 178.75,79.15 179.3,79.45 C179.9,79.75 180.1,80.25 180,80.85 C179.9,81.5 179.5,81.95 178.75,82.2 C178.05,82.45 177.25,82.55 176.4,82.55 C175.3,82.55 174.35,82.35 173.55,81.9 C172.8,81.45 172.1,80.8 171.5,79.95 L166.3,84.95 C167.3,86.15 168.65,87 170.3,87.5 C171.95,88 173.6,88.2 175.3,88.2 C176.6,88.2 177.9,88.1 179.25,87.85 C180.6,87.6 181.85,87.15 183,86.55 C184.15,85.95 185.1,85.15 185.95,84.1 C186.75,83.1 187.3,81.8 187.5,80.25 C187.7,78.75 187.55,77.5 187.1,76.6 C186.65,75.85 185.95,75.15 185.1,74.6 z M98.6,99.6 L100,92.95 L100.75,92.95 L99.5,98.9 L102.05,98.9 L101.9,99.6 L98.6,99.6 z M103.65,99.6 L102.9,99.6 L103.95,94.6 L104.7,94.6 L103.65,99.6 z M104.2,93.35 C104.2,93.2 104.25,93.05 104.35,92.95 C104.45,92.85 104.55,92.8 104.75,92.8 C105,92.8 105.15,92.95 105.15,93.2 C105.15,93.35 105.1,93.5 105,93.6 C104.9,93.7 104.8,93.75 104.65,93.75 C104.55,93.75 104.45,93.7 104.35,93.65 C104.2,93.6 104.2,93.5 104.2,93.35 z M106,99.6 L105.45,94.6 L106.2,94.6 L106.5,97.4 C106.55,98.2 106.6,98.75 106.6,99.05 L106.65,99.05 C107.05,98.2 107.3,97.65 107.45,97.35 L108.95,94.6 L109.75,94.6 L107.05,99.6 L106,99.6 z M112.7,94.55 C112.9,94.55 113.1,94.55 113.25,94.6 L113.1,95.3 C112.95,95.25 112.8,95.25 112.6,95.25 C112.3,95.25 112.05,95.35 111.85,95.5 C111.6,95.7 111.4,95.95 111.2,96.25 C111,96.55 110.9,96.95 110.8,97.35 L110.3,99.65 L109.55,99.65 L110.6,94.65 L111.25,94.65 L111.15,95.55 L111.2,95.55 C111.4,95.25 111.6,95.05 111.75,94.95 C111.9,94.8 112.05,94.75 112.2,94.65 C112.35,94.55 112.5,94.55 112.7,94.55 z M115.9,94.55 C116.2,94.55 116.45,94.6 116.65,94.8 C116.85,94.95 117.05,95.15 117.15,95.45 L117.2,95.45 L117.5,94.65 L118.1,94.65 L117.05,99.65 L116.45,99.65 L116.55,98.7 L116.5,98.7 C115.95,99.4 115.4,99.75 114.8,99.75 C114.4,99.75 114.05,99.6 113.8,99.3 C113.55,99 113.45,98.6 113.45,98.05 C113.45,97.4 113.55,96.85 113.75,96.3 C113.95,95.75 114.25,95.35 114.65,95.05 C115,94.7 115.45,94.55 115.9,94.55 z M115,99.1 C115.3,99.1 115.6,98.95 115.9,98.7 C116.2,98.4 116.45,98.05 116.6,97.6 C116.8,97.15 116.85,96.7 116.85,96.25 C116.85,95.95 116.75,95.7 116.6,95.5 C116.45,95.3 116.2,95.2 115.95,95.2 C115.65,95.2 115.35,95.35 115.05,95.6 C114.8,95.85 114.55,96.2 114.4,96.65 C114.25,97.1 114.15,97.55 114.15,98.05 C114.15,98.4 114.2,98.65 114.35,98.85 C114.55,99 114.75,99.1 115,99.1 z M119.25,99.6 L118.5,99.6 L119.55,94.6 L120.3,94.6 L119.25,99.6 z M119.8,93.35 C119.8,93.2 119.85,93.05 119.95,92.95 C120.05,92.85 120.15,92.8 120.35,92.8 C120.6,92.8 120.75,92.95 120.75,93.2 C120.75,93.35 120.7,93.5 120.6,93.6 C120.5,93.7 120.4,93.75 120.25,93.75 C120.15,93.75 120.05,93.7 119.95,93.65 C119.8,93.6 119.8,93.5 119.8,93.35 z M123.95,98.2 C123.95,98.65 123.8,99.05 123.45,99.3 C123.1,99.55 122.65,99.7 122.05,99.7 C121.55,99.7 121.1,99.6 120.65,99.4 L120.65,98.7 C120.85,98.85 121.1,98.95 121.35,99 C121.6,99.05 121.8,99.1 122.05,99.1 C122.45,99.1 122.7,99 122.9,98.85 C123.1,98.7 123.2,98.5 123.2,98.25 C123.2,98.1 123.15,97.95 123.05,97.8 C122.95,97.7 122.7,97.5 122.35,97.3 C121.95,97.1 121.7,96.85 121.5,96.65 C121.35,96.45 121.25,96.2 121.25,95.9 C121.25,95.5 121.4,95.15 121.7,94.9 C122,94.65 122.4,94.5 122.9,94.5 C123.4,94.5 123.9,94.6 124.4,94.85 L124.15,95.45 L123.9,95.35 C123.6,95.2 123.25,95.15 122.9,95.15 C122.6,95.15 122.4,95.2 122.25,95.35 C122.1,95.5 122,95.65 122,95.85 C122,96 122.05,96.15 122.15,96.3 C122.25,96.4 122.5,96.6 122.8,96.75 C123.1,96.95 123.35,97.1 123.5,97.2 C123.65,97.35 123.75,97.45 123.8,97.6 C123.9,97.85 123.95,98 123.95,98.2 z M127.5,94.55 C128.1,94.55 128.55,94.7 128.85,95.05 C129.2,95.4 129.35,95.85 129.35,96.45 C129.35,97 129.25,97.55 129,98.05 C128.8,98.55 128.5,98.95 128.1,99.2 C127.7,99.45 127.3,99.6 126.85,99.6 C126.25,99.6 125.8,99.45 125.5,99.1 C125.15,98.75 125,98.3 125,97.7 C125,97.1 125.1,96.6 125.35,96.05 C125.55,95.55 125.85,95.15 126.25,94.9 C126.6,94.7 127.05,94.55 127.5,94.55 z M128.55,96.4 C128.55,96.05 128.45,95.75 128.25,95.55 C128.05,95.35 127.8,95.2 127.5,95.2 C127.15,95.2 126.85,95.3 126.6,95.55 C126.35,95.75 126.15,96.1 126,96.5 C125.85,96.9 125.8,97.35 125.8,97.85 C125.8,98.25 125.9,98.55 126.1,98.75 C126.3,98.95 126.55,99.1 126.95,99.1 C127.25,99.1 127.55,99 127.8,98.75 C128.05,98.55 128.25,98.2 128.4,97.8 C128.5,97.4 128.55,96.9 128.55,96.4 z M133.1,99.6 L133.75,96.45 C133.8,96.15 133.85,95.9 133.85,95.8 C133.85,95.6 133.8,95.45 133.7,95.35 C133.6,95.25 133.4,95.2 133.2,95.2 C132.95,95.2 132.65,95.3 132.4,95.45 C132.15,95.65 131.9,95.9 131.7,96.25 C131.5,96.6 131.35,97 131.25,97.45 L130.8,99.6 L130.05,99.6 L131.1,94.6 L131.75,94.6 L131.65,95.5 L131.7,95.5 C132,95.15 132.25,94.85 132.55,94.7 C132.8,94.55 133.1,94.45 133.4,94.45 C133.8,94.45 134.1,94.55 134.3,94.75 C134.5,94.95 134.65,95.25 134.65,95.65 C134.65,95.9 134.6,96.15 134.55,96.45 L133.9,99.5 L133.1,99.5 z M138.6,99.6 L137.85,99.6 L138.9,94.6 L139.65,94.6 L138.6,99.6 z M139.1,93.35 C139.1,93.2 139.15,93.05 139.25,92.95 C139.35,92.85 139.45,92.8 139.65,92.8 C139.9,92.8 140.05,92.95 140.05,93.2 C140.05,93.35 140,93.5 139.9,93.6 C139.8,93.7 139.7,93.75 139.55,93.75 C139.45,93.75 139.35,93.7 139.25,93.65 C139.15,93.6 139.1,93.5 139.1,93.35 z M143.1,99.6 L143.75,96.45 C143.8,96.15 143.85,95.95 143.85,95.85 C143.85,95.65 143.8,95.45 143.7,95.35 C143.6,95.25 143.45,95.15 143.2,95.15 C142.95,95.15 142.7,95.25 142.45,95.4 C142.2,95.6 142,95.85 141.8,96.2 C141.6,96.55 141.5,96.95 141.4,97.4 L140.95,99.55 L140.2,99.55 L141.25,94.55 L141.9,94.55 L141.8,95.45 L141.85,95.45 C142.1,95.1 142.4,94.85 142.65,94.65 C142.9,94.5 143.2,94.4 143.45,94.4 C143.8,94.4 144.05,94.5 144.25,94.7 C144.45,94.9 144.55,95.15 144.6,95.5 L144.65,95.5 C144.9,95.1 145.2,94.85 145.5,94.65 C145.8,94.45 146.1,94.35 146.4,94.35 C146.8,94.35 147.1,94.45 147.3,94.65 C147.5,94.85 147.6,95.15 147.6,95.55 C147.6,95.75 147.55,96.05 147.5,96.35 L146.85,99.4 L146,99.4 L146.65,96.25 C146.7,95.95 146.75,95.7 146.75,95.6 C146.75,95.4 146.7,95.25 146.6,95.15 C146.5,95.05 146.35,95 146.1,95 C145.85,95 145.6,95.1 145.35,95.25 C145.1,95.45 144.9,95.7 144.7,96 C144.5,96.3 144.4,96.7 144.3,97.15 L143.8,99.45 L143.1,99.45 z M151.2,99.6 L151.85,96.45 C151.9,96.15 151.95,95.95 151.95,95.85 C151.95,95.65 151.9,95.45 151.8,95.35 C151.7,95.25 151.55,95.15 151.3,95.15 C151.05,95.15 150.8,95.25 150.55,95.4 C150.3,95.6 150.1,95.85 149.9,96.2 C149.7,96.55 149.6,96.95 149.5,97.4 L149.05,99.55 L148.3,99.55 L149.35,94.55 L150,94.55 L149.9,95.45 L149.95,95.45 C150.2,95.1 150.5,94.85 150.75,94.65 C151,94.5 151.3,94.4 151.55,94.4 C151.9,94.4 152.15,94.5 152.35,94.7 C152.55,94.9 152.65,95.15 152.7,95.5 L152.75,95.5 C153,95.1 153.3,94.85 153.6,94.65 C153.9,94.45 154.2,94.35 154.5,94.35 C154.9,94.35 155.2,94.45 155.4,94.65 C155.6,94.85 155.7,95.15 155.7,95.55 C155.7,95.75 155.65,96.05 155.6,96.35 L154.95,99.4 L154.2,99.4 L154.85,96.25 C154.9,95.95 154.95,95.7 154.95,95.6 C154.95,95.4 154.9,95.25 154.8,95.15 C154.7,95.05 154.55,95 154.3,95 C154.05,95 153.8,95.1 153.55,95.25 C153.3,95.45 153.1,95.7 152.9,96 C152.7,96.3 152.6,96.7 152.5,97.15 L152,99.45 L151.2,99.45 z M158.4,99.7 C157.85,99.7 157.4,99.55 157.1,99.2 C156.8,98.85 156.6,98.4 156.6,97.85 C156.6,97.3 156.7,96.75 156.95,96.2 C157.2,95.7 157.45,95.25 157.85,95 C158.2,94.7 158.65,94.55 159.1,94.55 C159.55,94.55 159.9,94.65 160.15,94.85 C160.4,95.05 160.5,95.35 160.5,95.7 C160.5,96.25 160.25,96.65 159.75,97 C159.25,97.3 158.55,97.45 157.6,97.45 L157.45,97.45 L157.45,97.8 C157.45,98.2 157.55,98.5 157.75,98.75 C157.95,98.95 158.2,99.1 158.6,99.1 C158.8,99.1 159,99.05 159.2,99 C159.4,98.95 159.65,98.85 159.95,98.7 L159.95,99.35 C159.65,99.5 159.4,99.6 159.2,99.65 C158.9,99.7 158.65,99.7 158.4,99.7 z M159.05,95.2 C158.75,95.2 158.45,95.35 158.15,95.65 C157.85,95.95 157.65,96.35 157.5,96.85 L157.55,96.85 C158.25,96.85 158.75,96.75 159.15,96.6 C159.5,96.4 159.7,96.15 159.7,95.8 C159.7,95.65 159.65,95.5 159.55,95.4 C159.45,95.25 159.25,95.2 159.05,95.2 z M158.8,93.85 C158.95,93.65 159.15,93.45 159.35,93.15 C159.55,92.85 159.7,92.65 159.85,92.45 L160.7,92.45 L160.7,92.55 C160.6,92.7 160.35,92.95 160.05,93.25 C159.75,93.55 159.45,93.8 159.25,93.95 L158.75,93.95 L158.75,93.85 z M163.65,94.55 C164.25,94.55 164.65,94.85 164.95,95.4 L165,95.4 C165.05,94.95 165.1,94.5 165.2,94.15 L165.55,92.5 L166.3,92.5 L164.8,99.6 L164.15,99.6 L164.25,98.65 L164.2,98.65 C163.9,99.05 163.6,99.3 163.35,99.45 C163.1,99.6 162.8,99.7 162.5,99.7 C162.1,99.7 161.75,99.55 161.5,99.25 C161.25,98.95 161.15,98.55 161.15,98 C161.15,97.35 161.25,96.75 161.5,96.2 C161.7,95.65 162,95.25 162.4,94.95 C162.8,94.65 163.2,94.55 163.65,94.55 z M162.8,99.1 C163.1,99.1 163.4,98.95 163.7,98.65 C164,98.35 164.25,98 164.4,97.55 C164.6,97.1 164.65,96.65 164.65,96.2 C164.65,95.85 164.55,95.6 164.4,95.45 C164.25,95.25 164,95.2 163.7,95.2 C163.4,95.2 163.1,95.35 162.85,95.6 C162.6,95.85 162.4,96.2 162.2,96.65 C162.05,97.1 161.95,97.6 161.95,98.1 C161.95,98.75 162.25,99.1 162.8,99.1 z M167.15,99.6 L166.4,99.6 L167.45,94.6 L168.2,94.6 L167.15,99.6 z M167.65,93.35 C167.65,93.2 167.7,93.05 167.8,92.95 C167.9,92.85 168,92.8 168.2,92.8 C168.45,92.8 168.6,92.95 168.6,93.2 C168.6,93.35 168.55,93.5 168.45,93.6 C168.35,93.7 168.25,93.75 168.1,93.75 C168,93.75 167.9,93.7 167.8,93.65 C167.7,93.6 167.65,93.5 167.65,93.35 z M171.4,94.55 C171.7,94.55 171.95,94.6 172.15,94.8 C172.35,94.95 172.55,95.15 172.65,95.45 L172.7,95.45 L173,94.65 L173.6,94.65 L172.55,99.65 L171.95,99.65 L172.05,98.7 L172,98.7 C171.45,99.4 170.9,99.75 170.3,99.75 C169.9,99.75 169.55,99.6 169.3,99.3 C169.05,99 168.95,98.6 168.95,98.05 C168.95,97.4 169.05,96.85 169.25,96.3 C169.45,95.75 169.75,95.35 170.15,95.05 C170.5,94.7 170.95,94.55 171.4,94.55 z M170.5,99.1 C170.8,99.1 171.1,98.95 171.4,98.7 C171.7,98.45 171.95,98.05 172.1,97.6 C172.3,97.15 172.35,96.7 172.35,96.25 C172.35,95.95 172.25,95.7 172.1,95.5 C171.95,95.3 171.7,95.2 171.45,95.2 C171.15,95.2 170.85,95.35 170.55,95.6 C170.3,95.85 170.05,96.2 169.9,96.65 C169.75,97.1 169.65,97.55 169.65,98.05 C169.65,98.4 169.7,98.65 169.85,98.85 C170.05,99 170.25,99.1 170.5,99.1 z M175.55,99.1 C175.7,99.1 175.95,99.05 176.2,99 L176.2,99.6 C176.1,99.65 175.95,99.7 175.8,99.7 C175.65,99.75 175.55,99.75 175.45,99.75 C175.05,99.75 174.8,99.65 174.6,99.5 C174.4,99.3 174.3,99.05 174.3,98.7 C174.3,98.5 174.35,98.25 174.4,98 L175,95.25 L174.2,95.25 L174.25,94.9 L175.1,94.55 L175.65,93.5 L176.1,93.5 L175.85,94.65 L177.1,94.65 L177,95.25 L175.75,95.25 L175.15,98 C175.1,98.25 175.05,98.45 175.05,98.6 C175.05,98.75 175.1,98.9 175.2,99 C175.25,99.05 175.35,99.1 175.55,99.1 z M179,99.7 C178.45,99.7 178,99.55 177.7,99.2 C177.4,98.85 177.2,98.4 177.2,97.85 C177.2,97.3 177.3,96.75 177.55,96.2 C177.8,95.7 178.05,95.25 178.45,95 C178.8,94.7 179.25,94.55 179.7,94.55 C180.15,94.55 180.5,94.65 180.75,94.85 C181,95.05 181.1,95.35 181.1,95.7 C181.1,96.25 180.85,96.65 180.35,97 C179.85,97.3 179.15,97.45 178.2,97.45 L178,97.45 L178,97.8 C178,98.2 178.1,98.5 178.3,98.75 C178.5,98.95 178.75,99.1 179.15,99.1 C179.35,99.1 179.55,99.05 179.75,99 C179.95,98.95 180.2,98.85 180.5,98.7 L180.5,99.35 C180.2,99.5 179.95,99.6 179.75,99.65 C179.5,99.7 179.25,99.7 179,99.7 z M179.6,95.2 C179.3,95.2 179,95.35 178.7,95.65 C178.45,95.95 178.2,96.35 178.05,96.85 L178.1,96.85 C178.8,96.85 179.3,96.75 179.7,96.6 C180.05,96.4 180.25,96.15 180.25,95.8 C180.25,95.65 180.2,95.5 180.1,95.4 C180,95.25 179.85,95.2 179.6,95.2 z" fill="#FFFFFF"/>
    <path d="M189.1,94.55 C189.7,94.55 190.15,94.7 190.45,95.05 C190.8,95.4 190.95,95.85 190.95,96.45 C190.95,97 190.85,97.55 190.6,98.05 C190.4,98.55 190.1,98.95 189.7,99.2 C189.35,99.5 188.9,99.6 188.45,99.6 C187.85,99.6 187.4,99.45 187.1,99.1 C186.75,98.75 186.6,98.3 186.6,97.7 C186.6,97.1 186.7,96.6 186.95,96.05 C187.15,95.55 187.45,95.15 187.85,94.9 C188.2,94.7 188.65,94.55 189.1,94.55 z M190.15,96.4 C190.15,96.05 190.05,95.75 189.85,95.55 C189.65,95.35 189.4,95.2 189.1,95.2 C188.75,95.2 188.45,95.3 188.2,95.55 C187.95,95.75 187.75,96.1 187.6,96.5 C187.45,96.9 187.4,97.35 187.4,97.85 C187.4,98.25 187.5,98.55 187.7,98.75 C187.9,98.95 188.15,99.1 188.55,99.1 C188.85,99.1 189.15,99 189.4,98.75 C189.65,98.55 189.85,98.2 190,97.8 C190.1,97.4 190.15,96.9 190.15,96.4 z M193.45,94.65 L192.75,97.8 C192.7,98.05 192.65,98.3 192.65,98.45 C192.65,98.9 192.85,99.1 193.3,99.1 C193.55,99.1 193.85,99 194.1,98.85 C194.35,98.65 194.6,98.4 194.8,98.05 C195,97.7 195.15,97.3 195.25,96.8 L195.7,94.65 L196.45,94.65 L195.4,99.65 L194.75,99.65 L194.85,98.75 L194.8,98.75 C194.5,99.15 194.2,99.4 193.95,99.55 C193.7,99.7 193.4,99.75 193.1,99.75 C192.7,99.75 192.4,99.65 192.2,99.45 C192,99.25 191.85,98.95 191.85,98.55 C191.85,98.35 191.9,98.1 191.95,97.75 L192.6,94.65 L193.45,94.65 z M202.5,98.2 C202.5,98.65 202.35,99.05 202,99.3 C201.65,99.55 201.2,99.7 200.6,99.7 C200.1,99.7 199.65,99.6 199.2,99.4 L199.2,98.7 C199.4,98.85 199.65,98.95 199.9,99 C200.15,99.05 200.35,99.1 200.6,99.1 C201,99.1 201.25,99 201.45,98.85 C201.65,98.7 201.75,98.5 201.75,98.25 C201.75,98.1 201.7,97.95 201.6,97.8 C201.5,97.7 201.25,97.5 200.9,97.3 C200.5,97.1 200.25,96.85 200.05,96.65 C199.9,96.45 199.8,96.2 199.8,95.9 C199.8,95.5 199.95,95.15 200.25,94.9 C200.55,94.65 200.95,94.5 201.45,94.5 C201.95,94.5 202.45,94.6 202.95,94.85 L202.7,95.45 L202.45,95.35 C202.15,95.2 201.8,95.15 201.45,95.15 C201.15,95.15 200.95,95.2 200.8,95.35 C200.65,95.5 200.55,95.65 200.55,95.85 C200.55,96 200.6,96.15 200.7,96.3 C200.8,96.4 201.05,96.6 201.35,96.75 C201.65,96.95 201.9,97.1 202.05,97.2 C202.2,97.35 202.3,97.45 202.35,97.6 C202.45,97.85 202.5,98 202.5,98.2 z M205.2,94.65 L204.5,97.8 C204.45,98.05 204.4,98.3 204.4,98.45 C204.4,98.9 204.6,99.1 205.05,99.1 C205.3,99.1 205.6,99 205.85,98.85 C206.1,98.65 206.35,98.4 206.55,98.05 C206.75,97.7 206.9,97.3 207,96.8 L207.45,94.65 L208.2,94.65 L207.15,99.65 L206.5,99.65 L206.6,98.75 L206.55,98.75 C206.25,99.15 205.95,99.4 205.7,99.55 C205.45,99.7 205.15,99.75 204.85,99.75 C204.45,99.75 204.15,99.65 203.95,99.45 C203.75,99.25 203.6,98.95 203.6,98.55 C203.6,98.35 203.65,98.1 203.7,97.75 L204.35,94.65 L205.2,94.65 z M211.95,94.55 C212.15,94.55 212.35,94.55 212.5,94.6 L212.35,95.3 C212.2,95.25 212.05,95.25 211.85,95.25 C211.55,95.25 211.3,95.35 211.1,95.5 C210.85,95.7 210.65,95.95 210.45,96.25 C210.25,96.55 210.15,96.95 210.05,97.35 L209.55,99.65 L208.8,99.65 L209.85,94.65 L210.5,94.65 L210.4,95.55 L210.45,95.55 C210.65,95.25 210.85,95.05 211,94.95 C211.15,94.8 211.3,94.75 211.45,94.65 C211.55,94.55 211.75,94.55 211.95,94.55 z M218.05,94.55 C218.25,94.55 218.45,94.55 218.6,94.6 L218.45,95.3 C218.3,95.25 218.15,95.25 217.95,95.25 C217.65,95.25 217.4,95.35 217.2,95.5 C216.95,95.7 216.75,95.95 216.55,96.25 C216.35,96.55 216.25,96.95 216.15,97.35 L215.65,99.65 L214.9,99.65 L215.95,94.65 L216.6,94.65 L216.5,95.55 L216.55,95.55 C216.75,95.25 216.95,95.05 217.1,94.95 C217.25,94.8 217.4,94.75 217.55,94.65 C217.65,94.55 217.85,94.55 218.05,94.55 z M220.55,99.7 C220,99.7 219.55,99.55 219.25,99.2 C218.95,98.85 218.75,98.4 218.75,97.85 C218.75,97.3 218.85,96.75 219.1,96.2 C219.35,95.7 219.6,95.25 220,95 C220.35,94.7 220.8,94.55 221.25,94.55 C221.7,94.55 222.05,94.65 222.3,94.85 C222.55,95.05 222.65,95.35 222.65,95.7 C222.65,96.25 222.4,96.65 221.9,97 C221.4,97.3 220.7,97.45 219.75,97.45 L219.6,97.45 L219.6,97.8 C219.6,98.2 219.7,98.5 219.9,98.75 C220.1,98.95 220.35,99.1 220.75,99.1 C220.95,99.1 221.15,99.05 221.35,99 C221.55,98.95 221.8,98.85 222.1,98.7 L222.1,99.35 C221.8,99.5 221.55,99.6 221.35,99.65 C221.05,99.7 220.8,99.7 220.55,99.7 z M221.15,95.2 C220.85,95.2 220.55,95.35 220.25,95.65 C220,95.95 219.75,96.35 219.6,96.85 L219.65,96.85 C220.35,96.85 220.85,96.75 221.25,96.6 C221.6,96.4 221.8,96.15 221.8,95.8 C221.8,95.65 221.75,95.5 221.65,95.4 C221.6,95.25 221.4,95.2 221.15,95.2 z M226.2,99.6 L226.85,96.45 C226.9,96.15 226.95,95.9 226.95,95.8 C226.95,95.6 226.9,95.45 226.8,95.35 C226.7,95.25 226.5,95.2 226.3,95.2 C226.05,95.2 225.75,95.3 225.5,95.45 C225.25,95.65 225,95.9 224.8,96.25 C224.6,96.6 224.45,97 224.35,97.45 L223.9,99.6 L223.15,99.6 L224.2,94.6 L224.85,94.6 L224.75,95.5 L224.8,95.5 C225.1,95.15 225.35,94.85 225.65,94.7 C225.9,94.55 226.2,94.45 226.5,94.45 C226.9,94.45 227.2,94.55 227.4,94.75 C227.6,94.95 227.75,95.25 227.75,95.65 C227.75,95.9 227.7,96.15 227.65,96.45 L227,99.5 L226.2,99.5 z M231.15,94.55 C231.75,94.55 232.15,94.85 232.45,95.4 L232.5,95.4 C232.55,94.95 232.6,94.5 232.7,94.15 L233.05,92.5 L233.8,92.5 L232.3,99.6 L231.65,99.6 L231.75,98.65 L231.7,98.65 C231.4,99.05 231.1,99.3 230.85,99.45 C230.6,99.6 230.3,99.7 230,99.7 C229.6,99.7 229.25,99.55 229,99.25 C228.75,98.95 228.65,98.55 228.65,98 C228.65,97.35 228.75,96.75 229,96.2 C229.2,95.65 229.5,95.25 229.9,94.95 C230.3,94.65 230.7,94.55 231.15,94.55 z M230.3,99.1 C230.6,99.1 230.9,98.95 231.2,98.65 C231.5,98.35 231.75,98 231.9,97.55 C232.1,97.1 232.15,96.65 232.15,96.2 C232.15,95.85 232.05,95.6 231.9,95.45 C231.75,95.25 231.5,95.2 231.2,95.2 C230.9,95.2 230.6,95.35 230.35,95.6 C230.1,95.85 229.9,96.2 229.7,96.65 C229.55,97.1 229.45,97.6 229.45,98.1 C229.5,98.75 229.75,99.1 230.3,99.1 z M235.85,99.7 C235.3,99.7 234.85,99.55 234.55,99.2 C234.25,98.85 234.05,98.4 234.05,97.85 C234.05,97.3 234.15,96.75 234.4,96.2 C234.65,95.7 234.9,95.25 235.3,95 C235.65,94.7 236.1,94.55 236.55,94.55 C237,94.55 237.35,94.65 237.6,94.85 C237.85,95.05 237.95,95.35 237.95,95.7 C237.95,96.25 237.7,96.65 237.2,97 C236.7,97.3 236,97.45 235.05,97.45 L234.9,97.45 L234.9,97.8 C234.9,98.2 235,98.5 235.2,98.75 C235.4,98.95 235.65,99.1 236.05,99.1 C236.25,99.1 236.45,99.05 236.65,99 C236.85,98.95 237.1,98.85 237.4,98.7 L237.4,99.35 C237.1,99.5 236.85,99.6 236.65,99.65 C236.35,99.7 236.1,99.7 235.85,99.7 z M236.5,95.2 C236.2,95.2 235.9,95.35 235.6,95.65 C235.3,95.95 235.1,96.35 234.95,96.85 L235,96.85 C235.7,96.85 236.2,96.75 236.6,96.6 C236.95,96.4 237.15,96.15 237.15,95.8 C237.15,95.65 237.1,95.5 237,95.4 C236.9,95.25 236.75,95.2 236.5,95.2 z M241.35,99.6 L238.1,99.6 L238.2,99.05 L241.35,95.15 L239.15,95.15 L239.25,94.6 L242.25,94.6 L242.1,95.25 L239,99.05 L241.4,99.05 L241.35,99.6 z M242.6,97.5 L242.75,96.8 L244.95,96.8 L244.8,97.5 L242.6,97.5 z M246.25,99.6 L245.7,94.6 L246.45,94.6 L246.75,97.4 C246.8,98.2 246.85,98.75 246.85,99.05 L246.9,99.05 C247.3,98.2 247.55,97.65 247.7,97.35 L249.2,94.6 L250,94.6 L247.3,99.6 L246.25,99.6 z M252.45,94.55 C253.05,94.55 253.5,94.7 253.8,95.05 C254.15,95.4 254.3,95.85 254.3,96.45 C254.3,97 254.2,97.55 253.95,98.05 C253.75,98.55 253.45,98.95 253.05,99.2 C252.7,99.5 252.25,99.6 251.8,99.6 C251.2,99.6 250.75,99.45 250.45,99.1 C250.1,98.75 249.95,98.3 249.95,97.7 C249.95,97.1 250.05,96.6 250.3,96.05 C250.5,95.55 250.8,95.15 251.2,94.9 C251.6,94.65 252,94.55 252.45,94.55 z M253.55,96.4 C253.55,96.05 253.45,95.75 253.25,95.55 C253.05,95.35 252.8,95.2 252.5,95.2 C252.15,95.2 251.85,95.3 251.6,95.55 C251.35,95.75 251.15,96.1 251,96.5 C250.85,96.9 250.8,97.35 250.8,97.85 C250.8,98.25 250.9,98.55 251.1,98.75 C251.3,98.95 251.55,99.1 251.95,99.1 C252.25,99.1 252.55,99 252.8,98.75 C253.05,98.55 253.25,98.2 253.4,97.8 C253.45,97.4 253.55,96.9 253.55,96.4 z M256.8,94.65 L256.1,97.8 C256.05,98.05 256,98.3 256,98.45 C256,98.9 256.2,99.1 256.65,99.1 C256.9,99.1 257.2,99 257.45,98.85 C257.7,98.65 257.95,98.4 258.15,98.05 C258.35,97.7 258.5,97.3 258.6,96.8 L259.05,94.65 L259.8,94.65 L258.75,99.65 L258.1,99.65 L258.2,98.75 L258.15,98.75 C257.85,99.15 257.55,99.4 257.3,99.55 C257.05,99.7 256.75,99.75 256.45,99.75 C256.05,99.75 255.75,99.65 255.55,99.45 C255.35,99.25 255.2,98.95 255.2,98.55 C255.2,98.35 255.25,98.1 255.3,97.75 L255.95,94.65 L256.8,94.65 z M263.45,98.2 C263.45,98.65 263.3,99.05 262.95,99.3 C262.6,99.55 262.15,99.7 261.55,99.7 C261.05,99.7 260.6,99.6 260.15,99.4 L260.15,98.7 C260.35,98.85 260.6,98.95 260.85,99 C261.1,99.05 261.3,99.1 261.55,99.1 C261.95,99.1 262.2,99 262.4,98.85 C262.6,98.7 262.7,98.5 262.7,98.25 C262.7,98.1 262.65,97.95 262.55,97.8 C262.45,97.7 262.2,97.5 261.85,97.3 C261.45,97.1 261.2,96.85 261,96.65 C260.85,96.45 260.75,96.2 260.75,95.9 C260.75,95.5 260.9,95.15 261.2,94.9 C261.5,94.65 261.9,94.5 262.4,94.5 C262.9,94.5 263.4,94.6 263.9,94.85 L263.65,95.45 L263.4,95.35 C263.1,95.2 262.75,95.15 262.4,95.15 C262.1,95.15 261.9,95.2 261.75,95.35 C261.6,95.5 261.5,95.65 261.5,95.85 C261.5,96 261.55,96.15 261.65,96.3 C261.75,96.4 262,96.6 262.3,96.75 C262.6,96.95 262.85,97.1 263,97.2 C263.15,97.35 263.25,97.45 263.3,97.6 C263.45,97.85 263.45,98 263.45,98.2 z" fill="#39B7D3"/>
  </g>
</svg>
