<?xml version="1.0" encoding="UTF-8" standalone="no"?><!DOCTYPE svg PUBLIC "-//W3C//DTD SVG 1.1//EN" "http://www.w3.org/Graphics/SVG/1.1/DTD/svg11.dtd"><svg width="100%" height="100%" viewBox="0 0 144 27" version="1.1" xmlns="http://www.w3.org/2000/svg" xmlns:xlink="http://www.w3.org/1999/xlink" xml:space="preserve" xmlns:serif="http://www.serif.com/" style="fill-rule:evenodd;clip-rule:evenodd;stroke-linejoin:round;stroke-miterlimit:1.41421;"><g><path d="M4.568,17.615c0.208,3.044 2.907,4.74 5.502,4.705c2.215,0 3.703,-1.003 4.568,-2.56l4.672,0c-0.9,2.11 -2.25,3.703 -3.842,4.775c-1.591,1.107 -3.46,1.661 -5.433,1.661c-5.848,0 -10.035,-4.741 -10.035,-10.036c0,-5.398 4.222,-10.139 9.966,-10.139c2.838,0 5.329,1.073 7.094,2.907c2.319,2.388 3.184,5.364 2.803,8.686l-15.295,0l0,0.001Zm10.832,-3.462c-0.173,-1.799 -2.077,-4.325 -5.399,-4.29c-3.357,0 -5.191,2.422 -5.364,4.29l10.763,0Z" style="fill:url(#_Linear1);fill-rule:nonzero;"/><path d="M22.897,0l4.533,0l0,8.963c1.869,-2.319 4.602,-2.942 6.333,-2.942c4.499,0 9.482,3.288 9.482,10.001c0,6.437 -4.499,10.174 -9.69,10.174c-2.976,0 -5.294,-1.453 -6.298,-3.322l0,2.734l-4.36,0l0,-25.608Zm15.815,16.057c0,-3.115 -2.388,-5.814 -5.71,-5.814c-3.53,0 -5.745,2.769 -5.745,5.848c0,3.184 2.215,5.884 5.641,5.884c3.703,0 5.814,-2.942 5.814,-5.884l0,-0.034Z" style="fill:url(#_Linear2);fill-rule:nonzero;"/><path d="M46.706,0l4.533,0l0,4.049l-4.533,0l0,-4.049Zm0,6.61l4.533,0l0,18.998l-4.533,0l0,-18.998Z" style="fill:url(#_Linear3);fill-rule:nonzero;"/><path d="M53.938,22.459l8.928,-12.354l-8.755,0l0,-3.495l13.704,0l0,3.495l-8.478,12.008l8.616,0l0,3.495l-14.015,0l0,-3.149l0,0Z" style="fill:url(#_Linear4);fill-rule:nonzero;"/><path d="M70.652,23.8l3.497,0l0,-15.394l-3.497,0l0,-1.809l5.587,0l0,2.934c2.452,-2.049 5.025,-3.215 7.154,-3.215c2.974,0 5.145,1.849 5.145,4.944l0,12.54l3.055,0l0,1.809l-8.521,0l0,-1.809l3.376,0l0,-11.977c0,-2.452 -1.206,-3.618 -3.175,-3.618c-2.09,0 -4.823,1.327 -7.034,3.417l0,12.178l3.095,0l0,1.809l-8.682,0l0,-1.809Z" style="fill:url(#_Linear5);fill-rule:nonzero;"/><path d="M95.41,16.565c0,4.381 3.577,7.918 7.998,7.918c2.934,0 5.587,-1.487 7.435,-4.14l1.648,0.764c-1.849,3.135 -5.385,5.064 -9.324,5.064c-5.748,0 -9.847,-4.18 -9.847,-10.048c0,-5.868 4.019,-10.048 9.686,-10.048c5.587,0 9.365,4.14 9.485,10.49l-17.081,0Zm14.911,-1.808c-0.724,-4.382 -3.497,-6.914 -7.476,-6.914c-3.899,0 -6.672,2.613 -7.395,6.914l14.871,0Z" style="fill:url(#_Linear6);fill-rule:nonzero;"/><path d="M113.816,23.8l2.573,0l6.109,-7.999l-5.908,-7.395l-2.452,0l0,-1.809l7.074,0l0,1.809l-2.251,0l4.703,5.908l4.622,-5.908l-2.05,0l0,-1.809l6.994,0l0,1.809l-2.572,0l-5.788,7.395l6.47,7.999l2.412,0l0,1.808l-7.074,0l0,-1.808l2.331,0l-5.345,-6.552l-4.944,6.552l2.492,0l0,1.808l-7.395,0l0,-1.808l-0.001,0Z" style="fill:url(#_Linear7);fill-rule:nonzero;"/><path d="M134.555,8.406l0,-1.809l3.376,0l0,-4.26l2.09,-1.648l0,5.908l3.979,0l0,1.809l-3.979,0l0,13.263c0,2.21 0.362,3.015 3.979,2.131l0,1.808c-3.657,1.045 -6.069,0.282 -6.069,-3.055l0,-14.147l-3.376,0Z" style="fill:url(#_Linear8);fill-rule:nonzero;"/></g><defs><linearGradient id="_Linear1" x1="0" y1="0" x2="1" y2="0" gradientUnits="userSpaceOnUse" gradientTransform="matrix(1.23535e-15,20.1748,-20.1748,1.23535e-15,9.97526,6.02131)"><stop offset="0" style="stop-color:#be3135;stop-opacity:1"/><stop offset="1" style="stop-color:#7c261f;stop-opacity:1"/></linearGradient><linearGradient id="_Linear2" x1="0" y1="0" x2="1" y2="0" gradientUnits="userSpaceOnUse" gradientTransform="matrix(1.60405e-15,26.196,-26.196,1.60405e-15,33.0707,8.29302e-05)"><stop offset="0" style="stop-color:#525252;stop-opacity:1"/><stop offset="1" style="stop-color:#010202;stop-opacity:1"/></linearGradient><linearGradient id="_Linear3" x1="0" y1="0" x2="1" y2="0" gradientUnits="userSpaceOnUse" gradientTransform="matrix(1.56804e-15,25.6081,-25.6081,1.56804e-15,48.9723,8.29302e-05)"><stop offset="0" style="stop-color:#525252;stop-opacity:1"/><stop offset="1" style="stop-color:#010202;stop-opacity:1"/></linearGradient><linearGradient id="_Linear4" x1="0" y1="0" x2="1" y2="0" gradientUnits="userSpaceOnUse" gradientTransform="matrix(1.16332e-15,18.9985,-18.9985,1.16332e-15,60.9457,6.60968)"><stop offset="0" style="stop-color:#525252;stop-opacity:1"/><stop offset="1" style="stop-color:#010202;stop-opacity:1"/></linearGradient><linearGradient id="_Linear5" x1="0" y1="0" x2="1" y2="0" gradientUnits="userSpaceOnUse" gradientTransform="matrix(1.18131e-15,19.2922,-19.2922,1.18131e-15,81.1229,6.31596)"><stop offset="0" style="stop-color:#525252;stop-opacity:1"/><stop offset="1" style="stop-color:#010202;stop-opacity:1"/></linearGradient><linearGradient id="_Linear6" x1="0" y1="0" x2="1" y2="0" gradientUnits="userSpaceOnUse" gradientTransform="matrix(1.23053e-15,20.096,-20.096,1.23053e-15,102.905,6.07475)"><stop offset="0" style="stop-color:#525252;stop-opacity:1"/><stop offset="1" style="stop-color:#010202;stop-opacity:1"/></linearGradient><linearGradient id="_Linear7" x1="0" y1="0" x2="1" y2="0" gradientUnits="userSpaceOnUse" gradientTransform="matrix(1.16408e-15,19.0109,-19.0109,1.16408e-15,123.784,6.59724)"><stop offset="0" style="stop-color:#525252;stop-opacity:1"/><stop offset="1" style="stop-color:#010202;stop-opacity:1"/></linearGradient><linearGradient id="_Linear8" x1="0" y1="0" x2="1" y2="0" gradientUnits="userSpaceOnUse" gradientTransform="matrix(1.55255e-15,25.3551,-25.3551,1.55255e-15,139.277,0.689012)"><stop offset="0" style="stop-color:#525252;stop-opacity:1"/><stop offset="1" style="stop-color:#010202;stop-opacity:1"/></linearGradient></defs></svg>