<?xml version="1.0" encoding="UTF-8" standalone="no"?><!DOCTYPE svg PUBLIC "-//W3C//DTD SVG 1.1//EN" "http://www.w3.org/Graphics/SVG/1.1/DTD/svg11.dtd"><svg width="100%" height="100%" viewBox="0 0 129 49" version="1.1" xmlns="http://www.w3.org/2000/svg" xmlns:xlink="http://www.w3.org/1999/xlink" xml:space="preserve" xmlns:serif="http://www.serif.com/" style="fill-rule:evenodd;clip-rule:evenodd;stroke-linejoin:round;stroke-miterlimit:1.41421;"><g><path d="M118.565,6.67c-5.593,0 -10.129,4.533 -10.129,10.126c0,2.617 1.001,4.993 2.628,6.79l-1.832,3.159l4.696,-0.95c1.391,0.719 2.964,1.131 4.637,1.131c5.593,0 10.128,-4.535 10.128,-10.13c0,-5.593 -4.535,-10.126 -10.128,-10.126Z" style="fill:#53bdec;fill-rule:nonzero;"/><path d="M49.238,0.945c-0.376,-0.263 -0.996,0.147 -1.006,0.153c-0.322,0.192 -2.035,1.132 -5.728,1.874c-3.686,0.638 -7.88,1.069 -7.88,1.069c-1.984,0.156 -3.899,0.343 -5.742,0.558c0.273,-1.21 0.377,-2.565 -0.217,-3.34c-0.639,-0.835 -1.248,-1.259 -1.812,-1.259c-0.38,0 -0.908,0.198 -1.259,1.14c-0.472,1.269 -1.248,2.625 -2.446,4.257c-14.375,2.334 -23.069,6.465 -23.147,10.217c-0.098,4.671 7.683,7.782 7.683,7.782c0.329,0.11 0.433,0.062 0.476,-0.026c0.112,-0.221 -0.184,-0.461 -0.184,-0.461c-4.376,-3.405 -4.085,-5.836 -4.085,-5.836c0.232,-2.871 7.108,-4.666 14.878,-5.749c-1.405,2.089 -3.077,4.762 -4.667,7.736c-4.2,7.856 -6.214,14.658 -5.987,20.215c0.008,0.277 0.212,6.821 2.86,8.557c0.02,0.013 0.481,0.332 0.957,0.332l0,0c0.26,0 0.486,-0.095 0.654,-0.274c0.292,-0.313 0.408,-0.864 0.353,-1.686c-0.016,-0.236 -0.038,-0.498 -0.063,-0.785c-0.262,-3.018 -0.748,-8.635 3.691,-17.273c2.518,-4.897 5.191,-9.577 7.339,-13.338c0.924,-1.617 1.757,-3.077 2.444,-4.319c6.028,-0.514 11.478,-0.669 13.64,-0.633c5.834,0.099 9.61,-6.202 9.513,-8.147c-0.018,-0.356 -0.087,-0.641 -0.265,-0.764Z" style="fill-rule:nonzero;"/><path d="M74.135,39.978c-4.044,-0.541 -0.46,-8.286 -0.46,-8.286c4.449,-8.999 9.41,-7.925 9.41,-7.925c-4.603,15.495 -8.95,16.211 -8.95,16.211Zm-22.091,-5.574c-2.25,6.596 -4.654,5.522 -4.654,5.522c-3.374,-1.534 0.256,-8.897 0.256,-8.897c4.603,-8.644 9.103,-7.211 9.103,-7.211c-1.074,1.431 -2.455,3.988 -4.705,10.586Zm-19.28,-10.228c3.018,-1.277 2.608,0.818 2.608,0.818c-0.306,4.448 -7.312,5.113 -7.312,5.113c0,0 1.688,-4.653 4.704,-5.931Zm76.224,14.342c-0.015,-1.26 -0.495,-2.3 -0.875,-2.923c-0.576,-0.881 -1.842,-2.533 -4.113,-4.209c-3.324,-2.455 -3.631,-4.96 -3.172,-6.137c0.463,-1.176 1.791,-2.864 0.103,-3.784c-1.662,-0.906 -4.641,2.157 -4.749,5.086c-0.029,0.55 -0.211,2.601 -1.31,4.755c-1.203,2.238 -6.003,10.73 -9.027,9.795c0,0 -1.471,-0.662 -0.51,-3.631c0.926,-2.86 9.717,-22.806 2.609,-26.129c0,0 -4.297,-1.637 -5.32,0.766c0,0 3.478,-0.409 1.075,9.767c0,0 -11.711,-1.124 -17.03,11.508c0,0 -4.091,7.719 -7.414,7.821c0,0 -1.331,-0.256 -0.614,-4.14c0,0 1.585,-7.722 4.397,-12.887c0,0 -8.744,-7.671 -19.636,4.091c0,0 -2.609,2.455 -3.887,8.08c0,0 -4.858,5.676 -10.125,4.55c0,0 -4.603,-0.459 -2.251,-8.795c0,0 13.297,0.869 13.04,-6.495c0,0 -0.204,-4.806 -7.159,-3.733c0,0 -7.688,0.738 -12.111,10.173c-0.312,0.738 -2.203,5.405 -1.376,8.134c0.515,1.773 2.244,5.631 7.505,5.473c6.818,-0.204 11.249,-4.908 12.135,-6.204c0,0 0.07,6 4.91,6.27c0,0 4.055,0.13 7.44,-6.497l0.002,0.002c0,0 0.135,-0.279 0.248,-0.253c0.153,0.033 0.125,0.195 0.125,0.195l0,0c-0.137,1.136 -0.587,6.869 4.39,6.623c0,0 4.364,0.683 9.273,-7.635c0,0 -0.204,7.839 4.773,7.565c0,0 4.523,0.131 7.79,-6.706l0.004,-0.003c0,0 0.11,-0.202 0.232,-0.13l0.001,0c0.003,0.003 0.114,0.079 0.079,0.275c-0.221,1.116 -1.004,6.482 4.13,6.57l0.004,0.003c0,0 1.292,0.072 2.049,-0.202l-0.002,0c2.136,-0.622 6.691,-3.288 11.752,-14.424c0.031,-0.079 0.309,-0.77 0.421,-0.77c0.065,0 0.105,0.065 0.154,0.198l0,-0.002c0,0 1.311,3.011 3.183,5.279c0.007,0.008 0.279,0.317 0.411,0.46l-0.001,0.002c1.714,2.057 2.44,3.595 0.105,4.566c-0.428,0.141 -4.729,1.5 -5.108,-0.641c0,0 -2.322,0.762 -2.798,2.311c-0.218,0.711 -0.213,2.028 0.909,2.626c0,0 0.063,0.046 0.188,0.112c0,0 0.013,0.007 0.041,0.02c0.213,0.106 0.59,0.252 1.172,0.363c1.372,0.289 3.938,0.445 7.827,-0.766c0.341,-0.098 0.661,-0.206 0.968,-0.316c0.038,-0.015 0.071,-0.024 0.109,-0.037l-0.005,-0.001c2.493,-0.933 3.881,-2.251 4.519,-3.622l0.001,0.001c0.419,-0.821 0.5,-1.848 0.517,-2.221c0.001,-0.001 0.001,-0.001 0.002,-0.001c0.001,-0.032 0,-0.062 0,-0.093c0,-0.032 0,-0.052 0,-0.052l0,-0.001Z" style="fill-rule:nonzero;"/><path d="M113.248,19.805c0,0.266 -0.098,0.482 -0.294,0.649c-0.195,0.166 -0.426,0.249 -0.692,0.249c-0.241,0 -0.443,-0.077 -0.605,-0.231c-0.162,-0.154 -0.244,-0.351 -0.244,-0.592c0,-0.266 0.094,-0.487 0.281,-0.662c0.187,-0.174 0.414,-0.262 0.68,-0.262c0.241,0 0.447,0.084 0.618,0.25c0.17,0.167 0.256,0.366 0.256,0.599Z" style="fill:#fff;fill-rule:nonzero;"/><path d="M119.148,14.316l-0.299,1.322l-1.809,0l-0.698,3.231c-0.009,0.042 -0.013,0.087 -0.013,0.137c0,0.258 0.17,0.387 0.512,0.387c0.324,0 0.681,-0.083 1.073,-0.249l0.311,1.185c-0.515,0.241 -1.102,0.362 -1.759,0.362c-1.123,0 -1.684,-0.458 -1.684,-1.373c0,-0.199 0.025,-0.416 0.075,-0.648l0.648,-3.032l-0.686,-0.05l0.262,-1.223l0.724,-0.049l0.362,-1.71l1.534,0l-0.361,1.71l1.808,0Z" style="fill:#fff;fill-rule:nonzero;"/><path d="M125.885,14.316l-3.855,6.337c-0.881,0 -1.397,-0.395 -1.547,-1.185l-0.96,-5.152l1.534,0l0.662,4.491l0.025,0c0.041,-0.083 0.103,-0.212 0.187,-0.387l2.32,-4.104l1.634,0Z" style="fill:#fff;fill-rule:nonzero;"/></g></svg>