<?xml version="1.0" encoding="UTF-8" standalone="no"?>
<!DOCTYPE svg PUBLIC "-//W3C//DTD SVG 1.1//EN" "http://www.w3.org/Graphics/SVG/1.1/DTD/svg11.dtd">
<svg width="100%" height="100%" viewBox="0 0 302 78" version="1.1" xmlns="http://www.w3.org/2000/svg" xmlns:xlink="http://www.w3.org/1999/xlink" xml:space="preserve" xmlns:serif="http://www.serif.com/" style="fill-rule:evenodd;clip-rule:evenodd;stroke-linejoin:round;stroke-miterlimit:2;">
    <g id="Artboard1" transform="matrix(1,0,0,1,-0.682639,-0.341134)">
        <rect x="0.683" y="0.341" width="301.703" height="77.621" style="fill:none;"/>
        <clipPath id="_clip1">
            <rect x="0.683" y="0.341" width="301.703" height="77.621"/>
        </clipPath>
        <g clip-path="url(#_clip1)">
            <g transform="matrix(1,0,0,1,0.682639,0.341134)">
                <g transform="matrix(0.67148,0,0,0.67148,86.7313,23.5902)">
                    <path d="M15.152,18.87C10.431,18.87 7.245,22.47 7.245,27.013C7.245,31.556 10.49,35.215 15.093,35.215C17.984,35.215 20.285,34.212 22.055,32.442L25.714,37.753C23.472,40.23 19.4,42 14.916,42C6.538,42 0.047,35.273 0.047,27.071C0.047,18.81 6.538,12.084 14.798,12.084C19.636,12.084 23.472,13.736 25.95,16.333L21.82,21.466C20.05,19.755 17.925,18.87 15.152,18.87Z" style="fill:rgb(57,57,109);fill-rule:nonzero;"/>
                    <path d="M31.14,0.578L38.339,0.578L38.339,41.174L31.14,41.174L31.14,0.578Z" style="fill:rgb(57,57,109);fill-rule:nonzero;"/>
                    <path d="M44.886,27.072C44.886,18.811 51.022,12.085 59.165,12.085C67.249,12.085 73.385,18.339 73.385,26.482C73.385,27.367 73.326,28.37 73.208,28.842L52.261,28.842C52.969,32.795 55.978,35.628 60.345,35.628C63.177,35.628 65.596,34.389 67.249,32.678L70.966,37.575C68.841,40.053 64.829,42 60.05,42C51.259,42 44.886,35.274 44.886,27.072ZM52.38,24.299L66.01,24.299C65.184,20.286 62.647,18.221 59.283,18.221C55.684,18.221 53.206,20.699 52.38,24.299Z" style="fill:rgb(57,57,109);fill-rule:nonzero;"/>
                    <path d="M104.775,12.911L94.567,41.175L85.244,41.175L74.977,12.911L82.884,12.911L90.082,34.743L97.399,12.911L104.775,12.911Z" style="fill:rgb(57,57,109);fill-rule:nonzero;"/>
                    <path d="M106.778,27.072C106.778,18.811 112.914,12.085 121.057,12.085C129.141,12.085 135.277,18.339 135.277,26.482C135.277,27.367 135.218,28.37 135.1,28.842L114.153,28.842C114.861,32.795 117.87,35.628 122.237,35.628C125.069,35.628 127.488,34.389 129.141,32.678L132.858,37.575C130.733,40.053 126.721,42 121.942,42C113.15,42 106.778,35.274 106.778,27.072ZM114.271,24.299L127.901,24.299C127.075,20.286 124.538,18.221 121.174,18.221C117.576,18.221 115.098,20.699 114.271,24.299ZM148.669,41.174L141.47,41.174L141.47,12.91L148.669,12.91L148.669,15.978C150.262,13.618 152.622,12.083 155.572,12.083C157.46,12.083 158.994,12.614 160.115,13.499L157.106,20.344C156.162,19.577 154.746,19.105 153.389,19.105C150.498,19.105 148.669,21.524 148.669,25.36L148.669,41.174ZM191.326,18.87C186.605,18.87 183.419,22.47 183.419,27.013C183.419,31.556 186.664,35.215 191.267,35.215C194.158,35.215 196.459,34.212 198.229,32.442L201.888,37.753C199.646,40.232 195.575,42.002 191.09,42.002C182.712,42.002 176.221,35.275 176.221,27.073C176.221,18.812 182.712,12.086 190.972,12.086C195.81,12.086 199.646,13.738 202.124,16.335L197.994,21.468C196.223,19.755 194.099,18.87 191.326,18.87Z" style="fill:rgb(57,57,109);fill-rule:nonzero;"/>
                    <path d="M207.313,0.578L214.512,0.578L214.512,41.174L207.313,41.174L207.313,0.578Z" style="fill:rgb(57,57,109);fill-rule:nonzero;"/>
                    <path d="M221.06,27.072C221.06,18.811 227.551,12.085 235.752,12.085C243.953,12.085 250.503,18.812 250.503,27.072C250.503,35.274 243.953,42.001 235.752,42.001C227.551,42.001 221.06,35.274 221.06,27.072ZM243.246,27.013C243.246,22.47 240.119,18.87 235.811,18.87C231.444,18.87 228.258,22.47 228.258,27.013C228.258,31.556 231.444,35.215 235.811,35.215C240.118,35.215 243.246,31.556 243.246,27.013ZM263.834,28.193C263.834,32.323 266.253,35.097 269.853,35.097C273.452,35.097 275.872,32.324 275.872,28.193L275.872,12.911L283.071,12.911L283.071,28.724C283.071,36.631 277.82,41.882 269.854,41.882C261.888,41.882 256.637,36.631 256.637,28.724L256.637,12.911L263.836,12.911L263.836,28.193L263.834,28.193ZM318.706,0.578L318.706,41.174L311.448,41.174L311.448,38.106C309.383,40.525 306.491,42.001 302.833,42.001C295.339,42.001 289.262,35.864 289.262,27.072C289.262,18.516 294.986,12.085 302.833,12.085C306.55,12.085 309.441,13.442 311.448,15.743L311.448,0.578L318.706,0.578ZM311.448,27.013C311.448,22.47 308.321,18.87 304.013,18.87C299.646,18.87 296.46,22.47 296.46,27.013C296.46,31.556 299.646,35.215 304.013,35.215C308.32,35.215 311.448,31.556 311.448,27.013Z" style="fill:rgb(57,57,109);fill-rule:nonzero;"/>
                </g>
                <g transform="matrix(0.67148,0,0,0.67148,0.110383,0.0883719)">
                    <path d="M100.334,29.134L100.334,86.868L89.632,73.062L83.671,58.003L83.667,58.003L89.329,42.731L100.334,29.134Z" style="fill:rgb(171,43,74);fill-rule:nonzero;"/>
                </g>
                <g transform="matrix(0.67148,0,0,0.67148,0.110383,0.0883719)">
                    <path d="M0.34,29.134L0.34,86.868L9.8,73.481L17.003,58.003L17.007,58.003L9.684,43.319L0.34,29.134Z" style="fill:rgb(232,122,104);fill-rule:nonzero;"/>
                </g>
                <g transform="matrix(0.67148,0,0,0.67148,0.110383,0.0883719)">
                    <path d="M83.667,58.003L52.152,60.003L17.003,58.003L31.671,29.134L50.337,0.269L70.633,31.961L83.667,58.003Z" style="fill:rgb(215,77,78);fill-rule:nonzero;"/>
                </g>
                <g transform="matrix(0.67148,0,0,0.67148,0.110383,0.0883719)">
                    <path d="M100.334,29.134L83.667,58.003L50.337,0.269L100.334,29.134Z" style="fill:rgb(189,50,70);fill-rule:nonzero;"/>
                </g>
                <g transform="matrix(0.67148,0,0,0.67148,0.110383,0.0883719)">
                    <path d="M50.337,0.269L17.003,58.003L0.336,29.134L50.337,0.269Z" style="fill:rgb(241,145,117);fill-rule:nonzero;"/>
                </g>
                <g transform="matrix(0.67148,0,0,0.67148,0.110383,0.0883719)">
                    <path d="M83.667,58.003L72.276,82.931L50.337,115.737L27.76,81.83L17.003,58.003L83.667,58.003Z" style="fill:rgb(207,57,66);fill-rule:nonzero;"/>
                </g>
                <g transform="matrix(0.67148,0,0,0.67148,0.110383,0.0883719)">
                    <path d="M50.337,115.737L0.336,86.868L17.003,58.003L50.337,115.737Z" style="fill:rgb(224,98,91);fill-rule:nonzero;"/>
                </g>
                <g transform="matrix(0.67148,0,0,0.67148,0.110383,0.0883719)">
                    <path d="M50.333,115.737L100.334,86.868L83.667,58.003L50.333,115.737Z" style="fill:rgb(154,36,79);fill-rule:nonzero;"/>
                </g>
            </g>
        </g>
    </g>
</svg>
