<?xml version="1.0" encoding="UTF-8" standalone="no"?><!DOCTYPE svg PUBLIC "-//W3C//DTD SVG 1.1//EN" "http://www.w3.org/Graphics/SVG/1.1/DTD/svg11.dtd"><svg width="100%" height="100%" viewBox="0 0 144 48" version="1.1" xmlns="http://www.w3.org/2000/svg" xmlns:xlink="http://www.w3.org/1999/xlink" xml:space="preserve" xmlns:serif="http://www.serif.com/" style="fill-rule:evenodd;clip-rule:evenodd;stroke-linejoin:round;stroke-miterlimit:1.41421;"><g id="Norauto"><path d="M136.301,9.838l-49.473,0l-2.602,-2.21c-1.105,-1.996 -4.705,-7.628 -12.048,-7.628c-6.736,0 -11.299,5.097 -11.976,9.802l-52.503,0c-4.242,0 -7.699,3.457 -7.699,7.699l0,22.455c0,4.242 3.457,7.699 7.699,7.699l128.602,0c4.242,0 7.699,-3.457 7.699,-7.699l0,-22.455c0,-4.206 -3.457,-7.663 -7.699,-7.663Z" style="fill:#fff;fill-rule:nonzero;"/><path d="M87.719,12.154l48.332,0c2.959,0 5.347,2.389 5.347,5.347l0,22.206c0,2.958 -2.424,5.382 -5.382,5.382l-128.353,0c-2.958,0 -5.346,-2.424 -5.346,-5.382l0,-22.206c0,-2.958 2.388,-5.347 5.346,-5.347l52.468,0c-0.036,-0.356 -0.072,-0.677 -0.072,-1.033c0,-0.036 0,-0.071 0,-0.107l-52.396,0c-3.671,0 -6.665,2.994 -6.665,6.63l0,22.206c0,3.671 2.994,6.629 6.665,6.629l128.353,0c3.671,0 6.665,-2.994 6.665,-6.629l0,-22.206c0,-3.672 -2.994,-6.63 -6.665,-6.63l-48.226,0c0,0 0.178,0.606 -0.071,1.14Z" style="fill:#262073;fill-rule:nonzero;"/><path d="M136.051,13.402l-54.499,0l0.749,2.246l-1.141,1.104l0,2.46c0,0.641 -0.213,1.319 -0.891,1.319c-0.677,0 -0.713,-0.143 -2.459,-0.143c-1.747,0 -3.386,0.178 -4.456,0.428c1.604,-0.963 3.173,-1.105 6.274,-1.105c0.427,0 0.57,-0.285 0.57,-0.642l0,-2.78l0.962,-0.927l-1.069,-3.208l5.953,0c0.285,0 0.534,-0.178 0.606,-0.427c0.106,-0.25 0.035,-0.535 -0.179,-0.713l-3.671,-3.137c-1.176,-2.067 -4.42,-6.594 -10.586,-6.594c-6.309,0 -10.729,5.168 -10.764,9.838l0,0.107c0,0.178 0,0.392 0.035,0.57c0,0.107 0.036,0.25 0.036,0.356c0,0.072 0,0.143 0.035,0.214c0.036,0.357 0.107,0.678 0.179,0.963l-54.072,0c-2.281,0 -4.134,1.853 -4.134,4.134l0,22.242c0,2.281 1.853,4.135 4.134,4.135l128.388,0c2.282,0 4.135,-1.854 4.135,-4.135l0,-22.206c-0.036,-2.281 -1.853,-4.099 -4.135,-4.099Z" style="fill:#262073;fill-rule:nonzero;"/><path d="M72.25,2.638c-5.561,0 -9.446,4.526 -9.446,8.59c0,3.635 2.281,5.239 3.885,5.239l0.036,0l7.485,-0.285c0.392,-0.035 0.535,-0.107 0.57,-0.142c0.036,-0.036 0.036,-0.179 -0.142,-0.678l-1.034,-2.245c0,0 0,-0.036 -0.036,-0.036c-0.071,-0.214 -0.32,-0.927 0.072,-1.497c0.392,-0.57 1.176,-0.641 1.746,-0.641l8.947,0l-2.388,-2.032c-0.072,-0.036 -0.107,-0.107 -0.143,-0.178c-1.283,-2.317 -4.17,-6.095 -9.552,-6.095Z" style="fill:#efd522;fill-rule:nonzero;"/><path d="M11.014,39.921l3.529,-20.068l4.455,0c1.212,0 2.139,0.535 2.673,1.676l4.741,10.016l2.103,-11.692l5.881,0l-2.816,17.038c-0.214,1.212 -0.82,3.03 -2.923,3.03l-3.992,0l-5.667,-11.798l-2.032,11.798l-5.952,0l0,0Z" style="fill:#efd522;fill-rule:nonzero;"/><path d="M34.717,33.149c0,-3.921 2.994,-9.838 10.372,-9.838c7.343,0 7.735,5.667 7.735,7.129c0,1.746 -1.355,10.087 -10.408,10.087c-7.699,0.035 -7.699,-6.986 -7.699,-7.378Z" style="fill:#efd522;fill-rule:nonzero;"/><path d="M40.242,32.935c0,-2.674 1.853,-6.238 4.312,-6.238c1.854,0 2.709,1.747 2.709,3.885c0,2.139 -1.105,6.487 -4.241,6.487c-2.567,0 -2.78,-3.707 -2.78,-4.134Z" style="fill:#262073;fill-rule:nonzero;"/><path d="M81.374,39.921l2.852,-16.254l-4.67,0c-10.8,0 -13.829,5.311 -13.829,9.838c0,4.17 2.923,6.523 6.629,6.523c1.925,0 3.28,-0.784 3.957,-1.212l-0.143,1.105l5.204,0Z" style="fill:#efd522;fill-rule:nonzero;"/><path d="M53.644,39.921l2.851,-16.254l5.204,0l-0.392,2.317c1.426,-1.39 2.638,-2.637 5.275,-2.637l2.281,0l-2.673,4.241l-2.709,0c-0.998,0 -2.317,0.463 -2.637,2.067l-1.497,8.662c-0.143,0.784 -0.25,1.568 -1.64,1.568l-4.063,0l0,0.036Z" style="fill:#efd522;fill-rule:nonzero;"/><path d="M115.592,32.97c0,-3.92 2.994,-9.837 10.372,-9.837c7.343,0 7.735,5.667 7.735,7.128c0,1.747 -1.354,10.088 -10.444,10.088c-7.663,0 -7.663,-6.987 -7.663,-7.379Z" style="fill:#efd522;fill-rule:nonzero;"/><path d="M121.117,32.721c0,-2.673 1.853,-6.238 4.313,-6.238c1.853,0 2.709,1.747 2.709,3.885c0,2.139 -1.105,6.487 -4.242,6.487c-2.566,0.036 -2.78,-3.706 -2.78,-4.134Z" style="fill:#262073;fill-rule:nonzero;"/><path d="M78.416,26.768l-1.497,8.483c-0.464,0.678 -1.141,1.747 -2.816,1.747c-1.675,0 -3.065,-1.39 -3.065,-3.671c0,-0.535 0.392,-6.559 7.378,-6.559Z" style="fill:#262073;fill-rule:nonzero;"/><path d="M106.111,21.671l-2.495,14.044c-0.357,2.388 0.285,4.562 4.134,4.562c0.785,0 2.781,-0.249 3.886,-0.677l2.103,-4.17c-0.927,0.32 -2.317,0.641 -3.173,0.641c-0.855,0 -1.212,-0.285 -1.105,-1.247l1.284,-7.735l3.564,0l2.103,-3.422l-5.097,0l0.82,-4.455l-6.024,2.459Z" style="fill:#efd522;fill-rule:nonzero;"/><path d="M87.077,23.667l-1.568,9.018c-0.642,4.206 1.818,7.521 7.521,7.521c4.669,0 7.414,-2.459 8.091,-6.024c0.641,-3.6 1.782,-10.479 1.782,-10.479l-5.204,0l-1.853,10.23c-0.286,1.532 -0.535,2.459 -2.709,2.459c-2.175,0 -2.674,-1.604 -2.353,-3.386l1.64,-9.303l-5.347,0l0,-0.036Z" style="fill:#efd522;fill-rule:nonzero;"/></g></svg>