<?xml version="1.0" encoding="UTF-8" standalone="no"?><!DOCTYPE svg PUBLIC "-//W3C//DTD SVG 1.1//EN" "http://www.w3.org/Graphics/SVG/1.1/DTD/svg11.dtd"><svg width="100%" height="100%" viewBox="0 0 93 48" version="1.1" xmlns="http://www.w3.org/2000/svg" xmlns:xlink="http://www.w3.org/1999/xlink" xml:space="preserve" xmlns:serif="http://www.serif.com/" style="fill-rule:evenodd;clip-rule:evenodd;stroke-linejoin:round;stroke-miterlimit:1.41421;"><g id="Content-square" serif:id="Content square"><path d="M9.625,32.828c-0.572,-0.331 -1.041,-1.142 -1.041,-1.803l0,-10.244c0,-0.661 -0.468,-1.473 -1.041,-1.803l-6.502,-3.753c-0.573,-0.33 -1.041,-0.06 -1.041,0.601l0,20.153c0,0.661 0.468,1.472 1.041,1.802l17.452,10.078c0.572,0.331 1.04,0.06 1.04,-0.601l0,-7.506c0,-0.661 -0.468,-1.472 -1.04,-1.803l-8.868,-5.121Z" style="fill:#ffc719;fill-rule:nonzero;"/><path d="M31.681,15.273c0.573,0.33 1.51,0.329 2.082,-0.001l6.498,-3.757c0.573,-0.331 0.572,-0.872 0,-1.202l-17.459,-10.066c-0.572,-0.33 -1.509,-0.329 -2.081,0.002l-17.448,10.085c-0.572,0.331 -0.572,0.872 0.001,1.202l6.503,3.751c0.573,0.331 1.51,0.33 2.082,-0.001l8.869,-5.127c0.572,-0.33 1.509,-0.331 2.082,-0.001l8.871,5.115Z" style="fill:#4aafe3;fill-rule:nonzero;"/><path d="M13.099,20.617c0,-0.661 0.468,-1.471 1.041,-1.802l6.586,-3.802c0.573,-0.331 1.51,-0.331 2.082,0l6.584,3.802c0.573,0.33 1.041,1.141 1.041,1.802l0,7.605c0,0.661 -0.468,1.472 -1.041,1.803l-6.584,3.802c-0.572,0.331 -1.509,0.331 -2.082,0l-6.586,-3.802c-0.573,-0.331 -1.041,-1.142 -1.041,-1.803l0,-7.605Z" style="fill:#495058;fill-rule:nonzero;"/><path d="M25.228,37.949c-0.573,0.33 -1.041,1.142 -1.041,1.803l0,7.506c0,0.661 0.468,0.932 1.041,0.601l17.451,-10.077c0.573,-0.331 1.041,-1.142 1.041,-1.803l0,-20.153c0,-0.661 -0.468,-0.931 -1.041,-0.601l-6.502,3.753c-0.573,0.331 -1.041,1.141 -1.041,1.803l0,10.244c0,0.661 -0.469,1.473 -1.041,1.803l-8.867,5.121Z" style="fill:#f04d4c;fill-rule:nonzero;"/><path d="M48.374,18.901c0,-2 1.444,-3.366 3.249,-3.366c0.918,0 1.688,0.361 2.264,1.024l-0.244,0.215c-0.458,-0.576 -1.21,-0.946 -2.02,-0.946c-1.629,0 -2.907,1.239 -2.907,3.073c0,1.815 1.278,3.074 2.907,3.074c0.81,0 1.562,-0.371 2.02,-0.947l0.254,0.206c-0.615,0.692 -1.356,1.034 -2.274,1.034c-1.805,0 -3.249,-1.366 -3.249,-3.367" style="fill:#495058;fill-rule:nonzero;"/><path d="M58.133,15.828c-1.688,0 -2.752,1.288 -2.752,3.073c0,1.767 1.064,3.074 2.752,3.074c1.668,0 2.752,-1.307 2.752,-3.074c0,-1.785 -1.084,-3.073 -2.752,-3.073m0,-0.293c1.883,0 3.093,1.483 3.093,3.366c0,1.884 -1.21,3.367 -3.093,3.367c-1.893,0 -3.094,-1.483 -3.094,-3.367c0,-1.883 1.201,-3.366 3.094,-3.366" style="fill:#495058;fill-rule:nonzero;"/><path d="M63.188,16.15l0,6.001l-0.312,0l0,-6.509l0.312,0l4.391,5.943l0,-5.943l0.313,0l0,6.509l-0.313,0l-4.391,-6.001Z" style="fill:#495058;fill-rule:nonzero;"/><path d="M71.473,15.935l-2.195,0l0,-0.293l4.713,0l0,0.293l-2.205,0l0,6.216l-0.313,0l0,-6.216Z" style="fill:#495058;fill-rule:nonzero;"/><path d="M75.377,15.642l3.982,0l0,0.293l-3.669,0l0,2.722l3.6,0l0,0.293l-3.6,0l0,2.908l3.669,0l0,0.293l-3.982,0l0,-6.509Z" style="fill:#495058;fill-rule:nonzero;"/><path d="M81.291,16.15l0,6.001l-0.312,0l0,-6.509l0.312,0l4.391,5.943l0,-5.943l0.313,0l0,6.509l-0.313,0l-4.391,-6.001Z" style="fill:#495058;fill-rule:nonzero;"/><path d="M89.576,15.935l-2.195,0l0,-0.293l4.713,0l0,0.293l-2.205,0l0,6.216l-0.313,0l0,-6.216Z" style="fill:#495058;fill-rule:nonzero;"/><path d="M51.463,32.066c0.449,0.478 1.151,0.898 2.059,0.898c0.936,0 1.307,-0.459 1.307,-0.888c0,-0.586 -0.693,-0.761 -1.483,-0.966c-1.064,-0.264 -2.313,-0.576 -2.313,-1.952c0,-1.073 0.947,-1.902 2.371,-1.902c1.015,0 1.835,0.322 2.44,0.907l-0.654,0.849c-0.507,-0.507 -1.2,-0.742 -1.883,-0.742c-0.673,0 -1.103,0.322 -1.103,0.81c0,0.508 0.664,0.674 1.435,0.869c1.073,0.273 2.351,0.605 2.351,2.02c0,1.083 -0.761,2.01 -2.517,2.01c-1.201,0 -2.069,-0.42 -2.645,-1.035l0.635,-0.878Z" style="fill:#495058;fill-rule:nonzero;"/><path d="M61.163,32.769l-0.81,-0.917l0.79,-0.654l0.81,0.907c0.283,-0.4 0.439,-0.917 0.439,-1.493c0,-1.346 -0.849,-2.351 -2.156,-2.351c-1.317,0 -2.157,1.005 -2.157,2.351c0,1.337 0.84,2.352 2.157,2.352c0.341,0 0.654,-0.068 0.927,-0.195m1.532,0.185l0.536,0.605l-0.79,0.664l-0.566,-0.635c-0.468,0.254 -1.024,0.391 -1.639,0.391c-1.952,0 -3.328,-1.425 -3.328,-3.367c0,-1.942 1.376,-3.366 3.328,-3.366c1.951,0 3.327,1.424 3.327,3.366c0,0.937 -0.322,1.747 -0.868,2.342" style="fill:#495058;fill-rule:nonzero;"/><path d="M64.823,27.353l1.151,0l0,3.903c0,1.035 0.576,1.708 1.669,1.708c1.083,0 1.659,-0.673 1.659,-1.708l0,-3.903l1.151,0l0,3.932c0,1.62 -0.927,2.694 -2.81,2.694c-1.893,0 -2.82,-1.083 -2.82,-2.684l0,-3.942Z" style="fill:#495058;fill-rule:nonzero;"/><path d="M73.069,31.608l2.44,0l-1.22,-3.289l-1.22,3.289Zm2.762,1.005l-3.084,0l-0.478,1.249l-1.249,0l2.557,-6.509l1.424,0l2.557,6.509l-1.249,0l-0.478,-1.249Z" style="fill:#495058;fill-rule:nonzero;"/><path d="M81.13,28.358l-1.561,0l0,2.069l1.561,0c0.644,0 1.112,-0.41 1.112,-1.034c0,-0.625 -0.468,-1.035 -1.112,-1.035m-0.43,3.074l-1.131,0l0,2.43l-1.142,0l0,-6.509l2.859,0c1.288,0 2.127,0.839 2.127,2.04c0,1.161 -0.761,1.785 -1.541,1.912l1.59,2.557l-1.317,0l-1.445,-2.43Z" style="fill:#495058;fill-rule:nonzero;"/><path d="M84.712,27.353l4.459,0l0,1.005l-3.317,0l0,1.688l3.249,0l0,1.005l-3.249,0l0,1.806l3.317,0l0,1.005l-4.459,0l0,-6.509Z" style="fill:#495058;fill-rule:nonzero;"/></g></svg>