<?xml version="1.0" encoding="UTF-8" standalone="no"?><!DOCTYPE svg PUBLIC "-//W3C//DTD SVG 1.1//EN" "http://www.w3.org/Graphics/SVG/1.1/DTD/svg11.dtd"><svg width="100%" height="100%" viewBox="0 0 96 48" version="1.1" xmlns="http://www.w3.org/2000/svg" xmlns:xlink="http://www.w3.org/1999/xlink" xml:space="preserve" xmlns:serif="http://www.serif.com/" style="fill-rule:evenodd;clip-rule:evenodd;stroke-linejoin:round;stroke-miterlimit:1.41421;"><rect id="Gold" x="0.079" y="0.188" width="96" height="48" style="fill:none;"/><clipPath id="_clip1"><rect x="0.079" y="0.188" width="96" height="48"/></clipPath><g clip-path="url(#_clip1)"><path d="M19.496,20.891l0,11.648l1.06,0c0.626,0 1.148,-0.082 1.566,-0.247c0.417,-0.164 0.75,-0.428 0.999,-0.789c0.249,-0.361 0.426,-0.823 0.53,-1.385c0.105,-0.562 0.157,-1.241 0.157,-2.036l0,-2.746c0,-0.803 -0.052,-1.486 -0.157,-2.048c-0.104,-0.562 -0.281,-1.02 -0.53,-1.373c-0.249,-0.353 -0.58,-0.612 -0.993,-0.777c-0.414,-0.164 -0.926,-0.247 -1.536,-0.247l-1.096,0Zm-3.542,14.587l0,-17.538l4.638,0c1.012,0 1.933,0.167 2.764,0.5c0.831,0.333 1.542,0.815 2.132,1.445c0.59,0.631 1.048,1.406 1.373,2.325c0.326,0.92 0.488,1.969 0.488,3.15l0,2.722c0,1.181 -0.161,2.228 -0.481,3.144c-0.322,0.915 -0.78,1.688 -1.374,2.319c-0.594,0.63 -1.309,1.11 -2.144,1.439c-0.835,0.329 -1.766,0.494 -2.794,0.494l-4.602,0Z" style="fill:#ef374a;fill-rule:nonzero;"/><path d="M42.153,35.478l-3.541,0l-5.18,-11.503l0,11.503l-3.541,0l0,-17.538l3.541,0l5.192,11.515l0,-11.515l3.529,0l0,17.538Z" style="fill:#ef374a;fill-rule:nonzero;"/><path d="M54.054,27.889l-5.517,0l0,4.65l6.528,0l0,2.939l-10.069,0l0,-17.538l10.045,0l0,2.951l-6.504,0l0,4.143l5.517,0l0,2.855Z" style="fill:#ef374a;fill-rule:nonzero;"/><path d="M65.894,25.348c0,-0.835 -0.06,-1.548 -0.18,-2.138c-0.121,-0.591 -0.298,-1.074 -0.53,-1.452c-0.234,-0.377 -0.522,-0.654 -0.867,-0.831c-0.346,-0.176 -0.743,-0.265 -1.193,-0.265c-0.458,0 -0.859,0.089 -1.204,0.265c-0.346,0.177 -0.635,0.454 -0.868,0.831c-0.233,0.378 -0.409,0.861 -0.53,1.452c-0.12,0.59 -0.181,1.303 -0.181,2.138l0,2.939c0,0.795 0.061,1.475 0.181,2.041c0.121,0.567 0.299,1.03 0.536,1.392c0.237,0.361 0.53,0.626 0.879,0.795c0.35,0.168 0.753,0.253 1.211,0.253c0.45,0 0.845,-0.085 1.187,-0.253c0.341,-0.169 0.627,-0.434 0.861,-0.795c0.233,-0.362 0.407,-0.825 0.524,-1.392c0.116,-0.566 0.174,-1.246 0.174,-2.041l0,-2.939Zm3.554,2.939c0,1.228 -0.153,2.309 -0.458,3.24c-0.305,0.932 -0.733,1.707 -1.283,2.325c-0.55,0.618 -1.212,1.084 -1.987,1.397c-0.775,0.313 -1.633,0.47 -2.572,0.47c-0.939,0 -1.799,-0.157 -2.578,-0.47c-0.779,-0.313 -1.447,-0.779 -2.005,-1.397c-0.558,-0.618 -0.992,-1.393 -1.301,-2.325c-0.309,-0.931 -0.464,-2.012 -0.464,-3.24l0,-2.915c0,-1.261 0.153,-2.371 0.458,-3.33c0.305,-0.96 0.735,-1.761 1.289,-2.404c0.554,-0.642 1.22,-1.126 1.999,-1.451c0.779,-0.325 1.638,-0.488 2.578,-0.488c0.94,0 1.797,0.163 2.572,0.488c0.774,0.325 1.441,0.809 1.999,1.451c0.558,0.643 0.99,1.444 1.295,2.404c0.305,0.959 0.458,2.069 0.458,3.33l0,2.915Z" style="fill:#ef374a;fill-rule:nonzero;"/><path d="M76.615,17.94l3.312,12.684l3.301,-12.684l4.625,0l0,17.538l-3.554,0l0,-4.746l0.326,-7.312l-3.505,12.058l-2.409,0l-3.506,-12.058l0.325,7.312l0,4.746l-3.541,0l0,-17.538l4.626,0Z" style="fill:#ef374a;fill-rule:nonzero;"/><path d="M5.535,28.937l3.276,0l-1.638,-6.251l-1.638,6.251Zm4.059,2.952l-4.83,0l-0.939,3.589l-3.746,0l5.48,-17.538l3.24,0l5.517,17.538l-3.782,0l-0.94,-3.589Z" style="fill:#ef374a;fill-rule:nonzero;"/><path d="M92.161,14.96l1.175,0c0.287,0 0.52,-0.233 0.52,-0.521c0,-0.287 -0.233,-0.52 -0.52,-0.52l-1.175,0c-0.288,0 -0.521,0.233 -0.521,0.52c0,0.288 0.233,0.521 0.521,0.521Z" style="fill:#ef374a;fill-rule:nonzero;"/><path d="M91.707,16.508l-0.641,0c-0.287,0 -0.52,0.233 -0.52,0.521c0,0.287 0.233,0.521 0.52,0.521l0.641,0c0.287,0 0.52,-0.234 0.52,-0.521c0,-0.288 -0.233,-0.521 -0.52,-0.521Z" style="fill:#ef374a;fill-rule:nonzero;"/><path d="M94.47,15.707c0,-0.28 -0.227,-0.507 -0.507,-0.507l-2.403,0c-0.28,0 -0.507,0.227 -0.507,0.507c0,0.28 0.227,0.508 0.507,0.508l2.403,0c0.28,0 0.507,-0.228 0.507,-0.508Z" style="fill:#ef374a;fill-rule:nonzero;"/><path d="M92.748,18.791c-1.548,0 -2.803,-1.255 -2.803,-2.803c0,-1.549 1.255,-2.803 2.803,-2.803c1.548,0 2.803,1.254 2.803,2.803c0,1.548 -1.255,2.803 -2.803,2.803Zm3.331,-2.803c0,-1.84 -1.492,-3.331 -3.331,-3.331c-1.839,0 -3.331,1.491 -3.331,3.331c0,1.839 1.492,3.33 3.331,3.33c1.839,0 3.331,-1.491 3.331,-3.33Z" style="fill:#ef374a;fill-rule:nonzero;"/><path d="M94.457,16.508l-0.641,0c-0.288,0 -0.521,0.233 -0.521,0.521c0,0.287 0.233,0.521 0.521,0.521l0.641,0c0.287,0 0.52,-0.234 0.52,-0.521c0,-0.288 -0.233,-0.521 -0.52,-0.521Z" style="fill:#ef374a;fill-rule:nonzero;"/></g></svg>