<?xml version="1.0" encoding="UTF-8" standalone="no"?><!DOCTYPE svg PUBLIC "-//W3C//DTD SVG 1.1//EN" "http://www.w3.org/Graphics/SVG/1.1/DTD/svg11.dtd"><svg width="100%" height="100%" viewBox="0 0 144 48" version="1.1" xmlns="http://www.w3.org/2000/svg" xmlns:xlink="http://www.w3.org/1999/xlink" xml:space="preserve" xmlns:serif="http://www.serif.com/" style="fill-rule:evenodd;clip-rule:evenodd;stroke-linejoin:round;stroke-miterlimit:1.41421;"><rect id="Platine" x="0" y="0" width="144" height="48" style="fill:none;"/><g id="Coliweb"><path d="M106.179,18.384l-3.522,8.057l-0.053,0l-1.254,-8.057l-4.322,0l-3.309,8.057l-0.053,0l-1.148,-6.243l2.589,-17.69c0,-1.387 -1.121,-2.508 -2.508,-2.508l-42.931,0c-1.387,0 -2.508,1.121 -2.508,2.508l-2.135,14.648l-39.462,1.254l39.089,1.228l-1.468,10.005l-14.594,0.881l14.328,0.88l-2.055,14.088c0,1.387 1.121,2.508 2.508,2.508l42.904,0c1.387,0 2.508,-1.121 2.508,-2.508l2.081,-14.301l3.949,0l3.549,-8.538l0.053,0l1.468,8.538l3.895,0l6.35,-12.834l-3.949,0l0,0.027Zm15.369,1.52c-0.427,-0.587 -1.014,-1.04 -1.708,-1.36c-0.693,-0.321 -1.521,-0.481 -2.428,-0.481c-0.987,0 -1.921,0.16 -2.855,0.481c-0.907,0.32 -1.734,0.773 -2.454,1.36c-0.721,0.587 -1.334,1.308 -1.815,2.135c-0.48,0.827 -0.8,1.761 -0.934,2.775c-0.133,1.014 -0.08,1.948 0.161,2.775c0.266,0.827 0.667,1.547 1.2,2.134c0.561,0.587 1.254,1.041 2.081,1.361c0.828,0.32 1.735,0.48 2.722,0.48c1.04,0 2.081,-0.213 3.095,-0.667c1.041,-0.427 1.921,-1.067 2.641,-1.868l-2.481,-2.027c-0.4,0.453 -0.854,0.827 -1.334,1.12c-0.48,0.294 -1.041,0.427 -1.708,0.427c-0.773,0 -1.387,-0.213 -1.867,-0.667c-0.454,-0.453 -0.721,-1.04 -0.774,-1.814l9.178,0l0.187,-1.254c0.133,-1.014 0.133,-1.948 -0.027,-2.775c-0.16,-0.854 -0.453,-1.548 -0.88,-2.135Zm-2.828,3.442l-5.23,0c0.08,-0.32 0.187,-0.613 0.374,-0.907c0.186,-0.293 0.4,-0.533 0.667,-0.774c0.267,-0.213 0.56,-0.4 0.934,-0.533c0.346,-0.134 0.747,-0.214 1.174,-0.214c0.72,0 1.28,0.24 1.654,0.721c0.4,0.453 0.533,1.04 0.427,1.707l0,0Zm19.584,-1.014c-0.16,-0.827 -0.427,-1.547 -0.854,-2.187c-0.427,-0.641 -0.96,-1.148 -1.627,-1.521c-0.668,-0.374 -1.468,-0.561 -2.375,-0.561c-0.827,0 -1.601,0.134 -2.348,0.374c-0.747,0.267 -1.388,0.694 -1.948,1.307l-0.053,0l1.2,-8.511l-3.948,0l-2.775,19.984l3.628,0l0.214,-1.681l0.053,0c0.134,0.241 0.294,0.454 0.534,0.694c0.24,0.24 0.507,0.454 0.827,0.64c0.32,0.187 0.667,0.347 1.067,0.481c0.374,0.133 0.801,0.187 1.254,0.187c0.961,0 1.841,-0.161 2.642,-0.481c0.827,-0.32 1.547,-0.774 2.188,-1.361c0.64,-0.586 1.147,-1.28 1.574,-2.107c0.4,-0.801 0.694,-1.708 0.827,-2.668c0.08,-0.908 0.08,-1.788 -0.08,-2.589Zm-3.869,2.455c-0.133,0.961 -0.534,1.761 -1.174,2.348c-0.64,0.587 -1.467,0.907 -2.455,0.907c-1.014,0 -1.734,-0.293 -2.187,-0.907c-0.454,-0.587 -0.641,-1.387 -0.481,-2.348c0.134,-0.96 0.534,-1.761 1.148,-2.348c0.64,-0.587 1.44,-0.907 2.454,-0.907c1.014,0 1.735,0.293 2.215,0.907c0.453,0.614 0.613,1.388 0.48,2.348l0,0Z" style="fill:#39b7d3;fill-rule:nonzero;"/><path d="M42.757,23.4l-24.413,1.307l24.413,1.334l0,-2.641Z" style="fill:#39b7d3;fill-rule:nonzero;"/><path d="M48.04,27.429c-0.346,0.186 -0.747,0.293 -1.174,0.293c-1.013,0 -1.734,-0.293 -2.187,-0.907c-0.454,-0.587 -0.641,-1.388 -0.481,-2.348c0.134,-0.961 0.534,-1.761 1.148,-2.348c0.64,-0.587 1.44,-0.907 2.454,-0.907c0.401,0 0.774,0.08 1.094,0.267c0.32,0.186 0.561,0.427 0.721,0.693l2.988,-2.748c-0.534,-0.64 -1.201,-1.067 -2.001,-1.334c-0.801,-0.267 -1.574,-0.373 -2.321,-0.373c-0.988,0 -1.922,0.16 -2.855,0.48c-0.908,0.32 -1.735,0.774 -2.455,1.361c-0.72,0.587 -1.334,1.307 -1.814,2.134c-0.481,0.827 -0.801,1.761 -0.934,2.775c-0.134,1.014 -0.08,1.948 0.16,2.775c0.267,0.827 0.667,1.547 1.2,2.134c0.561,0.587 1.255,1.041 2.082,1.361c0.827,0.32 1.734,0.48 2.721,0.48c0.747,0 1.574,-0.133 2.428,-0.373c0.854,-0.267 1.654,-0.694 2.375,-1.334l-2.215,-2.748c-0.267,0.266 -0.587,0.48 -0.934,0.667l0,0Zm16.756,-7.952c-0.56,-0.587 -1.254,-1.04 -2.081,-1.36c-0.827,-0.32 -1.734,-0.481 -2.721,-0.481c-0.987,0 -1.921,0.161 -2.855,0.481c-0.907,0.32 -1.734,0.773 -2.455,1.36c-0.72,0.587 -1.334,1.308 -1.814,2.135c-0.481,0.827 -0.801,1.761 -0.934,2.775c-0.133,1.014 -0.08,1.948 0.16,2.775c0.267,0.827 0.667,1.547 1.201,2.134c0.56,0.587 1.254,1.041 2.081,1.361c0.827,0.32 1.734,0.48 2.721,0.48c0.988,0 1.921,-0.16 2.855,-0.48c0.907,-0.32 1.735,-0.774 2.455,-1.361c0.72,-0.587 1.334,-1.307 1.814,-2.134c0.481,-0.827 0.801,-1.761 0.961,-2.775c0.133,-1.014 0.08,-1.948 -0.16,-2.775c-0.267,-0.827 -0.667,-1.548 -1.228,-2.135Zm-2.561,4.91c-0.133,0.96 -0.534,1.761 -1.174,2.348c-0.64,0.587 -1.468,0.907 -2.455,0.907c-1.014,0 -1.734,-0.293 -2.188,-0.907c-0.453,-0.587 -0.64,-1.388 -0.48,-2.348c0.134,-0.961 0.534,-1.761 1.147,-2.348c0.641,-0.587 1.441,-0.907 2.455,-0.907c1.014,0 1.734,0.293 2.215,0.907c0.453,0.587 0.64,1.361 0.48,2.348l0,0Zm5.443,6.403l3.949,0l2.801,-19.957l-3.975,0l-2.775,19.957Zm6.857,0l3.949,0l1.788,-12.833l-3.949,0l-1.788,12.833Zm6.617,-16.862c0.08,-0.641 -0.053,-1.174 -0.427,-1.628c-0.373,-0.453 -0.88,-0.667 -1.521,-0.667c-0.32,0 -0.613,0.053 -0.933,0.187c-0.294,0.133 -0.561,0.293 -0.801,0.48c-0.24,0.214 -0.427,0.454 -0.587,0.721c-0.16,0.293 -0.267,0.587 -0.32,0.907c-0.027,0.32 0,0.613 0.053,0.907c0.08,0.293 0.214,0.534 0.374,0.72c0.187,0.214 0.4,0.374 0.667,0.481c0.267,0.133 0.56,0.186 0.88,0.186c0.321,0 0.614,-0.053 0.934,-0.186c0.294,-0.134 0.561,-0.294 0.801,-0.481c0.24,-0.213 0.427,-0.453 0.587,-0.72c0.16,-0.294 0.24,-0.587 0.293,-0.907Zm9.579,9.872c-0.454,-0.294 -0.961,-0.48 -1.521,-0.614c-0.56,-0.133 -1.067,-0.267 -1.548,-0.373c-0.48,-0.107 -0.88,-0.24 -1.174,-0.401c-0.32,-0.16 -0.453,-0.373 -0.4,-0.693c0.054,-0.4 0.24,-0.667 0.587,-0.827c0.347,-0.16 0.667,-0.241 1.014,-0.241c0.961,0 1.681,0.374 2.161,1.094l2.749,-2.401c-0.507,-0.64 -1.174,-1.067 -2.002,-1.334c-0.827,-0.24 -1.654,-0.374 -2.508,-0.374c-0.667,0 -1.334,0.081 -2.001,0.241c-0.667,0.16 -1.28,0.427 -1.841,0.773c-0.56,0.347 -1.014,0.801 -1.414,1.334c-0.373,0.534 -0.64,1.201 -0.747,1.948c-0.133,0.801 -0.053,1.468 0.213,1.948c0.267,0.48 0.641,0.854 1.094,1.121c0.454,0.266 0.988,0.453 1.521,0.587c0.561,0.133 1.067,0.266 1.548,0.373c0.48,0.107 0.88,0.267 1.174,0.427c0.32,0.16 0.427,0.427 0.373,0.747c-0.053,0.347 -0.267,0.587 -0.667,0.72c-0.373,0.134 -0.8,0.187 -1.254,0.187c-0.587,0 -1.094,-0.106 -1.521,-0.347c-0.4,-0.24 -0.773,-0.587 -1.094,-1.04l-2.774,2.668c0.533,0.64 1.254,1.094 2.134,1.361c0.881,0.267 1.761,0.373 2.668,0.373c0.694,0 1.388,-0.053 2.108,-0.187c0.72,-0.133 1.388,-0.373 2.001,-0.693c0.614,-0.32 1.121,-0.747 1.574,-1.308c0.427,-0.533 0.721,-1.227 0.828,-2.054c0.106,-0.801 0.026,-1.468 -0.214,-1.948c-0.24,-0.4 -0.614,-0.774 -1.067,-1.067l0,0Zm-46.159,13.341l0.747,-3.549l0.4,0l-0.667,3.175l1.361,0l-0.08,0.374l-1.761,0Zm2.695,0l-0.401,0l0.561,-2.669l0.4,0l-0.56,2.669Zm0.293,-3.336c0,-0.08 0.027,-0.16 0.08,-0.213c0.054,-0.053 0.107,-0.08 0.214,-0.08c0.133,0 0.213,0.08 0.213,0.213c0,0.08 -0.027,0.16 -0.08,0.214c-0.053,0.053 -0.107,0.08 -0.187,0.08c-0.053,0 -0.106,-0.027 -0.16,-0.053c-0.08,-0.027 -0.08,-0.081 -0.08,-0.161l0,0Zm0.961,3.336l-0.294,-2.669l0.4,0l0.16,1.495c0.027,0.427 0.054,0.72 0.054,0.88l0.027,0c0.213,-0.453 0.346,-0.747 0.426,-0.907l0.801,-1.468l0.427,0l-1.441,2.669l-0.56,0Zm3.575,-2.695c0.107,0 0.213,0 0.293,0.026l-0.08,0.374c-0.08,-0.027 -0.16,-0.027 -0.266,-0.027c-0.16,0 -0.294,0.054 -0.401,0.134c-0.133,0.106 -0.24,0.24 -0.346,0.4c-0.107,0.16 -0.161,0.374 -0.214,0.587l-0.267,1.227l-0.4,0l0.56,-2.668l0.347,0l-0.053,0.48l0.027,0c0.106,-0.16 0.213,-0.266 0.293,-0.32c0.08,-0.08 0.16,-0.106 0.24,-0.16c0.08,-0.053 0.16,-0.053 0.267,-0.053l0,0Zm1.708,0c0.16,0 0.293,0.026 0.4,0.133c0.107,0.08 0.213,0.187 0.267,0.347l0.026,0l0.16,-0.427l0.321,0l-0.561,2.668l-0.32,0l0.053,-0.507l-0.026,0c-0.294,0.374 -0.587,0.561 -0.907,0.561c-0.214,0 -0.401,-0.08 -0.534,-0.24c-0.133,-0.161 -0.187,-0.374 -0.187,-0.667c0,-0.347 0.054,-0.641 0.16,-0.934c0.107,-0.294 0.267,-0.507 0.481,-0.667c0.186,-0.187 0.426,-0.267 0.667,-0.267Zm-0.481,2.428c0.16,0 0.321,-0.08 0.481,-0.214c0.16,-0.16 0.293,-0.346 0.373,-0.587c0.107,-0.24 0.134,-0.48 0.134,-0.72c0,-0.16 -0.054,-0.294 -0.134,-0.4c-0.08,-0.107 -0.213,-0.16 -0.347,-0.16c-0.16,0 -0.32,0.08 -0.48,0.213c-0.133,0.134 -0.267,0.32 -0.347,0.56c-0.08,0.241 -0.133,0.481 -0.133,0.748c0,0.186 0.026,0.32 0.106,0.426c0.107,0.08 0.214,0.134 0.347,0.134l0,0Zm2.268,0.267l-0.4,0l0.56,-2.669l0.401,0l-0.561,2.669Zm0.294,-3.336c0,-0.08 0.026,-0.16 0.08,-0.213c0.053,-0.053 0.107,-0.08 0.213,-0.08c0.134,0 0.214,0.08 0.214,0.213c0,0.08 -0.027,0.16 -0.08,0.214c-0.054,0.053 -0.107,0.08 -0.187,0.08c-0.053,0 -0.107,-0.027 -0.16,-0.053c-0.08,-0.027 -0.08,-0.081 -0.08,-0.161l0,0Zm2.214,2.589c0,0.24 -0.08,0.453 -0.266,0.587c-0.187,0.133 -0.427,0.213 -0.748,0.213c-0.266,0 -0.507,-0.053 -0.747,-0.16l0,-0.374c0.107,0.08 0.24,0.134 0.374,0.16c0.133,0.027 0.24,0.054 0.373,0.054c0.214,0 0.347,-0.054 0.454,-0.134c0.107,-0.08 0.16,-0.186 0.16,-0.32c0,-0.08 -0.027,-0.16 -0.08,-0.24c-0.053,-0.053 -0.187,-0.16 -0.373,-0.267c-0.214,-0.106 -0.347,-0.24 -0.454,-0.347c-0.08,-0.106 -0.133,-0.24 -0.133,-0.4c0,-0.213 0.08,-0.4 0.24,-0.533c0.16,-0.134 0.373,-0.214 0.64,-0.214c0.267,0 0.534,0.053 0.8,0.187l-0.133,0.32l-0.133,-0.053c-0.16,-0.08 -0.347,-0.107 -0.534,-0.107c-0.16,0 -0.267,0.027 -0.347,0.107c-0.08,0.08 -0.133,0.16 -0.133,0.267c0,0.08 0.026,0.16 0.08,0.24c0.053,0.053 0.187,0.16 0.347,0.24c0.16,0.107 0.293,0.187 0.373,0.24c0.08,0.08 0.134,0.133 0.16,0.213c0.054,0.134 0.08,0.214 0.08,0.321l0,0Zm1.895,-1.948c0.32,0 0.56,0.08 0.72,0.267c0.187,0.186 0.267,0.427 0.267,0.747c0,0.293 -0.053,0.587 -0.187,0.854c-0.107,0.266 -0.267,0.48 -0.48,0.613c-0.214,0.134 -0.427,0.214 -0.667,0.214c-0.32,0 -0.56,-0.08 -0.721,-0.267c-0.186,-0.187 -0.266,-0.427 -0.266,-0.747c0,-0.32 0.053,-0.587 0.186,-0.881c0.107,-0.267 0.267,-0.48 0.481,-0.613c0.186,-0.107 0.427,-0.187 0.667,-0.187Zm0.56,0.987c0,-0.187 -0.053,-0.347 -0.16,-0.454c-0.107,-0.106 -0.24,-0.186 -0.4,-0.186c-0.187,0 -0.347,0.053 -0.481,0.186c-0.133,0.107 -0.24,0.294 -0.32,0.507c-0.08,0.214 -0.106,0.454 -0.106,0.721c0,0.213 0.053,0.373 0.16,0.48c0.106,0.107 0.24,0.187 0.453,0.187c0.16,0 0.32,-0.054 0.454,-0.187c0.133,-0.107 0.24,-0.293 0.32,-0.507c0.053,-0.213 0.08,-0.48 0.08,-0.747l0,0Zm2.428,1.708l0.347,-1.681c0.027,-0.16 0.053,-0.294 0.053,-0.347c0,-0.107 -0.026,-0.187 -0.08,-0.24c-0.053,-0.054 -0.16,-0.08 -0.267,-0.08c-0.133,0 -0.293,0.053 -0.426,0.133c-0.134,0.107 -0.267,0.24 -0.374,0.427c-0.107,0.187 -0.187,0.4 -0.24,0.64l-0.24,1.148l-0.401,0l0.561,-2.669l0.347,0l-0.054,0.481l0.027,0c0.16,-0.187 0.293,-0.347 0.454,-0.427c0.133,-0.08 0.293,-0.134 0.453,-0.134c0.214,0 0.374,0.054 0.48,0.161c0.107,0.106 0.187,0.266 0.187,0.48c0,0.133 -0.027,0.267 -0.053,0.427l-0.347,1.627l-0.427,0l0,0.054Zm2.935,0l-0.4,0l0.56,-2.669l0.4,0l-0.56,2.669Zm0.267,-3.336c0,-0.08 0.027,-0.16 0.08,-0.213c0.053,-0.053 0.107,-0.08 0.213,-0.08c0.134,0 0.214,0.08 0.214,0.213c0,0.08 -0.027,0.16 -0.08,0.214c-0.054,0.053 -0.107,0.08 -0.187,0.08c-0.053,0 -0.107,-0.027 -0.16,-0.053c-0.053,-0.027 -0.08,-0.081 -0.08,-0.161l0,0Zm2.134,3.336l0.347,-1.681c0.027,-0.16 0.054,-0.267 0.054,-0.32c0,-0.107 -0.027,-0.214 -0.08,-0.267c-0.054,-0.054 -0.134,-0.107 -0.267,-0.107c-0.134,0 -0.267,0.053 -0.401,0.133c-0.133,0.107 -0.24,0.241 -0.346,0.427c-0.107,0.187 -0.16,0.401 -0.214,0.641l-0.24,1.147l-0.4,0l0.56,-2.668l0.347,0l-0.053,0.48l0.026,0c0.134,-0.187 0.294,-0.32 0.427,-0.427c0.134,-0.08 0.294,-0.133 0.427,-0.133c0.187,0 0.32,0.053 0.427,0.16c0.107,0.107 0.16,0.24 0.187,0.427l0.026,0c0.134,-0.214 0.294,-0.347 0.454,-0.454c0.16,-0.107 0.32,-0.16 0.48,-0.16c0.214,0 0.374,0.053 0.481,0.16c0.106,0.107 0.16,0.267 0.16,0.48c0,0.107 -0.027,0.267 -0.054,0.427l-0.347,1.628l-0.453,0l0.347,-1.681c0.026,-0.16 0.053,-0.294 0.053,-0.347c0,-0.107 -0.027,-0.187 -0.08,-0.24c-0.053,-0.053 -0.133,-0.08 -0.267,-0.08c-0.133,0 -0.267,0.053 -0.4,0.133c-0.133,0.107 -0.24,0.24 -0.347,0.401c-0.107,0.16 -0.16,0.373 -0.213,0.613l-0.267,1.228l-0.374,0l0,0.08Zm4.323,0l0.347,-1.681c0.026,-0.16 0.053,-0.267 0.053,-0.32c0,-0.107 -0.027,-0.214 -0.08,-0.267c-0.053,-0.054 -0.133,-0.107 -0.267,-0.107c-0.133,0 -0.267,0.053 -0.4,0.133c-0.134,0.107 -0.24,0.241 -0.347,0.427c-0.107,0.187 -0.16,0.401 -0.213,0.641l-0.241,1.147l-0.4,0l0.561,-2.668l0.346,0l-0.053,0.48l0.027,0c0.133,-0.187 0.293,-0.32 0.427,-0.427c0.133,-0.08 0.293,-0.133 0.427,-0.133c0.186,0 0.32,0.053 0.426,0.16c0.107,0.107 0.161,0.24 0.187,0.427l0.027,0c0.133,-0.214 0.293,-0.347 0.453,-0.454c0.161,-0.107 0.321,-0.16 0.481,-0.16c0.213,0 0.373,0.053 0.48,0.16c0.107,0.107 0.16,0.267 0.16,0.48c0,0.107 -0.027,0.267 -0.053,0.427l-0.347,1.628l-0.4,0l0.346,-1.681c0.027,-0.16 0.054,-0.294 0.054,-0.347c0,-0.107 -0.027,-0.187 -0.08,-0.24c-0.054,-0.053 -0.134,-0.08 -0.267,-0.08c-0.133,0 -0.267,0.053 -0.4,0.133c-0.134,0.107 -0.24,0.24 -0.347,0.401c-0.107,0.16 -0.16,0.373 -0.214,0.613l-0.266,1.228l-0.427,0l0,0.08Zm3.842,0.053c-0.294,0 -0.534,-0.08 -0.694,-0.267c-0.16,-0.187 -0.267,-0.427 -0.267,-0.72c0,-0.294 0.054,-0.587 0.187,-0.881c0.134,-0.267 0.267,-0.507 0.48,-0.64c0.187,-0.16 0.427,-0.24 0.667,-0.24c0.241,0 0.427,0.053 0.561,0.16c0.133,0.107 0.187,0.267 0.187,0.453c0,0.294 -0.134,0.507 -0.401,0.694c-0.267,0.16 -0.64,0.24 -1.147,0.24l-0.08,0l0,0.187c0,0.214 0.053,0.374 0.16,0.507c0.107,0.107 0.24,0.187 0.454,0.187c0.106,0 0.213,-0.027 0.32,-0.054c0.107,-0.026 0.24,-0.08 0.4,-0.16l0,0.347c-0.16,0.08 -0.293,0.134 -0.4,0.16c-0.16,0.027 -0.294,0.027 -0.427,0.027l0,0Zm0.347,-2.401c-0.16,0 -0.32,0.08 -0.481,0.24c-0.16,0.16 -0.266,0.373 -0.346,0.64l0.026,0c0.374,0 0.641,-0.053 0.854,-0.133c0.187,-0.107 0.294,-0.24 0.294,-0.427c0,-0.08 -0.027,-0.16 -0.08,-0.214c-0.054,-0.08 -0.161,-0.106 -0.267,-0.106Zm-0.134,-0.721c0.08,-0.106 0.187,-0.213 0.294,-0.373c0.107,-0.16 0.187,-0.267 0.267,-0.374l0.453,0l0,0.054c-0.053,0.08 -0.187,0.213 -0.347,0.373c-0.16,0.16 -0.32,0.294 -0.427,0.374l-0.266,0l0,-0.054l0.026,0Zm2.588,0.374c0.321,0 0.534,0.16 0.694,0.453l0.027,0c0.027,-0.24 0.053,-0.48 0.107,-0.667l0.186,-0.88l0.401,0l-0.801,3.789l-0.347,0l0.054,-0.507l-0.027,0c-0.16,0.213 -0.32,0.347 -0.454,0.427c-0.133,0.08 -0.293,0.133 -0.453,0.133c-0.214,0 -0.4,-0.08 -0.534,-0.24c-0.133,-0.16 -0.187,-0.374 -0.187,-0.667c0,-0.347 0.054,-0.667 0.187,-0.961c0.107,-0.293 0.267,-0.507 0.48,-0.667c0.214,-0.16 0.427,-0.213 0.667,-0.213l0,0Zm-0.453,2.428c0.16,0 0.32,-0.08 0.48,-0.24c0.16,-0.16 0.294,-0.347 0.374,-0.587c0.106,-0.24 0.133,-0.481 0.133,-0.721c0,-0.186 -0.053,-0.32 -0.133,-0.4c-0.08,-0.107 -0.214,-0.133 -0.374,-0.133c-0.16,0 -0.32,0.08 -0.453,0.213c-0.134,0.134 -0.241,0.32 -0.347,0.56c-0.08,0.241 -0.134,0.507 -0.134,0.774c0,0.347 0.16,0.534 0.454,0.534l0,0Zm2.321,0.267l-0.4,0l0.56,-2.669l0.4,0l-0.56,2.669Zm0.267,-3.336c0,-0.08 0.027,-0.16 0.08,-0.213c0.053,-0.053 0.107,-0.08 0.213,-0.08c0.134,0 0.214,0.08 0.214,0.213c0,0.08 -0.027,0.16 -0.08,0.214c-0.054,0.053 -0.107,0.08 -0.187,0.08c-0.053,0 -0.107,-0.027 -0.16,-0.053c-0.053,-0.027 -0.08,-0.081 -0.08,-0.161l0,0Zm2.001,0.641c0.16,0 0.294,0.026 0.4,0.133c0.107,0.08 0.214,0.187 0.267,0.347l0.027,0l0.16,-0.427l0.32,0l-0.56,2.668l-0.32,0l0.053,-0.507l-0.027,0c-0.293,0.374 -0.587,0.561 -0.907,0.561c-0.213,0 -0.4,-0.08 -0.534,-0.24c-0.133,-0.161 -0.186,-0.374 -0.186,-0.667c0,-0.347 0.053,-0.641 0.16,-0.934c0.106,-0.294 0.267,-0.507 0.48,-0.667c0.187,-0.187 0.427,-0.267 0.667,-0.267l0,0Zm-0.48,2.428c0.16,0 0.32,-0.08 0.48,-0.214c0.16,-0.133 0.294,-0.346 0.374,-0.587c0.106,-0.24 0.133,-0.48 0.133,-0.72c0,-0.16 -0.053,-0.294 -0.133,-0.4c-0.08,-0.107 -0.214,-0.16 -0.347,-0.16c-0.16,0 -0.32,0.08 -0.481,0.213c-0.133,0.134 -0.266,0.32 -0.346,0.56c-0.08,0.241 -0.134,0.481 -0.134,0.748c0,0.186 0.027,0.32 0.107,0.426c0.107,0.08 0.213,0.134 0.347,0.134l0,0Zm2.695,0c0.08,0 0.213,-0.027 0.346,-0.054l0,0.321c-0.053,0.026 -0.133,0.053 -0.213,0.053c-0.08,0.027 -0.133,0.027 -0.187,0.027c-0.213,0 -0.347,-0.054 -0.453,-0.134c-0.107,-0.106 -0.16,-0.24 -0.16,-0.427c0,-0.106 0.026,-0.24 0.053,-0.373l0.32,-1.468l-0.427,0l0.027,-0.186l0.454,-0.187l0.293,-0.561l0.24,0l-0.133,0.614l0.667,0l-0.054,0.32l-0.667,0l-0.32,1.468c-0.026,0.133 -0.053,0.24 -0.053,0.32c0,0.08 0.027,0.16 0.08,0.213c0.027,0.027 0.08,0.054 0.187,0.054Zm1.841,0.32c-0.294,0 -0.534,-0.08 -0.694,-0.267c-0.16,-0.187 -0.267,-0.427 -0.267,-0.72c0,-0.294 0.053,-0.587 0.187,-0.881c0.133,-0.267 0.267,-0.507 0.48,-0.64c0.187,-0.16 0.427,-0.24 0.667,-0.24c0.24,0 0.427,0.053 0.561,0.16c0.133,0.107 0.186,0.267 0.186,0.453c0,0.294 -0.133,0.507 -0.4,0.694c-0.267,0.16 -0.64,0.24 -1.147,0.24l-0.107,0l0,0.187c0,0.214 0.053,0.374 0.16,0.507c0.107,0.107 0.24,0.187 0.454,0.187c0.106,0 0.213,-0.027 0.32,-0.054c0.107,-0.026 0.24,-0.08 0.4,-0.16l0,0.347c-0.16,0.08 -0.293,0.134 -0.4,0.16c-0.134,0.027 -0.267,0.027 -0.4,0.027l0,0Zm0.32,-2.401c-0.16,0 -0.32,0.08 -0.48,0.24c-0.134,0.16 -0.267,0.373 -0.347,0.64l0.026,0c0.374,0 0.641,-0.053 0.854,-0.133c0.187,-0.107 0.294,-0.24 0.294,-0.427c0,-0.08 -0.027,-0.16 -0.08,-0.214c-0.054,-0.08 -0.134,-0.106 -0.267,-0.106Z" style="fill:#fff;fill-rule:nonzero;"/><path d="M92.865,34.446c0.32,0 0.561,0.08 0.721,0.267c0.186,0.186 0.267,0.427 0.267,0.747c0,0.293 -0.054,0.587 -0.187,0.854c-0.107,0.266 -0.267,0.48 -0.481,0.613c-0.186,0.16 -0.426,0.214 -0.667,0.214c-0.32,0 -0.56,-0.08 -0.72,-0.267c-0.187,-0.187 -0.267,-0.427 -0.267,-0.747c0,-0.32 0.054,-0.587 0.187,-0.881c0.107,-0.267 0.267,-0.48 0.48,-0.613c0.187,-0.107 0.427,-0.187 0.667,-0.187Zm0.561,0.987c0,-0.187 -0.054,-0.347 -0.16,-0.454c-0.107,-0.106 -0.241,-0.186 -0.401,-0.186c-0.186,0 -0.347,0.053 -0.48,0.186c-0.133,0.107 -0.24,0.294 -0.32,0.507c-0.08,0.214 -0.107,0.454 -0.107,0.721c0,0.213 0.054,0.373 0.16,0.48c0.107,0.107 0.24,0.187 0.454,0.187c0.16,0 0.32,-0.054 0.453,-0.187c0.134,-0.107 0.241,-0.293 0.321,-0.507c0.053,-0.213 0.08,-0.48 0.08,-0.747Zm1.761,-0.934l-0.374,1.681c-0.027,0.134 -0.053,0.267 -0.053,0.347c0,0.24 0.106,0.347 0.347,0.347c0.133,0 0.293,-0.054 0.426,-0.134c0.134,-0.106 0.267,-0.24 0.374,-0.426c0.107,-0.187 0.187,-0.401 0.24,-0.668l0.24,-1.147l0.4,0l-0.56,2.668l-0.347,0l0.054,-0.48l-0.027,0c-0.16,0.214 -0.32,0.347 -0.454,0.427c-0.133,0.08 -0.293,0.107 -0.453,0.107c-0.214,0 -0.374,-0.054 -0.48,-0.16c-0.107,-0.107 -0.187,-0.267 -0.187,-0.481c0,-0.106 0.026,-0.24 0.053,-0.427l0.347,-1.654l0.454,0Zm4.829,1.895c0,0.24 -0.08,0.453 -0.267,0.587c-0.187,0.133 -0.427,0.213 -0.747,0.213c-0.267,0 -0.507,-0.053 -0.747,-0.16l0,-0.374c0.107,0.08 0.24,0.134 0.374,0.16c0.133,0.027 0.24,0.054 0.373,0.054c0.214,0 0.347,-0.054 0.454,-0.134c0.106,-0.08 0.16,-0.186 0.16,-0.32c0,-0.08 -0.027,-0.16 -0.08,-0.24c-0.054,-0.053 -0.187,-0.16 -0.374,-0.267c-0.213,-0.106 -0.347,-0.24 -0.453,-0.347c-0.08,-0.106 -0.134,-0.24 -0.134,-0.4c0,-0.213 0.08,-0.4 0.24,-0.533c0.16,-0.134 0.374,-0.214 0.641,-0.214c0.266,0 0.533,0.053 0.8,0.187l-0.133,0.32l-0.134,-0.053c-0.16,-0.08 -0.347,-0.107 -0.533,-0.107c-0.16,0 -0.267,0.027 -0.347,0.107c-0.08,0.08 -0.134,0.16 -0.134,0.267c0,0.08 0.027,0.16 0.08,0.24c0.054,0.053 0.187,0.16 0.347,0.24c0.16,0.107 0.294,0.187 0.374,0.24c0.08,0.08 0.133,0.133 0.16,0.213c0.053,0.134 0.08,0.214 0.08,0.321l0,0Zm1.441,-1.895l-0.374,1.681c-0.026,0.134 -0.053,0.267 -0.053,0.347c0,0.24 0.107,0.347 0.347,0.347c0.133,0 0.293,-0.054 0.427,-0.134c0.133,-0.106 0.266,-0.24 0.373,-0.426c0.107,-0.187 0.187,-0.401 0.24,-0.668l0.24,-1.147l0.401,0l-0.561,2.668l-0.347,0l0.054,-0.48l-0.027,0c-0.16,0.214 -0.32,0.347 -0.453,0.427c-0.134,0.08 -0.294,0.107 -0.454,0.107c-0.213,0 -0.374,-0.054 -0.48,-0.16c-0.107,-0.107 -0.187,-0.267 -0.187,-0.481c0,-0.106 0.027,-0.24 0.053,-0.427l0.347,-1.654l0.454,0Zm3.602,-0.053c0.106,0 0.213,0 0.293,0.026l-0.08,0.374c-0.08,-0.027 -0.16,-0.027 -0.267,-0.027c-0.16,0 -0.293,0.054 -0.4,0.134c-0.133,0.106 -0.24,0.24 -0.347,0.4c-0.106,0.16 -0.16,0.374 -0.213,0.587l-0.267,1.227l-0.4,0l0.56,-2.668l0.347,0l-0.053,0.48l0.026,0c0.107,-0.16 0.214,-0.266 0.294,-0.32c0.08,-0.08 0.16,-0.106 0.24,-0.16c0.053,-0.053 0.16,-0.053 0.267,-0.053l0,0Zm3.255,0c0.107,0 0.213,0 0.293,0.026l-0.08,0.374c-0.08,-0.027 -0.16,-0.027 -0.266,-0.027c-0.161,0 -0.294,0.054 -0.401,0.134c-0.133,0.106 -0.24,0.24 -0.347,0.4c-0.106,0.16 -0.16,0.374 -0.213,0.587l-0.267,1.227l-0.4,0l0.56,-2.668l0.347,0l-0.053,0.48l0.026,0c0.107,-0.16 0.214,-0.266 0.294,-0.32c0.08,-0.08 0.16,-0.106 0.24,-0.16c0.053,-0.053 0.16,-0.053 0.267,-0.053l0,0Zm1.334,2.748c-0.294,0 -0.534,-0.08 -0.694,-0.267c-0.16,-0.187 -0.267,-0.427 -0.267,-0.72c0,-0.294 0.054,-0.587 0.187,-0.881c0.134,-0.267 0.267,-0.507 0.48,-0.64c0.187,-0.16 0.427,-0.24 0.668,-0.24c0.24,0 0.426,0.053 0.56,0.16c0.133,0.107 0.187,0.267 0.187,0.453c0,0.294 -0.134,0.507 -0.401,0.694c-0.266,0.16 -0.64,0.24 -1.147,0.24l-0.08,0l0,0.187c0,0.214 0.053,0.374 0.16,0.507c0.107,0.107 0.24,0.187 0.454,0.187c0.106,0 0.213,-0.027 0.32,-0.054c0.107,-0.026 0.24,-0.08 0.4,-0.16l0,0.347c-0.16,0.08 -0.293,0.134 -0.4,0.16c-0.16,0.027 -0.294,0.027 -0.427,0.027l0,0Zm0.32,-2.401c-0.16,0 -0.32,0.08 -0.48,0.24c-0.134,0.16 -0.267,0.373 -0.347,0.64l0.027,0c0.373,0 0.64,-0.053 0.854,-0.133c0.186,-0.107 0.293,-0.24 0.293,-0.427c0,-0.08 -0.027,-0.16 -0.08,-0.214c-0.027,-0.08 -0.133,-0.106 -0.267,-0.106Zm2.695,2.348l0.347,-1.681c0.027,-0.16 0.053,-0.294 0.053,-0.347c0,-0.107 -0.026,-0.187 -0.08,-0.24c-0.053,-0.054 -0.16,-0.08 -0.267,-0.08c-0.133,0 -0.293,0.053 -0.427,0.133c-0.133,0.107 -0.266,0.24 -0.373,0.427c-0.107,0.187 -0.187,0.4 -0.24,0.64l-0.24,1.148l-0.401,0l0.561,-2.669l0.347,0l-0.054,0.481l0.027,0c0.16,-0.187 0.293,-0.347 0.453,-0.427c0.134,-0.08 0.294,-0.134 0.454,-0.134c0.214,0 0.374,0.054 0.48,0.161c0.107,0.106 0.187,0.266 0.187,0.48c0,0.133 -0.027,0.267 -0.053,0.427l-0.347,1.627l-0.427,0l0,0.054Zm2.641,-2.695c0.321,0 0.534,0.16 0.694,0.453l0.027,0c0.027,-0.24 0.053,-0.48 0.107,-0.667l0.186,-0.88l0.401,0l-0.801,3.789l-0.347,0l0.054,-0.507l-0.027,0c-0.16,0.213 -0.32,0.347 -0.454,0.427c-0.133,0.08 -0.293,0.133 -0.453,0.133c-0.214,0 -0.4,-0.08 -0.534,-0.24c-0.133,-0.16 -0.187,-0.374 -0.187,-0.667c0,-0.347 0.054,-0.667 0.187,-0.961c0.107,-0.293 0.267,-0.507 0.48,-0.667c0.214,-0.16 0.427,-0.213 0.667,-0.213l0,0Zm-0.453,2.428c0.16,0 0.32,-0.08 0.48,-0.24c0.16,-0.16 0.294,-0.347 0.374,-0.587c0.106,-0.24 0.133,-0.481 0.133,-0.721c0,-0.186 -0.053,-0.32 -0.133,-0.4c-0.08,-0.107 -0.214,-0.133 -0.374,-0.133c-0.16,0 -0.32,0.08 -0.453,0.213c-0.134,0.134 -0.241,0.32 -0.347,0.56c-0.08,0.241 -0.134,0.507 -0.134,0.774c0.027,0.347 0.16,0.534 0.454,0.534l0,0Zm2.962,0.32c-0.294,0 -0.534,-0.08 -0.694,-0.267c-0.16,-0.187 -0.267,-0.427 -0.267,-0.72c0,-0.294 0.053,-0.587 0.187,-0.881c0.133,-0.267 0.267,-0.507 0.48,-0.64c0.187,-0.16 0.427,-0.24 0.667,-0.24c0.24,0 0.427,0.053 0.56,0.16c0.134,0.107 0.187,0.267 0.187,0.453c0,0.294 -0.133,0.507 -0.4,0.694c-0.267,0.16 -0.64,0.24 -1.147,0.24l-0.08,0l0,0.187c0,0.214 0.053,0.374 0.16,0.507c0.106,0.107 0.24,0.187 0.453,0.187c0.107,0 0.214,-0.027 0.32,-0.054c0.107,-0.026 0.241,-0.08 0.401,-0.16l0,0.347c-0.16,0.08 -0.294,0.134 -0.401,0.16c-0.16,0.027 -0.293,0.027 -0.426,0.027l0,0Zm0.346,-2.401c-0.16,0 -0.32,0.08 -0.48,0.24c-0.16,0.16 -0.267,0.373 -0.347,0.64l0.027,0c0.373,0 0.64,-0.053 0.854,-0.133c0.187,-0.107 0.293,-0.24 0.293,-0.427c0,-0.08 -0.026,-0.16 -0.08,-0.214c-0.053,-0.08 -0.133,-0.106 -0.267,-0.106Zm2.588,2.348l-1.734,0l0.054,-0.294l1.68,-2.081l-1.174,0l0.054,-0.294l1.601,0l-0.08,0.347l-1.655,2.028l1.281,0l-0.027,0.294Zm0.668,-1.121l0.08,-0.374l1.174,0l-0.081,0.374l-1.173,0Zm1.947,1.121l-0.293,-2.669l0.4,0l0.16,1.495c0.027,0.427 0.053,0.72 0.053,0.88l0.027,0c0.214,-0.453 0.347,-0.747 0.427,-0.907l0.8,-1.468l0.427,0l-1.44,2.669l-0.561,0l0,0Zm3.309,-2.695c0.32,0 0.56,0.08 0.72,0.267c0.187,0.186 0.267,0.427 0.267,0.747c0,0.293 -0.053,0.587 -0.187,0.854c-0.107,0.266 -0.267,0.48 -0.48,0.613c-0.187,0.16 -0.427,0.214 -0.667,0.214c-0.32,0 -0.56,-0.08 -0.72,-0.267c-0.187,-0.187 -0.267,-0.427 -0.267,-0.747c0,-0.32 0.053,-0.587 0.186,-0.881c0.107,-0.267 0.267,-0.48 0.481,-0.613c0.213,-0.134 0.427,-0.187 0.667,-0.187Zm0.587,0.987c0,-0.187 -0.054,-0.347 -0.16,-0.454c-0.107,-0.106 -0.24,-0.186 -0.401,-0.186c-0.186,0 -0.346,0.053 -0.48,0.186c-0.133,0.107 -0.24,0.294 -0.32,0.507c-0.08,0.214 -0.107,0.454 -0.107,0.721c0,0.213 0.054,0.373 0.16,0.48c0.107,0.107 0.24,0.187 0.454,0.187c0.16,0 0.32,-0.054 0.454,-0.187c0.133,-0.107 0.24,-0.293 0.32,-0.507c0.026,-0.213 0.08,-0.48 0.08,-0.747Zm1.734,-0.934l-0.373,1.681c-0.027,0.134 -0.054,0.267 -0.054,0.347c0,0.24 0.107,0.347 0.347,0.347c0.133,0 0.294,-0.054 0.427,-0.134c0.133,-0.106 0.267,-0.24 0.373,-0.426c0.107,-0.187 0.187,-0.401 0.241,-0.668l0.24,-1.147l0.4,0l-0.56,2.668l-0.347,0l0.053,-0.48l-0.027,0c-0.16,0.214 -0.32,0.347 -0.453,0.427c-0.134,0.08 -0.294,0.107 -0.454,0.107c-0.213,0 -0.373,-0.054 -0.48,-0.16c-0.107,-0.107 -0.187,-0.267 -0.187,-0.481c0,-0.106 0.027,-0.24 0.054,-0.427l0.346,-1.654l0.454,0Zm3.549,1.895c0,0.24 -0.08,0.453 -0.267,0.587c-0.187,0.133 -0.427,0.213 -0.747,0.213c-0.267,0 -0.507,-0.053 -0.747,-0.16l0,-0.374c0.106,0.08 0.24,0.134 0.373,0.16c0.134,0.027 0.24,0.054 0.374,0.054c0.213,0 0.347,-0.054 0.453,-0.134c0.107,-0.08 0.16,-0.186 0.16,-0.32c0,-0.08 -0.026,-0.16 -0.08,-0.24c-0.053,-0.053 -0.186,-0.16 -0.373,-0.267c-0.214,-0.106 -0.347,-0.24 -0.454,-0.347c-0.08,-0.106 -0.133,-0.24 -0.133,-0.4c0,-0.213 0.08,-0.4 0.24,-0.533c0.16,-0.134 0.374,-0.214 0.64,-0.214c0.267,0 0.534,0.053 0.801,0.187l-0.134,0.32l-0.133,-0.053c-0.16,-0.08 -0.347,-0.107 -0.534,-0.107c-0.16,0 -0.266,0.027 -0.346,0.107c-0.081,0.08 -0.134,0.16 -0.134,0.267c0,0.08 0.027,0.16 0.08,0.24c0.054,0.053 0.187,0.16 0.347,0.24c0.16,0.107 0.294,0.187 0.374,0.24c0.08,0.08 0.133,0.133 0.16,0.213c0.08,0.134 0.08,0.214 0.08,0.321l0,0Z" style="fill:#39b7d3;fill-rule:nonzero;"/></g></svg>