<?xml version="1.0" encoding="UTF-8" standalone="no"?><!DOCTYPE svg PUBLIC "-//W3C//DTD SVG 1.1//EN" "http://www.w3.org/Graphics/SVG/1.1/DTD/svg11.dtd"><svg width="100%" height="100%" viewBox="0 0 144 32" version="1.1" xmlns="http://www.w3.org/2000/svg" xmlns:xlink="http://www.w3.org/1999/xlink" xml:space="preserve" xmlns:serif="http://www.serif.com/" style="fill-rule:evenodd;clip-rule:evenodd;stroke-linejoin:round;stroke-miterlimit:1.41421;"><g><path d="M142.52,3.945l-5.114,-3.167c-0.717,-0.427 -1.289,-0.771 -2.171,-0.778c-0.904,-0.007 -1.375,0.351 -2.111,0.789l-5.202,3.197c-0.818,0.552 -1.439,1.553 -1.439,2.601l0,6.498c0,1.098 0.518,2.026 1.441,2.574l5.167,3.051c0.718,0.428 1.243,0.772 2.123,0.777c0.903,0.007 1.464,-0.349 2.201,-0.786l5.127,-3.054c0.89,-0.53 1.458,-1.5 1.458,-2.562l0,-6.453c0,-1.097 -0.558,-2.136 -1.48,-2.687m-9.206,9.59l-1.713,0l0,-6.503l1.713,0l0,6.503Zm6.505,-5.133l-2.053,0l0,5.133l-1.714,0l0,-5.133l-1.71,0l0,-1.37l5.477,0l0,1.37Z" style="fill:#13120d;fill-rule:nonzero;"/><path d="M10.08,12.519c4.839,0 7.133,2.766 7.133,2.766l-2.039,3.166c0,0 -1.928,-2.003 -4.839,-2.003c-3.42,0 -5.64,2.586 -5.64,5.753c0,3.131 2.255,5.823 5.784,5.823c3.131,0 5.459,-2.365 5.459,-2.365l1.783,3.275c0,0 -2.656,3.02 -7.641,3.02c-6.15,0 -10.08,-4.331 -10.08,-9.715c0,-5.279 3.93,-9.72 10.08,-9.72" style="fill:#13120d;fill-rule:nonzero;"/><path d="M32.318,19.872l0.62,0l0,-0.257c0,-2.438 -1.529,-3.275 -3.567,-3.275c-2.656,0 -5.094,1.783 -5.094,1.783l-1.748,-3.312c0,0 2.874,-2.292 7.278,-2.292c4.877,0 7.715,2.692 7.715,7.387l0,11.611l-4.256,0l0,-1.528c0,-0.727 0.071,-1.311 0.071,-1.311l-0.071,0c0.035,0 -1.42,3.276 -5.641,3.276c-3.311,0 -6.296,-2.074 -6.296,-5.787c0,-5.895 7.969,-6.295 10.989,-6.295m-3.53,8.479c2.44,0 4.186,-2.62 4.186,-4.876l0,-0.435l-0.801,0c-2.366,0 -6.185,0.326 -6.185,2.909c0,1.238 0.908,2.402 2.8,2.402" style="fill:#13120d;fill-rule:nonzero;"/><path d="M42.465,12.955l4.44,0l0,3.203c0,0.691 -0.073,1.311 -0.073,1.311l0.073,0c0.835,-2.658 3.057,-4.768 5.895,-4.768c0.436,0 0.838,0.073 0.838,0.073l0,4.548c0,0 -0.474,-0.072 -1.093,-0.072c-1.965,0 -4.184,1.129 -5.06,3.896c-0.29,0.911 -0.399,1.93 -0.399,3.021l0,7.35l-4.621,0l0,-18.562Z" style="fill:#13120d;fill-rule:nonzero;"/><path d="M58.341,5.676l4.622,0l0,7.973c0,0.907 -0.074,1.562 -0.074,1.562l0.074,0c0,0 1.637,-2.692 5.567,-2.692c5.025,0 8.227,3.967 8.227,9.72c0,5.894 -3.603,9.715 -8.517,9.715c-3.86,0 -5.533,-2.767 -5.533,-2.767l-0.072,0c0,0 0.072,0.547 0.072,1.275l0,1.055l-4.366,0l0,-25.841l0,0Zm9.097,22.383c2.547,0 4.659,-2.073 4.659,-5.747c0,-3.535 -1.892,-5.826 -4.621,-5.826c-2.402,0 -4.66,1.746 -4.66,5.86c0,2.876 1.528,5.713 4.622,5.713" style="fill:#13120d;fill-rule:nonzero;"/><path d="M90.688,12.519c5.678,0 10.227,4.039 10.227,9.72c0,5.712 -4.549,9.715 -10.189,9.715c-5.676,0 -10.227,-4.003 -10.227,-9.715c0,-5.681 4.551,-9.72 10.189,-9.72m0.038,15.505c2.984,0 5.494,-2.33 5.494,-5.785c0,-3.424 -2.51,-5.791 -5.494,-5.791c-3.02,0 -5.533,2.367 -5.533,5.791c0,3.455 2.513,5.785 5.533,5.785" style="fill:#13120d;fill-rule:nonzero;"/><path d="M104.576,12.955l4.439,0l0,2.148c0,0.692 -0.074,1.273 -0.074,1.273l0.074,0c0.802,-1.565 2.838,-3.857 6.586,-3.857c4.113,0 6.441,2.146 6.441,7.06l0,11.938l-4.586,0l0,-10.99c0,-2.259 -0.581,-3.786 -2.948,-3.786c-2.474,0 -4.293,1.564 -4.984,3.786c-0.254,0.764 -0.328,1.602 -0.328,2.476l0,8.514l-4.62,0l0,-18.562l0,0Z" style="fill:#13120d;fill-rule:nonzero;"/></g></svg>