<?xml version="1.0" encoding="UTF-8" standalone="no"?><!DOCTYPE svg PUBLIC "-//W3C//DTD SVG 1.1//EN" "http://www.w3.org/Graphics/SVG/1.1/DTD/svg11.dtd"><svg width="100%" height="100%" viewBox="0 0 600 200" version="1.1" xmlns="http://www.w3.org/2000/svg" xmlns:xlink="http://www.w3.org/1999/xlink" xml:space="preserve" xmlns:serif="http://www.serif.com/" style="fill-rule:evenodd;clip-rule:evenodd;stroke-linejoin:round;stroke-miterlimit:1.41421;"><rect id="Platine" x="0" y="0" width="600" height="200" style="fill:none;"/><g id="Coliweb"></g><g><path d="M197.858,182.616l11.809,0l0,3.116l-8.108,0l0,3.97l5.965,0l0,2.847l-5.965,0l0,7.085l-3.701,0l0,-17.018Z" style="fill:#080606;fill-rule:nonzero;"/><path d="M224.812,192.988l-2.411,-6.477l-2.41,6.477l4.821,0Zm-4.212,-10.372l3.628,0l6.793,17.018l-3.775,0l-1.46,-3.7l-6.745,0l-1.461,3.7l-3.798,0l6.818,-17.018Z" style="fill:#080606;fill-rule:nonzero;"/><path d="M246.531,196.811c0.795,0 1.399,-0.159 1.814,-0.474c0.414,-0.318 0.621,-0.874 0.621,-1.669c0,-0.811 -0.216,-1.395 -0.646,-1.753c-0.43,-0.357 -1.068,-0.535 -1.912,-0.535l-4.041,0l0,4.431l4.164,0Zm-0.22,-7.281c0.65,0 1.161,-0.161 1.534,-0.487c0.373,-0.323 0.56,-0.844 0.56,-1.557c0,-0.78 -0.182,-1.315 -0.547,-1.608c-0.365,-0.292 -0.922,-0.439 -1.669,-0.439l-3.822,0l0,4.091l3.944,0Zm-7.645,-6.915l8.352,0c1.607,0 2.864,0.398 3.773,1.194c0.909,0.795 1.364,1.948 1.364,3.457c0,0.764 -0.179,1.457 -0.535,2.082c-0.357,0.624 -0.844,1.108 -1.461,1.449c0.843,0.308 1.476,0.775 1.899,1.399c0.422,0.626 0.633,1.441 0.633,2.448c0,1.022 -0.231,1.911 -0.695,2.666c-0.462,0.755 -1.095,1.332 -1.898,1.729c-0.804,0.398 -1.693,0.596 -2.667,0.596l-8.765,0l0,-17.02Z" style="fill:#080606;fill-rule:nonzero;"/><path d="M260.361,182.616l11.808,0l0,3.092l-8.107,0l0,3.944l5.965,0l0,2.971l-5.965,0l0,3.92l8.107,0l0,3.091l-11.808,0l0,-17.018Z" style="fill:#080606;fill-rule:nonzero;"/><path d="M286.292,190.773c0.941,0 1.683,-0.204 2.228,-0.609c0.543,-0.406 0.815,-1.047 0.815,-1.924c0,-0.925 -0.267,-1.578 -0.803,-1.96c-0.536,-0.381 -1.282,-0.571 -2.24,-0.571l-3.02,0l0,5.064l3.02,0Zm-6.72,-8.158l7.378,0c1.93,0 3.437,0.483 4.516,1.45c1.079,0.965 1.619,2.357 1.619,4.175c0,1.267 -0.293,2.342 -0.877,3.226c-0.584,0.885 -1.411,1.53 -2.483,1.937l3.238,6.232l-3.798,0l-2.995,-5.771l-2.898,0l0,5.771l-3.7,0l0,-17.02Z" style="fill:#080606;fill-rule:nonzero;"/><path d="M300.755,182.616l3.604,0l7.11,11.005l0,-11.005l3.701,0l0,17.018l-3.58,0l-7.134,-11.005l0,11.005l-3.701,0l0,-17.018Z" style="fill:#080606;fill-rule:nonzero;"/><path d="M334.588,195.922c0.803,-0.446 1.44,-1.079 1.91,-1.9c0.472,-0.819 0.707,-1.78 0.707,-2.885c0,-1.086 -0.231,-2.04 -0.694,-2.86c-0.463,-0.821 -1.096,-1.453 -1.898,-1.9c-0.805,-0.446 -1.702,-0.669 -2.692,-0.669c-1.007,0 -1.91,0.223 -2.715,0.669c-0.803,0.447 -1.441,1.079 -1.91,1.9c-0.472,0.82 -0.707,1.774 -0.707,2.86c0,1.105 0.235,2.066 0.707,2.885c0.469,0.821 1.11,1.454 1.923,1.9c0.811,0.447 1.711,0.67 2.702,0.67c0.974,0 1.862,-0.223 2.667,-0.67m-7.305,2.958c-1.388,-0.747 -2.48,-1.79 -3.275,-3.129c-0.796,-1.338 -1.193,-2.876 -1.193,-4.614c0,-1.736 0.397,-3.279 1.193,-4.625c0.795,-1.348 1.887,-2.395 3.275,-3.142c1.387,-0.747 2.934,-1.12 4.638,-1.12c1.705,0 3.242,0.373 4.615,1.12c1.371,0.747 2.455,1.794 3.25,3.142c0.795,1.346 1.193,2.889 1.193,4.625c0,1.738 -0.398,3.276 -1.193,4.614c-0.795,1.339 -1.879,2.382 -3.25,3.129c-1.373,0.748 -2.91,1.12 -4.615,1.12c-1.704,0 -3.251,-0.372 -4.638,-1.12" style="fill:#080606;fill-rule:nonzero;"/><path d="M346.555,182.616l3.944,0l4.674,12.101l4.701,-12.101l3.92,0l-6.794,17.018l-3.627,0l-6.818,-17.018Z" style="fill:#080606;fill-rule:nonzero;"/><path d="M371.44,182.616l11.808,0l0,3.092l-8.108,0l0,3.944l5.966,0l0,2.971l-5.966,0l0,3.92l8.108,0l0,3.091l-11.808,0l0,-17.018Z" style="fill:#080606;fill-rule:nonzero;"/><path d="M390.65,182.616l3.701,0l0,13.927l7.791,0l0,3.091l-11.492,0l0,-17.018Z" style="fill:#080606;fill-rule:nonzero;"/><path d="M311.464,78.574l0,-26.198l-11.249,0l-9.052,26.198l20.301,0Z" style="fill:#080606;fill-rule:nonzero;"/><path d="M272.897,130.887l18.267,-52.314l-18.267,0l0,52.314Z" style="fill:#080606;fill-rule:nonzero;"/><path d="M325.285,0l-6.972,0l-9.052,26.198l16.024,0l0,-26.198Z" style="fill:#080606;fill-rule:nonzero;"/><path d="M272.897,26.198l0,26.177l27.319,0l9.045,-26.177l-36.364,0Z" style="fill:#080606;fill-rule:nonzero;"/></g></svg>