<?xml version="1.0" encoding="UTF-8" standalone="no"?><!DOCTYPE svg PUBLIC "-//W3C//DTD SVG 1.1//EN" "http://www.w3.org/Graphics/SVG/1.1/DTD/svg11.dtd"><svg width="100%" height="100%" viewBox="0 0 600 200" version="1.1" xmlns="http://www.w3.org/2000/svg" xmlns:xlink="http://www.w3.org/1999/xlink" xml:space="preserve" xmlns:serif="http://www.serif.com/" style="fill-rule:evenodd;clip-rule:evenodd;stroke-linejoin:round;stroke-miterlimit:1.41421;"><rect id="Platine" x="0" y="0" width="600" height="200" style="fill:none;"/><clipPath id="_clip1"><rect x="0" y="0" width="600" height="200"/></clipPath><g clip-path="url(#_clip1)"><g id="kelkoo"><path d="M34.901,48.522l-9.445,44.44l3.16,0l15.36,-20.744l19.903,0l-21.226,26.538l13.055,28.748l-21.167,0l-8.501,-22.431l-3.158,0l-4.768,22.431l-18.114,0l16.789,-78.982l18.112,0Z" style="fill:#444342;fill-rule:nonzero;"/><path d="M93.036,108.974l17.797,0c-0.892,4.126 -2.254,7.458 -4.085,9.992c-1.831,2.534 -4.08,4.467 -6.749,5.803c-2.657,1.29 -5.682,2.162 -9.074,2.621c-3.389,0.459 -7.088,0.674 -11.101,0.645c-7.205,0.034 -12.58,-0.875 -16.123,-2.729c-3.547,-1.856 -5.638,-4.857 -6.275,-9.003c-0.636,-4.147 -0.192,-9.645 1.334,-16.492c1.42,-7.046 3.303,-12.646 5.648,-16.798c2.347,-4.152 5.674,-7.124 9.987,-8.912c4.314,-1.789 10.128,-2.661 17.448,-2.617c6.879,-0.067 12.116,0.711 15.713,2.336c3.597,1.627 5.776,4.503 6.537,8.632c0.758,4.129 0.323,9.917 -1.311,17.359l-0.651,3.055l-35.907,0c-1.107,4.761 -1.252,8.06 -0.435,9.897c0.819,1.84 3.059,2.72 6.72,2.636c2.805,0.092 5.103,-0.253 6.896,-1.04c1.793,-0.788 3.003,-2.583 3.631,-5.385m-14.688,-16.112l17.797,0c0.573,-2.693 0.652,-4.666 0.239,-5.917c-0.412,-1.25 -1.261,-2.046 -2.546,-2.383c-1.286,-0.337 -2.952,-0.485 -4.995,-0.441c-3.138,-0.089 -5.471,0.458 -6.999,1.646c-1.526,1.186 -2.69,3.552 -3.496,7.095" style="fill:#444342;"/><path d="M148.517,48.522l-16.787,78.982l-18.111,0l16.786,-78.982l18.112,0Z" style="fill:#444342;fill-rule:nonzero;"/><path d="M174.242,48.522l-9.444,44.44l3.157,0l15.363,-20.744l19.902,0l-21.226,26.538l13.055,28.748l-21.167,0l-8.499,-22.431l-3.159,0l-4.768,22.431l-18.115,0l16.79,-78.982l18.111,0Z" style="fill:#444342;fill-rule:nonzero;"/><path d="M465.948,99.748c-1.366,5.649 -2.766,9.957 -4.197,12.924c-0.487,1.006 -1.062,1.863 -1.678,2.65c-1.245,1.5 -2.712,2.645 -4.449,3.345c-2.626,1.062 -6.319,1.563 -11.05,1.528c-4.75,0.04 -8.196,-0.453 -10.283,-1.487c-2.144,-1.061 -3.21,-3.072 -3.205,-6.036c0,-0.215 0.032,-0.488 0.041,-0.715c0.778,-4.372 1.753,-9.501 2.517,-12.36c1.368,-5.649 2.766,-9.957 4.198,-12.924c0.487,-1.008 1.063,-1.863 1.677,-2.652c1.246,-1.5 2.711,-2.644 4.45,-3.345c2.625,-1.06 6.318,-1.561 11.048,-1.528c4.751,-0.038 8.196,0.453 10.283,1.488c2.146,1.062 3.211,3.073 3.208,6.037c0,0.215 -0.035,0.488 -0.042,0.715c-0.778,4.372 -1.754,9.499 -2.518,12.36m13.287,-14.158l-0.015,0c-0.024,-1.107 -0.098,-2.139 -0.239,-3.078c-0.615,-4.111 -2.748,-6.997 -6.394,-8.655c-2.151,-0.977 -4.983,-1.65 -8.461,-2.031l0.012,-0.058c-2.345,-0.225 -5.001,-0.325 -7.947,-0.308c-0.094,0.002 -0.18,-0.001 -0.271,-0.001c-0.968,-0.009 -1.908,-0.003 -2.824,0.015c-6.357,0.11 -11.453,0.872 -15.284,2.293c-4.334,1.609 -7.658,4.472 -9.966,8.589c-2.312,4.117 -4.216,9.907 -5.715,17.369c-1.232,5.515 -1.819,10.117 -1.767,13.813c0,0.07 -0.005,0.148 -0.005,0.218l0.014,0c0.023,1.104 0.097,2.138 0.239,3.077c0.615,4.109 2.746,6.997 6.394,8.655c2.149,0.977 4.984,1.649 8.46,2.029c0,0 4.99,0.384 7.937,0.366c0.091,0 2.179,0.006 3.092,-0.012c6.357,-0.11 11.456,-0.874 15.286,-2.295c4.332,-1.607 7.656,-4.471 9.968,-8.587c2.308,-4.119 4.213,-9.907 5.714,-17.369c1.231,-5.515 1.818,-10.117 1.766,-13.813c0.002,-0.07 0.005,-0.147 0.006,-0.217" style="fill:#444342;fill-rule:nonzero;"/><path d="M389.358,127.929c0.779,-4.371 4.881,-25.473 5.645,-28.333c1.369,-5.649 2.767,-9.957 4.199,-12.922c0.485,-1.008 1.06,-1.865 1.677,-2.654c1.246,-1.5 2.711,-2.644 4.449,-3.343c2.625,-1.062 6.318,-1.563 11.049,-1.528c2.745,-0.022 5.036,0.138 6.9,0.471l1.831,-7.883c-2.249,-0.201 -4.77,-0.293 -7.558,-0.276c-0.093,0 -0.179,-0.003 -0.27,-0.002c-0.969,-0.009 -1.908,-0.004 -2.824,0.014c-6.357,0.11 -11.454,0.874 -15.285,2.295c-4.333,1.608 -7.657,4.472 -9.967,8.589c-2.31,4.117 -5.408,14.484 -11.543,45.572l11.697,0Z" style="fill:#444342;fill-rule:nonzero;"/><path d="M540.204,72.638c-4.93,0 -9.193,3.414 -10.26,8.226c-2.469,11.12 -6.696,29.803 -7.693,31.871c-0.488,1.008 -1.063,1.865 -1.677,2.651c-1.246,1.501 -2.713,2.646 -4.451,3.346c-2.626,1.059 -6.319,1.561 -11.049,1.528c-4.749,0.038 -8.195,-0.453 -10.283,-1.489c-2.143,-1.059 -3.211,-3.071 -3.206,-6.036c0,-0.214 0.033,-0.487 0.041,-0.714c0.778,-4.373 8.711,-39.383 8.711,-39.383l-2.623,0c-5.088,0 -9.485,3.546 -10.554,8.52c-2.415,11.235 -6.296,29.884 -6.297,32.444c0,1.851 0,1.467 0.248,3.295c0.558,4.117 2.748,6.998 6.393,8.655c2.152,0.977 4.919,1.726 8.461,2.029c3.546,0.304 8.115,0.369 8.208,0.368c0.969,0.011 1.908,0.005 2.823,-0.014c6.356,-0.11 11.454,-0.873 15.284,-2.295c4.333,-1.607 7.657,-4.47 9.968,-8.589c2.313,-4.121 10.728,-44.413 10.728,-44.413l-2.772,0Z" style="fill:#444342;fill-rule:nonzero;"/><path d="M589.232,87.388c-0.779,4.372 -1.753,9.499 -2.517,12.36c-1.368,5.649 -2.768,9.957 -4.198,12.924c-0.488,1.008 -1.061,1.863 -1.676,2.65c-1.247,1.5 -2.712,2.645 -4.451,3.345c-2.625,1.06 -6.317,1.563 -11.05,1.528c-4.749,0.04 -8.194,-0.453 -10.281,-1.487c-2.146,-1.061 -3.213,-3.072 -3.208,-6.036c0,-0.215 0.033,-0.488 0.042,-0.715c0.778,-4.372 1.754,-9.501 2.518,-12.36c1.367,-5.649 2.767,-9.957 4.197,-12.924c0.487,-1.008 1.062,-1.863 1.678,-2.652c1.247,-1.5 2.712,-2.644 4.45,-3.345c2.625,-1.06 6.316,-1.561 11.049,-1.528c4.75,-0.038 8.194,0.453 10.283,1.488c2.144,1.062 3.21,3.073 3.205,6.037c0,0.215 -0.032,0.488 -0.041,0.715m10.754,-1.798c-0.024,-1.105 -0.099,-2.139 -0.239,-3.078c-0.615,-4.111 -2.746,-6.997 -6.394,-8.655c-2.149,-0.977 -4.982,-1.65 -8.461,-2.031l0.011,-0.058c-2.343,-0.225 -5,-0.326 -7.947,-0.308c-0.091,0.002 -0.177,-0.001 -0.271,-0.001c-0.967,-0.009 -1.906,-0.003 -2.821,0.013c-6.357,0.112 -11.456,0.874 -15.286,2.295c-4.332,1.609 -7.656,4.472 -9.968,8.589c-2.011,3.585 -3.712,8.44 -5.111,14.56l-0.015,0.061c-0.004,0.022 -0.009,0.045 -0.014,0.066l-12.283,54.435l12.02,0l5.451,-25.647c2.028,0.787 4.539,1.354 7.575,1.686c0,0 8.115,0.369 8.206,0.369c0.968,0.009 1.908,0.003 2.824,-0.015c6.357,-0.11 11.454,-0.874 15.284,-2.295c4.332,-1.607 7.658,-4.471 9.966,-8.587c2.312,-4.119 4.215,-9.907 5.715,-17.369c1.232,-5.515 1.819,-10.117 1.767,-13.813c0.002,-0.07 0.005,-0.147 0.005,-0.217l-0.014,0Z" style="fill:#444342;fill-rule:nonzero;"/><path d="M354.954,118.668c-2.628,1.059 -6.319,1.563 -11.05,1.527c-4.75,0.039 -8.195,-0.452 -10.282,-1.488c-2.145,-1.059 -3.211,-3.071 -3.208,-6.036c0,-0.214 0.033,-0.487 0.043,-0.714c0.777,-4.373 1.753,-9.501 2.517,-12.36c1.366,-5.649 2.766,-9.958 4.198,-12.924c0.486,-1.008 1.061,-1.865 1.675,-2.653c1.249,-1.5 2.714,-2.644 4.451,-3.344c2.626,-1.059 6.317,-1.561 11.05,-1.528c4.75,-0.038 8.194,0.453 10.282,1.489c2.145,1.059 3.211,3.072 3.206,6.036c0,0.215 -0.032,0.487 -0.041,0.715c-0.777,4.372 -1.755,9.5 -2.517,12.36c-1.368,5.649 -2.768,9.957 -4.198,12.923c-0.486,1.008 -1.063,1.864 -1.677,2.651c-1.246,1.501 -2.711,2.646 -4.449,3.346m23.596,-33.077c-0.025,-1.107 -0.1,-2.14 -0.24,-3.079c-0.614,-4.111 -2.746,-6.997 -6.393,-8.655c-2.152,-0.977 -4.985,-1.649 -8.463,-2.031c0,0 -4.987,-0.384 -7.935,-0.366c-0.091,0.002 -0.177,-0.001 -0.271,-0.001c-0.967,-0.009 -1.908,-0.003 -2.822,0.014c-6.356,0.111 -11.455,0.873 -15.286,2.294c-4.331,1.609 -7.655,4.473 -9.966,8.59c-2.309,4.116 -4.213,9.906 -5.715,17.368c-1.231,5.514 -1.818,10.117 -1.766,13.813c-0.001,0.07 -0.006,0.147 -0.006,0.217l0.015,0c0.023,1.105 0.098,2.139 0.238,3.078c0.615,4.11 2.748,6.998 6.395,8.655c2.152,0.977 4.983,1.65 8.461,2.029c0,0 4.989,0.385 7.935,0.366c0.093,0 2.179,0.006 3.095,-0.012c5.352,-0.091 9.803,-0.655 13.367,-1.677l-0.711,3.277c-0.775,3.032 -1.52,5.615 -2.086,6.786c-0.485,1.007 -1.06,1.864 -1.674,2.651c-1.249,1.501 -2.714,2.647 -4.451,3.346c-2.626,1.06 -6.319,1.562 -11.049,1.528c-4.752,0.038 -8.195,-0.453 -10.284,-1.488c-2.146,-1.06 -3.178,-2.264 -3.175,-5.228c0,-0.214 -10.752,0.058 -10.752,0.058c-0.002,0.07 -0.005,0.147 -0.007,0.218l0.016,0c0.023,1.105 0.097,2.137 0.238,3.078c0.616,4.109 2.749,6.996 6.394,8.653c2.15,0.979 4.983,1.65 8.461,2.03c0,0 4.988,0.384 7.935,0.367c0.093,0 0.179,0.003 0.272,0.002c0.968,0.01 1.907,0.004 2.822,-0.014c6.357,-0.11 11.454,-0.874 15.286,-2.295c4.334,-1.608 7.654,-4.472 9.966,-8.589c1.276,-2.273 2.783,-7.342 4.131,-12.681l0.012,-0.002l0.068,-0.316c1.062,-4.235 2.019,-8.61 2.675,-11.87l-0.043,0l2.874,-12.956c0.109,-0.468 0.214,-0.952 0.319,-1.435l0.195,-0.88l-0.009,0.003c0.058,-0.274 0.119,-0.536 0.176,-0.817c1.232,-5.515 1.819,-10.117 1.765,-13.813c0.002,-0.072 0.006,-0.146 0.006,-0.216l-0.013,0Z" style="fill:#444342;fill-rule:nonzero;"/><path d="M236.78,85.644c0,0 -0.039,0.026 -0.059,0.04c0.032,0.001 0.061,0.003 0.061,0.003c0,0 -1.368,10.167 -2.251,14.124c-0.799,3.955 -1.617,6.973 -2.451,9.048c-0.838,2.077 -2.001,3.486 -3.491,4.23c-1.488,0.741 -3.61,1.09 -6.369,1.046l-3.27,13.9c7.555,0.073 13.508,-0.682 17.864,-2.263c4.356,-1.58 7.705,-4.425 10.047,-8.533c2.342,-4.109 4.271,-9.918 5.783,-17.428c1.278,-5.707 1.928,-10.429 1.949,-14.167l-17.813,0Z" style="fill:#ed612b;fill-rule:nonzero;"/><path d="M222.299,114.136c-2.881,0.045 -4.949,-0.305 -6.199,-1.047c-1.254,-0.743 -1.879,-2.152 -1.876,-4.228c0.003,-2.076 0.445,-5.093 1.327,-9.048l-18.112,0c-1.633,7.309 -2.14,13.024 -1.524,17.146c0.617,4.12 2.753,7.012 6.41,8.674c3.653,1.664 9.223,2.464 16.704,2.403l3.27,-13.9Z" style="fill:#ef8621;fill-rule:nonzero;"/><path d="M215.543,99.812c0.802,-3.957 1.644,-6.984 2.528,-9.076c0.881,-2.093 2.11,-3.52 3.679,-4.278c1.572,-0.761 3.791,-1.118 6.654,-1.074c1.35,-0.021 8.077,0.287 8.419,0.302c0.006,-0.009 0.03,-0.041 0.03,-0.041l2.681,-13.852c-2.492,-0.24 -5.323,-0.343 -8.492,-0.308c-7.587,-0.072 -13.55,0.699 -17.893,2.311c-4.344,1.612 -7.676,4.481 -9.992,8.608c-2.316,4.127 -4.223,9.929 -5.725,17.408l18.111,0Z" style="fill:#feca0c;fill-rule:nonzero;"/><path d="M297.061,85.699c0,0 -0.04,0.026 -0.06,0.039c0.032,0 0.061,0.002 0.061,0.002c0,0 -1.368,10.167 -2.251,14.125c-0.798,3.957 -1.617,6.972 -2.451,9.048c-0.837,2.077 -2.001,3.486 -3.491,4.229c-1.488,0.742 -3.61,1.091 -6.369,1.047l-3.27,13.9c7.555,0.073 13.508,-0.681 17.864,-2.263c4.356,-1.581 7.705,-4.426 10.047,-8.532c2.343,-4.111 4.271,-9.919 5.785,-17.429c1.276,-5.707 1.926,-10.429 1.947,-14.166l-17.812,0Z" style="fill:#30729c;fill-rule:nonzero;"/><path d="M282.58,114.19c-2.882,0.044 -4.95,-0.305 -6.2,-1.048c-1.254,-0.742 -1.879,-2.151 -1.876,-4.228c0.003,-2.075 0.446,-5.091 1.327,-9.048l-18.111,0c-1.633,7.31 -2.141,13.025 -1.525,17.146c0.617,4.12 2.754,7.013 6.41,8.675c3.653,1.663 9.223,2.464 16.704,2.403l3.271,-13.9Z" style="fill:#5bb355;fill-rule:nonzero;"/><path d="M275.823,99.865c0.802,-3.956 1.644,-6.983 2.528,-9.075c0.883,-2.094 2.11,-3.521 3.679,-4.279c1.573,-0.759 3.791,-1.116 6.655,-1.073c1.349,-0.021 8.076,0.287 8.418,0.302c0.006,-0.009 0.03,-0.041 0.03,-0.041l2.681,-13.853c-2.492,-0.239 -5.323,-0.343 -8.492,-0.308c-7.587,-0.072 -13.55,0.702 -17.893,2.312c-4.344,1.613 -7.676,4.483 -9.992,8.609c-2.316,4.126 -4.223,9.929 -5.725,17.406l18.111,0Z" style="fill:#7cba42;fill-rule:nonzero;"/></g></g></svg>