<?xml version="1.0" encoding="UTF-8" standalone="no"?><!DOCTYPE svg PUBLIC "-//W3C//DTD SVG 1.1//EN" "http://www.w3.org/Graphics/SVG/1.1/DTD/svg11.dtd"><svg width="100%" height="100%" viewBox="0 0 144 48" version="1.1" xmlns="http://www.w3.org/2000/svg" xmlns:xlink="http://www.w3.org/1999/xlink" xml:space="preserve" xmlns:serif="http://www.serif.com/" style="fill-rule:evenodd;clip-rule:evenodd;stroke-linejoin:round;stroke-miterlimit:2;"><g id="Lightbend"></g><g id="Lightbend-reverse" serif:id="Lightbend reverse"></g><g id="Teads"></g><g id="Coliweb"></g><g id="Coliweb1" serif:id="Coliweb"></g><g id="vente-privee" serif:id="vente privee"></g><g id="Fyber"></g><g id="Ebiznext"></g><g id="Criteo"></g><g id="Zengularity"></g><rect id="Platine" x="0" y="0" width="144" height="48" style="fill:none;"/><clipPath id="_clip1"><rect x="0" y="0" width="144" height="48"/></clipPath><g clip-path="url(#_clip1)"><g id="Coliweb2" serif:id="Coliweb"></g><g id="lunatech"><path d="M38.582,41.998l0,-35.996l-35.995,0l0,35.996l35.995,0Z" style="fill:#fff;"/><path d="M61.241,20.686l-3.099,0l0,-10.511l-3.276,0l0,13.569l6.375,0l0,-3.058Z" style="fill-rule:nonzero;"/><path d="M73.812,18.313l0,-8.138l-3.265,0l0,8.138c0,1.531 -0.748,2.608 -2.297,2.608c-1.607,0 -2.333,-1.059 -2.333,-2.59l0,-8.156l-3.265,0l0,8.156c0,3.396 1.749,5.667 5.573,5.667c3.704,0 5.587,-2.409 5.587,-5.685Z" style="fill-rule:nonzero;"/><path d="M87.636,23.744l0,-13.569l-3.157,0l0,8.196l-5.097,-8.196l-3.375,0l0,13.569l3.157,0l0,-8.022l5.235,8.022l3.237,0Z" style="fill-rule:nonzero;"/><path d="M93.608,10.175l-4.746,13.569l3.218,0l1.118,-3.236l4.274,0l1.139,3.236l3.469,0l-5.018,-13.569l-3.454,0Zm0.53,7.59l1.197,-3.432l1.197,3.432l-2.394,0Z" style="fill-rule:nonzero;"/><path d="M101.543,13.233l2.271,0l0,10.511l3.276,0l0,-10.511l2.257,0l0,-3.058l-7.804,0l0,3.058Z" style="fill-rule:nonzero;"/><path d="M117.663,13.233l0,-3.058l-6.433,0l0,13.569l6.491,0l0,-3.058l-3.215,0l0,-2.333l3.055,0l0,-3.023l-3.055,0l0,-2.097l3.157,0Z" style="fill-rule:nonzero;"/><path d="M126.683,12.979c0.965,0.004 1.896,0.368 2.608,1.02l1.941,-2.471c-1.272,-1.095 -2.912,-1.669 -4.589,-1.607c-4.332,0 -7.159,3.135 -7.159,7.057c0,3.922 2.707,7.02 7.22,7.02c1.678,0.038 3.303,-0.597 4.51,-1.763l-1.923,-2.315c-0.708,0.645 -1.629,1.008 -2.587,1.02c-2.278,0 -3.788,-1.746 -3.788,-3.991c0,-2.246 1.354,-3.97 3.767,-3.97Z" style="fill-rule:nonzero;"/><path d="M132.742,10.175l0,13.569l3.276,0l0,-5.355l4.706,0l0,5.355l3.276,0l0,-13.569l-3.276,0l0,5.097l-4.706,0l0,-5.097l-3.276,0Z" style="fill-rule:nonzero;"/><rect x="16.294" y="20.247" width="7.169" height="7.503" style="fill:url(#_Linear2);"/><path d="M41.155,3.43l-41.155,0l0,41.14l41.155,0l0,-41.14Zm-9.865,16.817l-3.716,0l0,9.662c0.025,1.156 -0.904,2.129 -2.06,2.158l-11.281,0c-1.156,-0.029 -2.085,-1.002 -2.06,-2.158l0,-11.821c-0.025,-1.156 0.905,-2.128 2.06,-2.155l17.053,0c1.074,0.146 1.883,1.073 1.883,2.157c0,1.083 -0.809,2.01 -1.883,2.157l0.004,0Z" style="fill:url(#_Linear3);fill-rule:nonzero;"/><path d="M56.796,34.774c-0.517,0.048 -1.013,-0.23 -1.241,-0.697l-0.689,0.363c0.326,0.806 1.016,1.089 1.915,1.089c0.98,0 1.847,-0.421 1.847,-1.401c0,-1.048 -0.852,-1.288 -1.77,-1.4c-0.53,-0.066 -0.98,-0.171 -0.98,-0.555c0,-0.327 0.294,-0.585 0.911,-0.585c0.405,-0.014 0.793,0.169 1.041,0.49l0.66,-0.337c-0.333,-0.679 -1.041,-0.875 -1.727,-0.875c-0.809,0 -1.701,0.363 -1.701,1.281c0,0.987 0.827,1.226 1.727,1.332c0.584,0.065 1.016,0.232 1.016,0.649c0,0.465 -0.479,0.646 -1.009,0.646Z" style="fill-rule:nonzero;"/><rect x="61.538" y="31.008" width="0.824" height="4.397"/><path d="M70.061,35.409l0,-4.394l-0.951,0l-1.375,1.89l-1.375,-1.89l-0.954,0l0,4.394l0.831,0l0,-3.197l1.4,1.916l0.163,0l1.43,-1.908l0,3.189l0.831,0Z" style="fill-rule:nonzero;"/><path d="M73.928,34.11l1.245,0c0.025,0.001 0.05,0.002 0.075,0.002c0.854,0 1.556,-0.703 1.556,-1.557c0,-0.854 -0.702,-1.556 -1.556,-1.556c-0.025,0 -0.05,0 -0.075,0.002l-2.072,0l0,4.404l0.827,0l0,-1.295Zm0,-2.318l1.245,0c0.018,-0.002 0.035,-0.002 0.053,-0.002c0.428,0 0.78,0.352 0.78,0.78c0,0.428 -0.352,0.78 -0.78,0.78c-0.018,0 -0.035,-0.001 -0.053,-0.002l-1.245,0l0,-1.556Z" style="fill-rule:nonzero;"/><path d="M79.607,31.008l0,4.397l3.091,0l0,-0.769l-2.261,0l0,-3.628l-0.83,0Z" style="fill-rule:nonzero;"/><rect x="85.55" y="31.008" width="0.824" height="4.397"/><path d="M92.57,31.81l0,-0.795l-3.156,0l0,4.39l0.827,0l0,-1.629l2.206,0l0,-0.765l-2.206,0l0,-1.201l2.329,0Z" style="fill-rule:nonzero;"/><path d="M97.867,35.405l0,-1.817l1.753,-2.544l0,-0.036l-1.002,0l-1.168,1.814l-1.117,-1.814l-0.987,0l0,0.036l1.69,2.544l0,1.817l0.831,0Z" style="fill-rule:nonzero;"/><path d="M108.041,35.405l0,-1.817l1.752,-2.544l0,-0.036l-0.998,0l-1.168,1.814l-1.117,-1.814l-0.987,0l0,0.036l1.691,2.544l0,1.817l0.827,0Z" style="fill-rule:nonzero;"/><path d="M112.224,33.236c-0.003,0.043 -0.004,0.087 -0.004,0.13c0,1.174 0.966,2.141 2.141,2.141c0.041,0 0.082,-0.001 0.124,-0.004c1.545,0 2.242,-1.135 2.256,-2.271c0.003,-0.045 0.005,-0.091 0.005,-0.136c0,-1.194 -0.983,-2.177 -2.177,-2.177c-0.028,0 -0.056,0.001 -0.084,0.002c-1.521,0 -2.261,1.161 -2.261,2.315Zm3.701,0c0,0.725 -0.403,1.502 -1.451,1.502c-1.049,0 -1.426,-0.773 -1.452,-1.495c-0.025,-0.722 0.41,-1.578 1.452,-1.578c1.041,0 1.462,0.838 1.451,1.578l0,-0.007Z" style="fill-rule:nonzero;"/><path d="M119.611,31.015l0,2.518c-0.003,0.046 -0.005,0.092 -0.005,0.139c0,1.005 0.827,1.832 1.832,1.832c0.042,0 0.084,-0.002 0.125,-0.004c1.107,0 1.905,-0.668 1.905,-1.967l0,-2.518l-0.835,0l0,2.518c0,0.751 -0.388,1.212 -1.088,1.212c-0.7,0 -1.136,-0.421 -1.136,-1.212l0,-2.518l-0.798,0Z" style="fill-rule:nonzero;"/><path d="M130.22,32.463c0,-0.758 -0.548,-1.451 -1.582,-1.451l-2.093,0l0,4.393l0.831,0l0,-1.473l0.794,0l1.285,1.473l0.983,0l0,-0.058l-1.332,-1.502c0.673,-0.097 1.163,-0.704 1.114,-1.382Zm-1.582,0.725l-1.262,0l0,-1.404l1.262,0c0.017,-0.001 0.034,-0.001 0.051,-0.001c0.386,0 0.704,0.317 0.704,0.703c0,0.387 -0.318,0.704 -0.704,0.704c-0.017,0 -0.034,0 -0.051,-0.002Z" style="fill-rule:nonzero;"/><rect x="136.577" y="31.008" width="0.824" height="4.397"/><path d="M140.383,31.763l1.393,0l0,3.628l0.831,0l0,-3.628l1.393,0l0,-0.755l-3.628,0l0.011,0.755Z" style="fill-rule:nonzero;"/></g></g><g id="reachfive"></g><g id="fabernovel"></g><g id="kelkoo"></g><g><g id="bleckwen-ercom" serif:id="bleckwen/ercom"></g></g><g id="iadvize"></g><g id="kaizen"></g><g id="Content-square" serif:id="Content square"></g><g id="Norauto"></g><g><g id="lizeo"></g></g><g id="kaizen1" serif:id="kaizen"></g><g id="CarbonIT"></g><g id="kelkoo1" serif:id="kelkoo"></g><g id="Norauto1" serif:id="Norauto"></g><g id="lunatech1" serif:id="lunatech"></g><g id="valraiso"></g><g id="MFG-Labs" serif:id="MFG Labs"></g><g id="Zenika"></g><g><g><g id="lightbend"></g></g></g><defs><linearGradient id="_Linear2" x1="0" y1="0" x2="1" y2="0" gradientUnits="userSpaceOnUse" gradientTransform="matrix(41.2927,41.2963,-41.2963,41.2927,-0.391847,3.72738)"><stop offset="0" style="stop-color:#ea212e;stop-opacity:1"/><stop offset="0.5" style="stop-color:#ae151e;stop-opacity:1"/><stop offset="1" style="stop-color:#9b0f17;stop-opacity:1"/></linearGradient><linearGradient id="_Linear3" x1="0" y1="0" x2="1" y2="0" gradientUnits="userSpaceOnUse" gradientTransform="matrix(41.2927,41.2927,-41.2927,41.2927,-0.0399103,3.37544)"><stop offset="0" style="stop-color:#ea212e;stop-opacity:1"/><stop offset="0.5" style="stop-color:#ae151e;stop-opacity:1"/><stop offset="1" style="stop-color:#9b0f17;stop-opacity:1"/></linearGradient></defs></svg>