<?xml version="1.0" encoding="UTF-8" standalone="no"?><!DOCTYPE svg PUBLIC "-//W3C//DTD SVG 1.1//EN" "http://www.w3.org/Graphics/SVG/1.1/DTD/svg11.dtd"><svg width="100%" height="100%" viewBox="0 0 121 48" version="1.1" xmlns="http://www.w3.org/2000/svg" xmlns:xlink="http://www.w3.org/1999/xlink" xml:space="preserve" xmlns:serif="http://www.serif.com/" style="fill-rule:evenodd;clip-rule:evenodd;stroke-linejoin:round;stroke-miterlimit:1.41421;"><g><g id="lizeo"><path d="M72.713,19.116c0,-12.221 -9.402,-19.116 -23.189,-19.116c-24.765,0 -43.255,24.131 -49.524,47.954c40.745,0.627 72.713,-5.016 72.713,-28.521l0,-0.317Z" style="fill:#2f3889;fill-rule:nonzero;"/><path d="M75.665,20.462" style="fill:#2f3889;fill-rule:nonzero;"/><path d="M105.426,24.9c3.323,-0.003 4.469,-2.235 4.924,-4.562l0.981,-5.193l-1.539,0l-0.953,5.211c-0.404,1.992 -1.582,3.282 -3.175,3.282c-0.467,0 -0.848,-0.099 -1.115,-0.312c-0.265,-0.215 -0.413,-0.543 -0.409,-0.974c0,-0.116 0.008,-0.241 0.031,-0.375l1.295,-6.736l-1.544,0l-1.296,6.758c-0.038,0.144 -0.049,0.293 -0.049,0.446c0.001,1.167 0.951,2.454 2.849,2.455Z" style="fill:#2f3889;fill-rule:nonzero;"/><path d="M87.238,19.709l-0.983,5.191l1.544,0l0.948,-5.211c0.398,-1.973 1.563,-3.259 3.136,-3.281l0.22,-1.263c-3.277,0.031 -4.411,2.249 -4.865,4.564Z" style="fill:#2f3889;fill-rule:nonzero;"/><path d="M34.032,24.351l1.54,-0.001l2.654,-13.959l-1.542,0l-2.652,13.96Z" style="fill:#fff;fill-rule:nonzero;"/><path d="M37.842,24.351l1.543,-0.001l1.802,-9.484l-1.54,0l-1.805,9.485Z" style="fill:#fff;fill-rule:nonzero;"/><path d="M40.851,13.004c0.628,-0.002 1.119,-0.451 1.139,-1.119c-0.002,-0.591 -0.391,-1.017 -0.981,-1.019c-0.583,0 -1.059,0.491 -1.076,1.118c0.002,0.593 0.372,1.019 0.918,1.02Z" style="fill:#fff;fill-rule:nonzero;"/><path d="M81.578,15.461l-0.022,0c-1.587,0 -2.899,0.672 -3.819,1.668c-0.915,0.997 -1.437,2.32 -1.437,3.618c0.005,1.809 1.141,3.317 3.712,3.322c1.063,0 2.02,-0.366 2.816,-0.941l0.103,-0.073l-0.364,1.963l-0.048,0c-0.118,-0.001 -0.233,-0.002 -0.349,-0.002c-1.69,0 -3.188,0.17 -4.261,0.64c-1.07,0.471 -1.713,1.225 -1.714,2.421c0.001,1.362 0.963,2.423 2.764,2.425c2.811,0.006 4.842,-2.752 5.138,-5.439l1.068,-5.475l-0.002,0l0.01,-0.065c0.063,-0.297 0.098,-0.591 0.098,-0.873c-0.006,-1.769 -1.319,-3.185 -3.693,-3.189Zm0.796,10.788c-0.399,1.518 -1.578,3.063 -3.179,3.067c-0.442,0 -0.822,-0.112 -1.091,-0.326c-0.267,-0.214 -0.423,-0.533 -0.423,-0.933l0,-0.019c0,-0.731 0.481,-1.206 1.247,-1.479c0.767,-0.279 1.828,-0.376 3.028,-0.376c0.125,0 0.245,0 0.367,0.003l0.068,0l-0.017,0.063Zm-2.164,-3.387c-0.873,0 -1.448,-0.289 -1.804,-0.702c-0.35,-0.412 -0.483,-0.94 -0.483,-1.413c0,-1.973 1.477,-4.076 3.455,-4.08l0.023,0c0.691,0 1.262,0.188 1.662,0.539c0.399,0.351 0.625,0.865 0.625,1.502c-0.003,1.674 -1.374,4.146 -3.478,4.154Z" style="fill:#2f3889;fill-rule:nonzero;"/><path d="M49.954,14.866l-6.771,0l-0.254,1.247l4.899,0l0,0.039c0,0 -4.145,3.401 -4.981,4.303l0.219,1.137c0.173,-0.089 0.366,-0.181 0.581,-0.264l0.032,-0.012l0,0.001c0.519,-0.199 1.16,-0.354 1.926,-0.354c1.005,-0.002 1.802,0.428 2.186,1.318c0.161,0.382 0.235,0.95 0.235,1.399c0,0.176 -0.011,0.331 -0.033,0.453l-0.009,0.042l-0.043,-0.002c-0.143,-0.002 -0.286,-0.004 -0.424,-0.004l-0.006,0c-1.667,0 -3.145,0.176 -4.206,0.647c-1.058,0.472 -1.689,1.228 -1.691,2.416c0.002,1.36 0.963,2.422 2.763,2.426c1.528,0 2.819,-0.808 3.733,-1.976c0.914,-1.168 1.447,-2.7 1.447,-4.135c-0.007,-2.102 -1.087,-3.806 -3.595,-3.81c-0.117,0 -0.235,0.004 -0.35,0.01l-0.147,0.007l4.234,-3.653l0.255,-1.235Zm-2.161,10.537c-0.4,1.519 -1.578,3.064 -3.178,3.068c-0.442,0 -0.821,-0.11 -1.092,-0.325c-0.268,-0.213 -0.426,-0.534 -0.421,-0.933l0,-0.02c-0.005,-0.732 0.479,-1.203 1.245,-1.479c0.769,-0.278 1.83,-0.375 3.031,-0.376c0.122,0 0.244,0.002 0.368,0.003l0.062,0.002l-0.015,0.06Z" style="fill:#fff;fill-rule:nonzero;"/><path d="M53.567,20.133l0.042,0c0.142,0.002 0.284,0.003 0.423,0.003c1.67,0 3.152,-0.174 4.21,-0.646c1.058,-0.474 1.691,-1.23 1.694,-2.416c-0.003,-1.361 -0.962,-2.422 -2.764,-2.425c-1.526,0 -2.817,0.806 -3.731,1.975c-0.916,1.17 -1.447,2.699 -1.447,4.133c0.007,2.103 1.089,3.808 3.594,3.811c1.262,0.001 2.407,-0.344 3.114,-0.728l-0.217,-1.127c-0.597,0.311 -1.438,0.629 -2.539,0.629c-1.003,0.002 -1.802,-0.427 -2.185,-1.318c-0.161,-0.382 -0.234,-0.95 -0.238,-1.399c0.004,-0.174 0.016,-0.33 0.038,-0.452l0.006,-0.04Zm0.191,-1.229c0.402,-1.518 1.577,-3.065 3.177,-3.067c0.445,0 0.824,0.109 1.092,0.323c0.269,0.215 0.424,0.535 0.424,0.933l0,0.022c0.002,0.73 -0.482,1.203 -1.247,1.479c-0.768,0.278 -1.828,0.375 -3.031,0.375c-0.122,0 -0.245,-0.001 -0.367,-0.002l-0.066,-0.002l0.018,-0.061Z" style="fill:#fff;fill-rule:nonzero;"/><path d="M117.238,15.126l-0.019,0c-2.765,-0.001 -4.701,2.303 -5.152,4.848l-0.011,0.044l-0.01,-0.001l-1.727,9.165l1.619,0.119l1.034,-5.44l0.067,0.07c0.605,0.633 1.456,1.115 2.636,1.116c1.538,0 2.85,-0.72 3.782,-1.835c0.929,-1.113 1.475,-2.622 1.475,-4.195c-0.003,-2.139 -1.325,-3.89 -3.694,-3.891Zm-1.367,8.713c-0.878,0.001 -1.455,-0.401 -1.806,-0.944c-0.354,-0.542 -0.478,-1.217 -0.478,-1.78c0,-2.256 1.468,-4.775 3.454,-4.783l0.021,0c0.696,0 1.271,0.289 1.671,0.779c0.395,0.489 0.614,1.173 0.614,1.965c0,2.214 -1.37,4.757 -3.476,4.763Z" style="fill:#2f3889;fill-rule:nonzero;"/><path d="M64.658,24.671c-2.399,0 -3.748,-1.785 -3.748,-3.947c0,-3.175 2.201,-6.091 5.315,-6.091c2.598,0 3.769,1.964 3.769,3.988c0,2.975 -2.1,6.05 -5.313,6.05l-0.023,0l0,0Zm0.2,-1.309c1.943,0 3.414,-2.499 3.414,-4.741c0,-1.111 -0.519,-2.678 -2.242,-2.678c-2.067,0 -3.433,2.52 -3.433,4.722c0,1.567 0.872,2.697 2.24,2.697l0.021,0Z" style="fill:#fff;fill-rule:nonzero;"/><path d="M96.101,25.152c-2.399,0 -3.748,-1.784 -3.748,-3.948c0,-3.173 2.203,-6.089 5.317,-6.089c2.596,0 3.77,1.964 3.77,3.987c0,2.976 -2.105,6.05 -5.316,6.05l-0.023,0l0,0Zm0.198,-1.31c1.945,0 3.414,-2.499 3.414,-4.74c0,-1.111 -0.516,-2.678 -2.242,-2.678c-2.062,0 -3.431,2.52 -3.431,4.72c0,1.568 0.871,2.698 2.244,2.698l0.015,0Z" style="fill:#2f3889;fill-rule:nonzero;"/></g></g></svg>