<?xml version="1.0" encoding="UTF-8" standalone="no"?><!DOCTYPE svg PUBLIC "-//W3C//DTD SVG 1.1//EN" "http://www.w3.org/Graphics/SVG/1.1/DTD/svg11.dtd"><svg width="100%" height="100%" viewBox="0 0 144 48" version="1.1" xmlns="http://www.w3.org/2000/svg" xmlns:xlink="http://www.w3.org/1999/xlink" xml:space="preserve" xmlns:serif="http://www.serif.com/" style="fill-rule:evenodd;clip-rule:evenodd;stroke-linejoin:round;stroke-miterlimit:1.41421;"><rect id="Platine" x="0" y="0" width="144" height="48" style="fill:none;"/><g id="bleckwen-ercom" serif:id="bleckwen/ercom"><path d="M40.716,23.209c-0.174,0.284 -0.386,0.517 -0.636,0.687c-0.256,0.164 -0.522,0.284 -0.811,0.34c-0.288,0.057 -0.549,0.082 -0.794,0.082l-2.301,0l0,-4.655l2.323,0c0.756,0 1.365,0.201 1.806,0.604c0.446,0.391 0.674,0.989 0.674,1.783c0,0.479 -0.092,0.863 -0.261,1.159m-4.542,-9.103l2.464,0c0.631,0 1.094,0.195 1.393,0.592c0.294,0.384 0.435,0.851 0.435,1.374c0,0.365 -0.054,0.68 -0.169,0.932c-0.114,0.252 -0.266,0.454 -0.462,0.624c-0.201,0.163 -0.43,0.277 -0.691,0.346c-0.261,0.07 -0.533,0.107 -0.832,0.107l-2.138,0l0,-3.975Zm6.272,6.81c-0.131,-0.39 -0.31,-0.737 -0.533,-1.033c-0.223,-0.296 -0.489,-0.536 -0.789,-0.718c-0.304,-0.183 -0.631,-0.29 -0.984,-0.309l0,-0.044c0.593,-0.22 1.066,-0.58 1.441,-1.065c0.365,-0.485 0.555,-1.115 0.555,-1.877c0,-0.567 -0.092,-1.065 -0.272,-1.487c-0.179,-0.422 -0.424,-0.769 -0.734,-1.046c-0.31,-0.264 -0.68,-0.472 -1.11,-0.611c-0.43,-0.138 -0.892,-0.208 -1.398,-0.208l-4.014,0l0,13.388l3.965,0c0.566,0 1.099,-0.076 1.589,-0.24c0.489,-0.17 0.913,-0.403 1.289,-0.718c0.37,-0.321 0.658,-0.705 0.876,-1.171c0.206,-0.454 0.315,-0.99 0.315,-1.594c0,-0.454 -0.065,-0.876 -0.196,-1.267" style="fill:#353332;fill-rule:nonzero;"/><path d="M49.724,24.205l0,-11.687l-1.561,0l0,13.388l6.871,0l0,-1.701l-5.31,0Z" style="fill:#353332;fill-rule:nonzero;"/><path d="M11.441,8.059l0,0.006m-0.185,4.165l4.217,-0.17l4.025,-2.514l-0.12,3.011l-1.224,1.065l-0.752,0.71l8.183,3.177l-8.894,0l-2.956,-1.697l-2.517,1.691l-8.768,0l7.953,-11.567l1.055,1.77m8.479,1.119l-4.384,2.028l-4.792,-7.138l-10.042,14.61l26.715,0l-7.497,-9.5Z" style="fill:#119ab1;fill-rule:nonzero;"/><path d="M12.886,25.957l1.049,4.298l-1.049,6.961l0.772,5.742l-0.315,-0.393c0,-0.008 -1.37,-1.715 -2.775,-4.126c-1.409,-2.418 -2.818,-5.401 -2.997,-8.304l-4.389,-4.655l-0.61,1.063l-1.467,-5.989l13.035,0.008m-14.14,-0.905l2.273,9.438l1.098,-2.124l3.25,3.349l0.683,2.777c0,0 0.107,0.481 0.482,1.448c0.358,1.103 1.389,3.667 4.776,8.257c0.315,0.426 0.639,0.876 0.988,1.337l0.108,0.146l0.088,-0.146l3.056,-5.014l3.412,-1.033l2.257,-9.847l3.884,-1.154l1.794,-7.434l-28.149,0Z" style="fill:#353332;fill-rule:nonzero;"/><text x="72.446px" y="35.194px" style="font-family:'Raleway-SemiBold', 'Raleway', sans-serif;font-weight:600;font-size:5.734px;fill:#119ab1;">D<tspan x="76.001px 77.348px 80.363px 83.423px 84.77px 88.567px 92.102px 95.815px 98.821px 102.133px 103.346px 106.267px 109.272px 110.312px 113.654px 116.942px 120.289px 121.635px 122.848px 126.403px 130.116px 131.329px 133.879px 137.082px 140.796px " y="35.194px 35.194px 35.194px 35.194px 35.194px 35.194px 35.194px 35.194px 35.194px 35.194px 35.194px 35.194px 35.194px 35.194px 35.194px 35.194px 35.194px 35.194px 35.194px 35.194px 35.194px 35.194px 35.194px 35.194px 35.194px ">ISTINGUER LE VRAI DU FAUX</tspan></text><path d="M59.903,14.228l7.449,0l0,-1.708l-7.449,0l0,1.708Zm-0.009,9.972l0,1.708l7.465,0l0,-1.701" style="fill:#119ab1;fill-rule:nonzero;"/><path d="M81.422,22.75c-0.349,0.567 -0.773,1.008 -1.273,1.322c-0.501,0.316 -1.083,0.473 -1.746,0.473c-0.675,0 -1.279,-0.139 -1.812,-0.416c-0.533,-0.277 -0.984,-0.655 -1.36,-1.134c-0.364,-0.479 -0.653,-1.033 -0.848,-1.663c-0.196,-0.63 -0.294,-1.298 -0.294,-2.003c0,-0.756 0.103,-1.468 0.316,-2.13c0.201,-0.661 0.495,-1.235 0.87,-1.732c0.375,-0.485 0.827,-0.876 1.354,-1.159c0.533,-0.284 1.121,-0.429 1.774,-0.429c0.533,0 1.049,0.132 1.55,0.397c0.5,0.265 0.914,0.643 1.24,1.134l1.306,-1.153c-0.468,-0.706 -1.066,-1.228 -1.801,-1.569c-0.734,-0.34 -1.485,-0.51 -2.246,-0.51c-0.893,0 -1.709,0.177 -2.448,0.529c-0.746,0.353 -1.376,0.851 -1.904,1.487c-0.528,0.63 -0.941,1.393 -1.235,2.268c-0.288,0.876 -0.44,1.833 -0.44,2.867c0,0.844 0.135,1.675 0.407,2.507c0.272,0.825 0.669,1.562 1.186,2.224c0.517,0.649 1.143,1.178 1.877,1.581c0.734,0.41 1.561,0.605 2.475,0.605c0.664,0 1.251,-0.094 1.757,-0.29c0.506,-0.195 0.941,-0.422 1.295,-0.68c0.359,-0.258 0.652,-0.523 0.87,-0.775c0.218,-0.258 0.364,-0.46 0.451,-0.598l-1.321,-1.153Z" style="fill:#353332;fill-rule:nonzero;"/><path d="M91.316,18.705l5.587,-6.187l-2.187,0l-5.113,5.79l-0.125,0l0,-5.79l-1.572,0l0,13.388l1.572,0l0,-6.691l0.125,0l5.391,6.691l2.284,0l-5.962,-7.201Z" style="fill:#353332;fill-rule:nonzero;"/><path d="M114.326,12.518l-2.556,10.704l-0.033,0l-2.714,-10.704l-1.801,0l-2.72,10.704l-0.032,0l-2.552,-10.704l-1.632,0l3.379,13.388l1.664,0l2.774,-10.924l0.033,0l2.796,10.924l1.665,0l3.361,-13.388l-1.632,0Z" style="fill:#353332;fill-rule:nonzero;"/><rect x="59.894" y="18.358" width="5.987" height="1.711" style="fill:#119ab1;"/><path d="M142.428,12.518l0,11.007l-0.033,0l-6.364,-11.007l-2.056,0l0,13.388l1.561,0l0,-11.006l0.033,0l6.44,11.006l1.991,0l0,-13.388l-1.572,0Z" style="fill:#353332;fill-rule:nonzero;"/><path d="M120.743,14.238l7.449,0l0,-1.707l-7.449,0l0,1.707Zm-0.008,9.972l0,1.708l7.465,0l0,-1.701" style="fill:#119ab1;fill-rule:nonzero;"/><rect x="120.734" y="18.368" width="5.987" height="1.711" style="fill:#119ab1;"/></g></svg>