<?xml version="1.0" encoding="UTF-8" standalone="no"?><!DOCTYPE svg PUBLIC "-//W3C//DTD SVG 1.1//EN" "http://www.w3.org/Graphics/SVG/1.1/DTD/svg11.dtd"><svg width="100%" height="100%" viewBox="0 0 144 26" version="1.1" xmlns="http://www.w3.org/2000/svg" xmlns:xlink="http://www.w3.org/1999/xlink" xml:space="preserve" xmlns:serif="http://www.serif.com/" style="fill-rule:evenodd;clip-rule:evenodd;stroke-linejoin:round;stroke-miterlimit:1.41421;"><g><path d="M40.543,7.652l-5.455,0l0,6.089l-1.909,0l0,-13.509l7.978,0l0,1.801l-6.069,0l0,3.818l5.455,0l0,1.801Z" style="fill:#231f20;fill-rule:nonzero;"/><path d="M56.469,11.938l2.684,0c2.125,0 2.54,-1.082 2.54,-2.124c0,-1.494 -0.668,-2.162 -2.505,-2.162l-2.719,0l0,4.286Zm2.576,-9.906l-2.576,0l0,3.817l2.719,0c1.656,0 2.07,-0.97 2.07,-1.908c0,-0.953 -0.322,-1.909 -2.213,-1.909m-4.483,-1.799l4.411,0c3.242,0 4.322,1.673 4.322,3.708c0,1.01 -0.451,2.036 -1.313,2.683c1.205,0.596 1.745,1.873 1.745,3.19c0,2.176 -1.189,3.925 -4.644,3.925l-4.521,0l0,-13.506Z" style="fill:#231f20;fill-rule:nonzero;"/><path d="M73.031,7.652l-5.637,0l0,4.286l6.23,0l0,1.803l-8.119,0l0,-13.509l8.119,0l0,1.801l-6.23,0l0,3.818l5.637,0l0,1.801Z" style="fill:#231f20;fill-rule:nonzero;"/><path d="M78.311,6.321l2.72,0c1.98,0 2.269,-0.956 2.269,-2.162c0,-1.171 -0.289,-2.126 -2.269,-2.126l-2.72,0l0,4.288Zm0,7.42l-1.888,0l0,-13.509l4.355,0c3.475,0 4.555,1.512 4.555,3.927c0,1.765 -0.556,3.043 -2.232,3.636c0.99,1.875 2.198,4.107 3.152,5.946l-2.341,0l-2.754,-5.621l-2.847,0l0,5.621Z" style="fill:#231f20;fill-rule:nonzero;"/><path d="M97.056,13.74l-6.284,-9.799l0.036,9.799l-1.837,0l0,-13.509l1.496,0l6.284,9.799l-0.035,-9.799l1.837,0l0,13.509l-1.497,0Z" style="fill:#231f20;fill-rule:nonzero;"/><path d="M105.462,1.799c-2.792,0 -3.188,2.395 -3.188,5.186c0,2.792 0.396,5.189 3.188,5.189c2.789,0 3.188,-2.397 3.188,-5.189c0,-2.791 -0.399,-5.186 -3.188,-5.186m0,12.174c-4.521,0 -5.133,-3.457 -5.133,-6.988c0,-3.53 0.612,-6.985 5.133,-6.985c4.534,0 5.13,3.455 5.13,6.985c0,3.531 -0.596,6.988 -5.13,6.988" style="fill:#231f20;fill-rule:nonzero;"/><path d="M132.418,7.65l-5.635,0l0,4.288l6.228,0l0,1.803l-8.119,0l0,-13.511l8.119,0l0,1.803l-6.228,0l0,3.818l5.635,0l0,1.799Z" style="fill:#231f20;fill-rule:nonzero;"/><path d="M137.7,11.938l5.906,0l0,1.801l-7.797,0l0,-13.508l1.891,0l0,11.707Z" style="fill:#231f20;fill-rule:nonzero;"/><path d="M46.011,0.186l2.034,0l4.724,13.554l-2.044,0l-4.714,-13.554Z" style="fill:#231f20;fill-rule:nonzero;"/><path d="M118.371,13.736l-2.034,0l-4.726,-13.552l2.047,0l4.713,13.552Z" style="fill:#231f20;fill-rule:nonzero;"/><path d="M118.381,13.736l-2.042,0l4.722,-13.552l2.034,0l-4.714,13.552Z" style="fill:#231f20;fill-rule:nonzero;"/><path d="M3.752,25.052l-3.752,0l8.671,-24.867l3.734,0l-8.653,24.867Z" style="fill:#231f20;fill-rule:nonzero;"/><path d="M16.794,25.052l-3.75,0l8.669,-24.867l3.736,0l-8.655,24.867Z" style="fill:#231f20;fill-rule:nonzero;"/><path d="M45.991,0.186l-4.714,13.554l2.032,0l4.724,-13.554l-2.042,0Z" style="fill:#231f20;fill-rule:nonzero;"/><path d="M72.375,18.447l0,6.597l-1.066,0l0,-6.597l-2.009,0l0,-1.015l5.084,0l0,1.015l-2.009,0Z" style="fill:#0095da;fill-rule:nonzero;"/><path d="M79.915,21.614l-3.177,0l0,2.415l3.512,0l0,1.015l-4.577,0l0,-7.612l4.577,0l0,1.015l-3.512,0l0,2.152l3.177,0l0,1.015Z" style="fill:#0095da;fill-rule:nonzero;"/><path d="M84.715,17.3c0.913,0 1.603,0.173 2.07,0.376l0,1.086c-0.832,-0.345 -1.38,-0.447 -2.07,-0.447c-1.441,0 -1.938,1.279 -1.938,2.923c0,1.644 0.497,2.923 1.938,2.923c0.69,0 1.238,-0.101 2.07,-0.447l0,1.086c-0.467,0.203 -1.157,0.376 -2.07,0.376c-2.314,0 -3.045,-1.776 -3.045,-3.938c0,-2.162 0.731,-3.938 3.045,-3.938" style="fill:#0095da;fill-rule:nonzero;"/><path d="M92.61,25.044l0,-3.43l-3.186,0l0,3.43l-1.066,0l0,-7.612l1.066,0l0,3.167l3.186,0l0,-3.167l1.066,0l0,7.612l-1.066,0Z" style="fill:#0095da;fill-rule:nonzero;"/><path d="M99.958,25.044l-3.542,-5.521l0.02,5.521l-1.035,0l0,-7.612l0.842,0l3.542,5.521l-0.02,-5.521l1.035,0l0,7.612l-0.842,0Z" style="fill:#0095da;fill-rule:nonzero;"/><path d="M105.265,18.315c-1.573,0 -1.796,1.35 -1.796,2.923c0,1.573 0.223,2.923 1.796,2.923c1.573,0 1.796,-1.35 1.796,-2.923c0,-1.573 -0.223,-2.923 -1.796,-2.923m0,6.861c-2.547,0 -2.893,-1.949 -2.893,-3.938c0,-1.989 0.346,-3.938 2.893,-3.938c2.557,0 2.892,1.949 2.892,3.938c0,1.989 -0.335,3.938 -2.892,3.938" style="fill:#0095da;fill-rule:nonzero;"/><path d="M110.796,24.029l3.328,0l0,1.015l-4.394,0l0,-7.612l1.066,0l0,6.597Z" style="fill:#0095da;fill-rule:nonzero;"/><path d="M118.234,18.315c-1.573,0 -1.796,1.35 -1.796,2.923c0,1.573 0.223,2.923 1.796,2.923c1.573,0 1.796,-1.35 1.796,-2.923c0,-1.573 -0.223,-2.923 -1.796,-2.923m0,6.861c-2.547,0 -2.892,-1.949 -2.892,-3.938c0,-1.989 0.345,-3.938 2.892,-3.938c2.558,0 2.892,1.949 2.892,3.938c0,1.989 -0.334,3.938 -2.892,3.938" style="fill:#0095da;fill-rule:nonzero;"/><path d="M122.547,21.238c0,-2.161 0.731,-3.938 3.044,-3.938c1.026,0 1.746,0.224 2.223,0.457l0,1.076c-0.913,-0.376 -1.482,-0.518 -2.223,-0.518c-1.451,0 -1.948,1.279 -1.948,2.923c0,1.644 0.497,2.923 1.948,2.923c0.447,0 1.005,-0.051 1.34,-0.152l0,-2.131l-1.492,0l0,-1.015l2.558,0l0,3.846c-0.579,0.264 -1.36,0.467 -2.406,0.467c-2.313,0 -3.044,-1.776 -3.044,-3.938" style="fill:#0095da;fill-rule:nonzero;"/><rect x="129.945" y="17.432" width="1.066" height="7.612" style="fill:#0095da;fill-rule:nonzero;"/><path d="M137.201,21.614l-3.177,0l0,2.415l3.512,0l0,1.015l-4.577,0l0,-7.612l4.577,0l0,1.015l-3.512,0l0,2.152l3.177,0l0,1.015Z" style="fill:#0095da;fill-rule:nonzero;"/><path d="M139.981,19.543c0,0.822 0.568,0.914 1.593,1.056c1.533,0.182 2.426,0.68 2.426,2.172c0,1.075 -0.568,2.405 -2.882,2.405c-0.69,0 -1.675,-0.203 -2.223,-0.457l0,-1.045c0.7,0.274 1.116,0.487 2.233,0.487c1.36,0 1.756,-0.629 1.756,-1.39c0,-0.822 -0.406,-1.015 -1.502,-1.157l0.01,0c-1.827,-0.234 -2.497,-0.772 -2.497,-2.081c0,-0.913 0.437,-2.233 2.629,-2.233c0.913,0 1.603,0.193 2.08,0.417l0,1.075c-0.832,-0.385 -1.39,-0.477 -2.08,-0.477c-1.279,0 -1.543,0.579 -1.543,1.228" style="fill:#0095da;fill-rule:nonzero;"/></g></svg>