<?xml version="1.0" encoding="UTF-8" standalone="no"?><!DOCTYPE svg PUBLIC "-//W3C//DTD SVG 1.1//EN" "http://www.w3.org/Graphics/SVG/1.1/DTD/svg11.dtd"><svg width="100%" height="100%" viewBox="0 0 144 38" version="1.1" xmlns="http://www.w3.org/2000/svg" xmlns:xlink="http://www.w3.org/1999/xlink" xml:space="preserve" xmlns:serif="http://www.serif.com/" style="fill-rule:evenodd;clip-rule:evenodd;stroke-linejoin:round;stroke-miterlimit:1.41421;"><g id="Full-Tinyclues-Logo"><path id="Fill-1" d="M6.424,5.664l0.694,0l0,6.051l4.514,0l0,0.992l-4.44,0c0,0 -0.148,10.045 -0.074,11.484c0.136,2.63 2.579,4.018 5.357,1.19c0.144,-0.146 0.372,0.397 0.372,0.397c0,0 -1.562,2.533 -5.406,2.53c-3.226,-0.003 -4.515,-2.257 -4.515,-4.737l0,-10.938l-2.926,0l0,-0.744c0.744,0.099 5.357,-0.645 6.424,-6.225" style="fill:#313539;"/><path id="Fill-3" d="M143.933,6.122c0,1.357 -1.1,2.458 -2.458,2.458c-1.357,0 -2.458,-1.101 -2.458,-2.458c0,-1.358 1.101,-2.458 2.458,-2.458c1.358,0 2.458,1.1 2.458,2.458" style="fill:#313539;"/><path id="Fill-4" d="M75.967,0.625l0,0.797l2.955,0l0,26.342l7.305,0l0,-0.876l-3.088,0l0,-26.794l-7.172,0.531" style="fill:#313539;"/><g id="Group-8"><path id="Fill-5" d="M13.215,11.703l0,0.908l2.291,0l0,15.153l7.072,0l0,-0.942l-2.856,0l0,-15.119l-6.507,0" style="fill:#313539;"/><path id="Fill-7" d="M42.599,11.703l0,0.875l2.191,0l7.006,15.186l-3.984,9.085l0.896,0.349l10.957,-24.587l2.158,0l0,-0.908l-6.01,0l0,0.842l2.623,0l-4.449,10.459l-4.615,-10.426l2.524,0l0,-0.875l-9.297,0" style="fill:#313539;"/></g><path id="Fill-9" d="M113.088,14.703c0.033,-0.598 0.531,-2.59 3.287,-2.557c2.756,0.033 2.789,2.358 2.822,3.055c0.033,0.697 0,2.59 0,2.59l-6.109,0c0,0 -0.033,-2.49 0,-3.088Zm9.695,8.068c0,0 -1.143,4.643 -5.578,4.748c-4.435,0.105 -4.132,-3.818 -4.132,-3.818l0,-5.055l10.009,0c0,0 0.564,0.141 0.531,-0.623c-0.033,-0.764 -0.731,-6.541 -7.138,-6.541c-6.409,0 -8.132,6.076 -8.132,8.101c0,1.827 0.495,8.779 7.799,8.779c7.305,0 7.473,-5.558 7.473,-5.558l-0.832,-0.033Z" style="fill:#313539;"/><path id="Fill-10" d="M23.043,11.703l0,0.908l2.855,0l0,15.153l6.674,0l0,-0.876l-2.524,0c0,0 -0.069,-5.846 0,-6.74c0.156,-2.004 -0.189,-6.334 4.304,-7.351c2.436,-0.551 2.602,2.836 2.602,2.836l0,12.131l7.073,0l0,-0.942l-2.856,0l0,-10.525c0,0 0.532,-4.815 -4.615,-4.815c-5.147,0 -6.375,3.819 -6.375,3.819l0,-3.598l-7.138,0" style="fill:#313539;"/><path id="Fill-11" d="M107.211,27.842l0,-0.908l-2.856,0l0,-15.153l-7.171,0l0,0.876l3.021,0c0,0 0.07,5.846 0,6.74c-0.155,2.004 0.022,6.754 -4.482,7.724c-2.988,0.643 -2.424,-3.209 -2.424,-3.209l0,-12.131l-6.84,0l0,0.942l2.623,0l0,10.525c0,0 -0.697,5.114 4.45,5.114c5.146,0 6.54,-4.118 6.54,-4.118l0,3.598l7.139,0" style="fill:#313539;"/><path id="Fill-12" d="M136.662,13.773l-0.797,0.565c0,0 -1.129,-2.292 -3.985,-2.192c-2.855,0.1 -3.851,1.859 -3.718,2.822c0.133,0.963 0.564,1.793 4.681,2.557c4.117,0.764 5.18,3.154 4.881,5.877c-0.299,2.723 -1.475,4.96 -5.445,4.96c-2.623,0 -4.416,-1.772 -4.416,-1.772l-1.162,1.174l-0.664,0l0,-5.757l0.896,0c0,0 0.897,5.678 5.246,5.545c4.35,-0.133 3.852,-3.187 3.852,-3.652c0,-0.465 -0.697,-1.826 -3.354,-2.125c-2.656,-0.299 -6.707,-0.996 -6.441,-5.711c0.266,-4.714 5.346,-4.582 5.877,-4.582c0.531,0 3.055,-0.066 4.549,2.291" style="fill:#313539;"/><path id="Fill-13" d="M75.337,22.871l0.763,0c0,0 -0.598,5.491 -6.972,5.491c-6.375,0 -7.869,-6.155 -7.77,-8.944c0.1,-2.789 2.358,-8.156 8.733,-7.936c6.374,0.221 5.777,3.918 5.71,4.283c-0.066,0.366 -0.148,2.568 -2.988,1.959c-1.859,-0.398 -1.328,-2.39 -1.096,-2.689c0.233,-0.299 1.196,-1.029 0.93,-1.66c-0.265,-0.631 -1.428,-1.295 -2.722,-1.262c-1.295,0.033 -3.885,0.432 -3.885,4.615c0,4.184 0.033,6.774 0.066,7.338c0.033,0.564 0.332,3.486 3.387,3.32c3.055,-0.166 4.681,-0.896 5.844,-4.515" style="fill:#313539;"/></g></svg>