<?xml version="1.0" encoding="UTF-8" standalone="no"?><!DOCTYPE svg PUBLIC "-//W3C//DTD SVG 1.1//EN" "http://www.w3.org/Graphics/SVG/1.1/DTD/svg11.dtd"><svg width="100%" height="100%" viewBox="0 0 144 48" version="1.1" xmlns="http://www.w3.org/2000/svg" xmlns:xlink="http://www.w3.org/1999/xlink" xml:space="preserve" xmlns:serif="http://www.serif.com/" style="fill-rule:evenodd;clip-rule:evenodd;stroke-linejoin:round;stroke-miterlimit:2;"><g id="Lightbend"></g><g id="Lightbend-reverse" serif:id="Lightbend reverse"></g><g id="Teads"></g><g id="Coliweb"></g><g id="Coliweb1" serif:id="Coliweb"></g><g id="vente-privee" serif:id="vente privee"></g><g id="Fyber"></g><g id="Ebiznext"></g><g id="Criteo"></g><g id="Zengularity"></g><rect id="Platine" x="0" y="0" width="144" height="48" style="fill:none;"/><clipPath id="_clip1"><rect x="0" y="0" width="144" height="48"/></clipPath><g clip-path="url(#_clip1)"><g id="Coliweb2" serif:id="Coliweb"></g><g><path d="M99.486,20.68c-0.716,0 -1.345,0.104 -1.885,0.312c-0.542,0.208 -1.053,0.511 -1.536,0.911l0,-7.39l-2.621,0l0,18.724l2.621,0l0,-8.937c0.716,-0.932 1.648,-1.398 2.796,-1.398c0.949,0 1.648,0.299 2.098,0.898c0.449,0.599 0.674,1.54 0.674,2.821l0,6.616l2.596,0l0,-6.865c0,-1.764 -0.399,-3.154 -1.198,-4.169c-0.799,-1.016 -1.981,-1.523 -3.545,-1.523Zm-11.659,12.807c0.665,0 1.314,-0.079 1.947,-0.237c0.632,-0.158 1.148,-0.362 1.548,-0.612l-0.3,-2.147c-0.948,0.516 -1.947,0.774 -2.996,0.774c-1.248,0 -2.218,-0.383 -2.908,-1.148c-0.691,-0.766 -1.036,-1.781 -1.036,-3.046c0,-1.298 0.345,-2.318 1.036,-3.059c0.69,-0.74 1.668,-1.11 2.933,-1.11c1.032,0 2.014,0.233 2.946,0.699l0.3,-2.197c-0.949,-0.5 -2.064,-0.749 -3.346,-0.749c-1.431,0 -2.638,0.283 -3.62,0.848c-0.982,0.566 -1.714,1.336 -2.197,2.31c-0.483,0.973 -0.724,2.076 -0.724,3.308c0,1.198 0.246,2.28 0.737,3.245c0.49,0.966 1.219,1.727 2.184,2.285c0.965,0.557 2.131,0.836 3.496,0.836Zm-14.306,-2.047c-1.198,0 -1.797,-0.566 -1.797,-1.698c0,-1.581 1.498,-2.422 4.494,-2.521l0,2.896c-0.333,0.416 -0.745,0.74 -1.236,0.973c-0.491,0.234 -0.978,0.35 -1.461,0.35Zm-0.799,2.047c0.766,0 1.473,-0.146 2.122,-0.437c0.65,-0.291 1.199,-0.695 1.648,-1.211c0.266,0.566 0.62,0.982 1.061,1.249c0.441,0.266 1.095,0.399 1.96,0.399l0.574,0l0.3,-2.122l-0.3,0c-0.383,0 -0.661,-0.066 -0.836,-0.2c-0.175,-0.133 -0.291,-0.358 -0.35,-0.674c-0.058,-0.316 -0.087,-0.799 -0.087,-1.448l0,-2.871c0,-1.997 -0.35,-3.412 -1.049,-4.244c-0.699,-0.832 -1.814,-1.248 -3.345,-1.248c-0.782,0 -1.544,0.104 -2.284,0.312c-0.741,0.208 -1.419,0.503 -2.035,0.886l0.3,2.122c0.632,-0.383 1.21,-0.653 1.735,-0.811c0.524,-0.158 1.052,-0.238 1.585,-0.238c0.865,0 1.494,0.179 1.885,0.537c0.391,0.358 0.595,1.011 0.612,1.96c-1.116,0.017 -2.214,0.162 -3.296,0.437c-1.082,0.275 -2.001,0.736 -2.759,1.386c-0.757,0.649 -1.136,1.514 -1.136,2.596c0,1.082 0.346,1.956 1.036,2.621c0.691,0.666 1.577,0.999 2.659,0.999Zm-13.506,-7.914c0.433,-1.781 1.49,-2.671 3.171,-2.671c0.899,0 1.573,0.249 2.022,0.748c0.45,0.5 0.674,1.141 0.674,1.923l-5.867,0Zm3.845,7.914c1.431,0 2.813,-0.316 4.144,-0.949l-0.249,-2.122c-1.099,0.566 -2.306,0.849 -3.62,0.849c-1.165,0 -2.127,-0.308 -2.884,-0.924c-0.757,-0.615 -1.219,-1.614 -1.386,-2.996l8.539,0c0.1,-0.499 0.15,-0.965 0.15,-1.398c0,-1.597 -0.483,-2.875 -1.448,-3.832c-0.966,-0.957 -2.264,-1.435 -3.895,-1.435c-1.248,0 -2.326,0.283 -3.233,0.848c-0.907,0.566 -1.598,1.328 -2.072,2.285c-0.475,0.957 -0.712,2.01 -0.712,3.158c0,1.215 0.254,2.314 0.762,3.295c0.507,0.983 1.265,1.765 2.271,2.347c1.007,0.583 2.218,0.874 3.633,0.874Zm-13.955,-0.25l2.696,0l0,-8.588c0.216,-0.349 0.574,-0.657 1.073,-0.924c0.5,-0.266 1.032,-0.399 1.598,-0.399c0.333,0 0.632,0.034 0.899,0.1l0.225,-2.721c-0.2,-0.034 -0.391,-0.05 -0.575,-0.05c-1.198,0 -2.346,0.657 -3.445,1.972l-0.175,-1.723l-2.296,0l0,12.333Z" style="fill-rule:nonzero;"/><path d="M135.462,25.573c0.432,-1.781 1.489,-2.671 3.17,-2.671c0.899,0 1.573,0.249 2.022,0.748c0.45,0.5 0.675,1.141 0.675,1.923l-5.867,0Zm3.844,7.914c1.431,0 2.813,-0.316 4.145,-0.949l-0.25,-2.122c-1.099,0.566 -2.305,0.849 -3.62,0.849c-1.165,0 -2.127,-0.308 -2.883,-0.924c-0.758,-0.615 -1.22,-1.614 -1.386,-2.996l8.538,0c0.1,-0.499 0.15,-0.965 0.15,-1.398c0,-1.597 -0.483,-2.875 -1.448,-3.832c-0.966,-0.957 -2.264,-1.435 -3.895,-1.435c-1.248,0 -2.326,0.283 -3.233,0.848c-0.907,0.566 -1.598,1.328 -2.072,2.285c-0.474,0.957 -0.711,2.01 -0.711,3.158c0,1.215 0.253,2.314 0.761,3.295c0.507,0.983 1.265,1.765 2.271,2.347c1.007,0.583 2.218,0.874 3.633,0.874Zm-14.854,-0.25l2.571,0l4.694,-12.333l-2.746,0l-3.246,9.288l-3.27,-9.288l-2.747,0l4.744,12.333Zm-8.988,0l2.597,0l0,-12.333l-2.597,0l0,12.333Zm0,-14.729l2.597,0l0,-2.747l-2.597,0l0,2.747Zm-7.564,14.729l2.596,0l0,-10.261l3.071,0l0,-2.072l-3.071,0l0,-2.471c0,-1.115 0.508,-1.673 1.523,-1.673c0.35,0 0.733,0.058 1.149,0.175l0.299,-2.147c-0.633,-0.183 -1.29,-0.275 -1.972,-0.275c-1.148,0 -2.035,0.321 -2.659,0.961c-0.624,0.641 -0.936,1.519 -0.936,2.634l0,2.796l-1.673,0l-0.299,2.072l1.972,0l0,10.261Z" style="fill:#00ab58;fill-rule:nonzero;"/><path d="M12.04,15.077c3.087,-2.049 6.275,-2.847 6.5,-2.79l-11.021,-3.47l-0.451,11.091c0.088,-0.298 1.936,-2.815 4.972,-4.831Z" style="fill:#cbd4d2;fill-rule:nonzero;"/><path d="M6.46,41.006l12.077,2.717l-7.801,-9.598l-10.385,-3.798l6.109,10.679Z" style="fill:#cbd4d2;fill-rule:nonzero;"/><path d="M18.543,43.723l12.077,-2.717l6.109,-10.679l-10.385,3.798l-7.801,9.598Z" style="fill:#cbd4d2;fill-rule:nonzero;"/><path d="M7.068,19.908l0.451,-11.081l-7.519,9.246l0.351,12.254l6.717,-10.419Z" style="fill:#2cb05f;fill-rule:nonzero;"/><path d="M30.013,19.908l0.001,0" style="fill:none;fill-rule:nonzero;"/><path d="M29.561,8.817l0.452,11.091l0.001,0l6.715,10.419l0.351,-12.254l-7.519,-9.256Z" style="fill:#2cb05f;fill-rule:nonzero;"/><path d="M7.589,27.315c-0.998,-3.842 -0.659,-7.211 -0.521,-7.407c-0.001,-0.001 -6.717,10.419 -6.717,10.419l10.385,3.798c-0.41,-0.446 -2.217,-3.225 -3.147,-6.81Z" style="fill:#75bea1;fill-rule:nonzero;"/><path d="M30.013,19.908l0.001,0c0.147,0.506 0.389,3.776 -0.554,7.407c-0.926,3.568 -2.695,6.345 -3.116,6.81l10.385,-3.798l-6.716,-10.419Z" style="fill:#75bea1;fill-rule:nonzero;"/><path d="M25.022,15.077c3.035,2.015 4.991,4.831 4.991,4.831l-0.452,-11.091l-11.021,3.47c0.389,-0.005 3.488,0.803 6.482,2.79Z" style="fill:#cbd4d2;fill-rule:nonzero;"/><path d="M29.561,8.817l-11.021,-4.54l-11.018,4.54l11.024,3.47l11.015,-3.47Z" style="fill:#eaeae7;fill-rule:nonzero;"/><path d="M18.616,35.576c-4.017,0 -7.877,-1.45 -7.88,-1.451l7.801,9.598l7.807,-9.598c-0.313,0.238 -3.629,1.451 -7.728,1.451Z" style="fill:#eaeae7;fill-rule:nonzero;"/><path d="M26.343,34.125l0.001,0l-0.002,0c0,0 0,0 0.001,0Z" style="fill:#626a76;fill-rule:nonzero;"/></g></g><g id="kelkoo"></g><g><g id="bleckwen-ercom" serif:id="bleckwen/ercom"></g></g><g id="iadvize"></g><g id="kaizen"></g><g id="Content-square" serif:id="Content square"></g><g id="Norauto"></g><g><g id="lizeo"></g></g><g id="kaizen1" serif:id="kaizen"></g><g id="CarbonIT"></g><g id="kelkoo1" serif:id="kelkoo"></g><g id="Norauto1" serif:id="Norauto"></g><g id="lunatech"></g><g id="valraiso"></g><g id="MFG-Labs" serif:id="MFG Labs"></g><g id="Zenika"></g><g><g><g id="lightbend"></g></g></g></svg>