<?xml version="1.0" encoding="UTF-8" standalone="no"?>
<!DOCTYPE svg PUBLIC "-//W3C//DTD SVG 1.1//EN" "http://www.w3.org/Graphics/SVG/1.1/DTD/svg11.dtd">
<svg width="100%" height="100%" viewBox="0 0 200 200" version="1.1" xmlns="http://www.w3.org/2000/svg" xmlns:xlink="http://www.w3.org/1999/xlink" xml:space="preserve" style="fill-rule:evenodd;clip-rule:evenodd;stroke-linejoin:round;stroke-miterlimit:1.41421;">
    <g transform="matrix(1,0,0,1,-688.89,-502)">
        <g transform="matrix(1,0,0,1,-1095.06,34)">
            <g id="Carré-fond-rouge" transform="matrix(0.951069,-1.20449e-17,-1.19847e-17,1.00503,-212.069,-76.7236)">
                <rect x="2098.71" y="542" width="210.29" height="199" style="fill:none;"/>
                <clipPath id="_clip1">
                    <rect x="2098.71" y="542" width="210.29" height="199"/>
                </clipPath>
                <g clip-path="url(#_clip1)">
                    <g transform="matrix(1.05145,1.26013e-17,1.25383e-17,0.995,-90.3524,2.71)">
                        <rect x="2081.95" y="542" width="200" height="200" style="fill:rgb(188,19,33);"/>
                    </g>
                    <g transform="matrix(1.05145,1.26013e-17,1.25383e-17,0.995,2074.26,110.428)">
                        <path d="M41.326,555.715C46.208,558.279 54.022,560.843 61.958,560.843C70.503,560.843 75.021,557.303 75.021,551.931C75.021,546.803 71.114,543.873 61.225,540.455C47.551,535.572 38.517,528.002 38.517,516.037C38.517,501.998 50.359,491.377 69.648,491.377C79.048,491.377 85.763,493.208 90.647,495.527L86.496,510.422C83.321,508.835 77.34,506.516 69.404,506.516C61.346,506.516 57.439,510.3 57.439,514.452C57.439,519.702 61.957,522.021 72.7,526.05C87.228,531.421 93.943,538.989 93.943,550.589C93.943,564.385 83.443,576.105 60.858,576.105C51.458,576.105 42.18,573.541 37.54,570.977L41.326,555.715Z" style="fill:white;fill-rule:nonzero;"/>
                    </g>
                    <g transform="matrix(1.05145,1.26013e-17,1.25383e-17,0.995,1831.18,115.657)">
                        <circle cx="343.156" cy="491.769" r="11.025"/>
                        <path d="M340.911,544.299L352.521,544.299L352.521,512.371L332.93,512.371L332.93,544.299C332.93,561.931 343.383,576.226 362.319,576.226C363.88,576.226 365.379,576.12 366.825,575.931C352.194,573.836 340.911,560.477 340.911,544.299Z" style="fill-rule:nonzero;"/>
                        <path d="M406.398,512.371C387.463,512.371 372.112,526.666 372.112,544.299C372.112,551.265 371.05,557.172 366.607,559.353C367.935,559.931 369.356,560.262 370.843,560.262C377.928,560.262 383.67,553.116 383.67,544.299L391.704,544.299C391.704,535.483 398.282,528.335 406.397,528.335C414.512,528.335 421.09,535.482 421.09,544.299C421.09,553.116 414.512,560.262 406.397,560.262C403.317,560.262 400.474,559.211 398.116,557.449C395.793,562.921 392.071,567.571 387.43,570.874C392.865,574.245 399.377,576.227 406.397,576.227C425.334,576.227 440.683,561.932 440.683,544.3C440.685,526.666 425.335,512.371 406.398,512.371Z" style="fill-rule:nonzero;"/>
                    </g>
                </g>
            </g>
        </g>
    </g>
</svg>
